<svg width="18" height="19" viewBox="0 0 18 19" fill="none" xmlns="http://www.w3.org/2000/svg">
<path d="M8.76562 1.02344L7.98438 1.76562C7.78906 1.96094 7.78906 2.27344 7.98438 2.42969L14.0391 8.48438H0.71875C0.445312 8.48438 0.25 8.71875 0.25 8.95312V10.0469C0.25 10.3203 0.445312 10.5156 0.71875 10.5156H14.0391L7.98438 16.6094C7.78906 16.7656 7.78906 17.0781 7.98438 17.2734L8.76562 18.0156C8.92188 18.2109 9.23438 18.2109 9.42969 18.0156L17.5938 9.85156C17.7891 9.65625 17.7891 9.38281 17.5938 9.1875L9.42969 1.02344C9.23438 0.828125 8.92188 0.828125 8.76562 1.02344Z" fill="black"/>
</svg>