<svg width="20" height="21" viewBox="0 0 20 21" fill="none" xmlns="http://www.w3.org/2000/svg">
<path d="M19.1711 6.87926L19.1711 6.87851C19.0899 5.41621 18.7597 4.0213 17.6192 2.88082C16.4787 1.74034 15.0838 1.41013 13.6215 1.32889L13.6207 1.32885C12.1574 1.24976 7.80349 1.24976 6.3402 1.32885L6.33945 1.32889C4.87012 1.41052 3.52296 1.74325 2.34849 2.87421L2.34843 2.87415L2.34176 2.88082C1.20128 4.0213 0.871071 5.41621 0.789832 6.87851L0.789791 6.87926C0.710695 8.34255 0.710695 12.6965 0.789791 14.1598L0.789832 14.1605C0.871462 15.6299 1.20419 16.977 2.33515 18.1515L2.3417 18.1583L2.34849 18.1648C3.52296 19.2958 4.87012 19.6285 6.33945 19.7102L6.3402 19.7102C7.80349 19.7893 12.1574 19.7893 13.6207 19.7102L13.6215 19.7102C15.0838 19.6289 16.4787 19.2987 17.6192 18.1582L17.6192 18.1583L17.6258 18.1515C18.7568 16.977 19.0895 15.6299 19.1711 14.1605L19.1711 14.1598C19.2502 12.6965 19.2502 8.34255 19.1711 6.87926ZM16.3349 15.4651L16.3295 15.4779L16.3249 15.4911C16.1059 16.117 15.5979 16.6062 14.9665 16.8733C14.4734 17.0691 13.5849 17.1582 12.5926 17.1877C11.9113 17.208 11.2351 17.1999 10.6688 17.1931C10.4221 17.1902 10.1963 17.1875 10 17.1875C9.79653 17.1875 9.56411 17.1902 9.31156 17.1932C8.7367 17.1999 8.05753 17.2079 7.37813 17.1877C6.3809 17.1581 5.50428 17.0681 5.03493 16.8739L5.03494 16.8739L5.02945 16.8717C4.37525 16.61 3.88998 16.1248 3.6283 15.4706L3.62833 15.4705L3.62607 15.4651C3.43185 14.9957 3.3419 14.1191 3.31228 13.1219C3.2921 12.4425 3.30007 11.7633 3.30681 11.1884C3.30977 10.9359 3.3125 10.7035 3.3125 10.5C3.3125 10.3037 3.30981 10.0779 3.30686 9.83122C3.30011 9.26485 3.29204 8.58868 3.31228 7.90742C3.34176 6.91508 3.43091 6.02662 3.62667 5.53354C3.8878 4.91639 4.37405 4.42952 5.02945 4.16736L5.02946 4.1674L5.03493 4.16513C5.50428 3.97092 6.3809 3.88096 7.37813 3.85134C8.05753 3.83116 8.7367 3.83913 9.31156 3.84587C9.56411 3.84884 9.79653 3.85156 10 3.85156C10.1963 3.85156 10.4221 3.84887 10.6688 3.84593C11.2351 3.83917 11.9113 3.83111 12.5926 3.85134C13.5877 3.8809 14.4783 3.97046 14.9706 4.16736L14.9705 4.16754L14.9834 4.1723C15.5736 4.38975 16.0659 4.89912 16.3343 5.53353C16.53 6.02661 16.6192 6.91507 16.6487 7.90742C16.6689 8.58868 16.6608 9.26485 16.6541 9.83122C16.6511 10.0779 16.6484 10.3037 16.6484 10.5C16.6484 10.7035 16.6512 10.9359 16.6541 11.1884C16.6609 11.7633 16.6688 12.4425 16.6487 13.1219C16.619 14.1191 16.5291 14.9957 16.3349 15.4651ZM10 5.50781C7.22103 5.50781 5.00781 7.76576 5.00781 10.5C5.00781 13.2761 7.22386 15.4922 10 15.4922C12.7342 15.4922 14.9922 13.279 14.9922 10.5C14.9922 7.76292 12.7371 5.50781 10 5.50781ZM10 12.9297C8.67023 12.9297 7.57031 11.8601 7.57031 10.5C7.57031 9.17895 8.63112 8.10938 10 8.10938C11.3254 8.10938 12.3906 9.17458 12.3906 10.5C12.3906 11.8689 11.321 12.9297 10 12.9297ZM16.2031 5.85156C16.2031 4.98948 15.5105 4.29688 14.6484 4.29688C13.7864 4.29688 13.0938 4.98948 13.0938 5.85156C13.0938 6.71364 13.7864 7.40625 14.6484 7.40625C15.5105 7.40625 16.2031 6.71364 16.2031 5.85156Z" stroke="black"/>
</svg>
