<svg width="22" height="23" viewBox="0 0 22 23" fill="none" xmlns="http://www.w3.org/2000/svg">
<mask id="path-1-outside-1" maskUnits="userSpaceOnUse" x="0.3125" y="0.8125" width="22" height="22" fill="black">
<rect fill="white" x="0.3125" y="0.8125" width="22" height="22"/>
<path d="M20.6875 11.5C20.6875 6.14844 16.3516 1.8125 11 1.8125C5.64844 1.8125 1.3125 6.14844 1.3125 11.5C1.3125 15.6406 3.85156 19.1172 7.44531 20.5234C7.36719 19.7812 7.28906 18.6094 7.48438 17.75C7.67969 17.0078 8.61719 12.9453 8.61719 12.9453C8.61719 12.9453 8.34375 12.3594 8.34375 11.5C8.34375 10.1719 9.125 9.15625 10.1016 9.15625C10.9219 9.15625 11.3125 9.78125 11.3125 10.5234C11.3125 11.3438 10.7656 12.5938 10.4922 13.7656C10.2969 14.7031 11 15.4844 11.9375 15.4844C13.6562 15.4844 14.9844 13.6875 14.9844 11.0703C14.9844 8.72656 13.3047 7.125 10.9609 7.125C8.1875 7.125 6.58594 9.19531 6.58594 11.3047C6.58594 12.1641 6.89844 13.0625 7.28906 13.5312C7.36719 13.6094 7.36719 13.7266 7.36719 13.8047C7.28906 14.1172 7.09375 14.7812 7.09375 14.8984C7.05469 15.0938 6.9375 15.1328 6.74219 15.0547C5.53125 14.4688 4.78906 12.7109 4.78906 11.2656C4.78906 8.21875 7.01562 5.40625 11.1953 5.40625C14.5547 5.40625 17.1719 7.82812 17.1719 11.0312C17.1719 14.3516 15.0625 17.0469 12.1328 17.0469C11.1562 17.0469 10.2188 16.5391 9.90625 15.9141C9.90625 15.9141 9.4375 17.7891 9.32031 18.2188C9.08594 19.0781 8.5 20.1328 8.10938 20.7578C9.00781 21.0703 9.98438 21.1875 11 21.1875C16.3516 21.1875 20.6875 16.8516 20.6875 11.5Z"/>
</mask>
<path d="M7.44531 20.5234L7.08091 21.4547L8.61193 22.0538L8.43982 20.4188L7.44531 20.5234ZM7.48438 17.75L6.5173 17.4955L6.51299 17.5119L6.50924 17.5284L7.48438 17.75ZM8.61719 12.9453L9.59158 13.1702L9.66903 12.8346L9.52337 12.5224L8.61719 12.9453ZM10.4922 13.7656L9.51835 13.5384L9.51564 13.55L9.51321 13.5617L10.4922 13.7656ZM7.28906 13.5312L6.52084 14.1714L6.54988 14.2063L6.58196 14.2384L7.28906 13.5312ZM7.36719 13.8047L8.33733 14.0472L8.36719 13.9278V13.8047H7.36719ZM7.09375 14.8984L8.07433 15.0946L8.09375 14.9975V14.8984H7.09375ZM6.74219 15.0547L6.30663 15.9548L6.33821 15.9701L6.3708 15.9832L6.74219 15.0547ZM9.90625 15.9141L10.8007 15.4668L9.59174 13.049L8.93611 15.6715L9.90625 15.9141ZM8.10938 20.7578L7.26138 20.2278L6.59714 21.2906L7.78085 21.7023L8.10938 20.7578ZM21.6875 11.5C21.6875 5.59615 16.9038 0.8125 11 0.8125V2.8125C15.7993 2.8125 19.6875 6.70072 19.6875 11.5H21.6875ZM11 0.8125C5.09615 0.8125 0.3125 5.59615 0.3125 11.5H2.3125C2.3125 6.70072 6.20072 2.8125 11 2.8125V0.8125ZM0.3125 11.5C0.3125 16.0645 3.11533 19.9029 7.08091 21.4547L7.80971 19.5922C4.5878 18.3314 2.3125 15.2168 2.3125 11.5H0.3125ZM8.43982 20.4188C8.36135 19.6733 8.30489 18.6519 8.45951 17.9716L6.50924 17.5284C6.27323 18.5668 6.37303 19.8892 6.45081 20.6281L8.43982 20.4188ZM8.45145 18.0045C8.55365 17.6161 8.84101 16.3967 9.09783 15.2967C9.22739 14.7418 9.35082 14.2102 9.44184 13.8174C9.48735 13.621 9.52478 13.4592 9.55082 13.3466C9.56385 13.2902 9.57403 13.2462 9.58096 13.2162C9.58443 13.2012 9.58708 13.1897 9.58886 13.1819C9.58976 13.1781 9.59043 13.1751 9.59089 13.1732C9.59112 13.1722 9.59129 13.1714 9.5914 13.1709C9.59146 13.1707 9.5915 13.1705 9.59153 13.1704C9.59155 13.1703 9.59156 13.1703 9.59157 13.1702C9.59157 13.1702 9.59158 13.1702 8.61719 12.9453C7.6428 12.7205 7.64279 12.7205 7.64279 12.7205C7.64278 12.7205 7.64277 12.7206 7.64276 12.7206C7.64273 12.7207 7.64269 12.7209 7.64263 12.7212C7.64252 12.7217 7.64235 12.7224 7.64213 12.7234C7.64168 12.7253 7.64101 12.7282 7.64012 12.732C7.63835 12.7397 7.63571 12.7511 7.63226 12.7661C7.62536 12.7959 7.61521 12.8399 7.60222 12.8961C7.57624 13.0085 7.53889 13.1699 7.49346 13.3659C7.4026 13.758 7.27944 14.2885 7.15021 14.842C6.88946 15.9588 6.61041 17.1417 6.5173 17.4955L8.45145 18.0045ZM8.61719 12.9453C9.52337 12.5224 9.52349 12.5227 9.5236 12.5229C9.52364 12.523 9.52375 12.5232 9.52382 12.5234C9.52397 12.5237 9.52411 12.524 9.52425 12.5243C9.52453 12.5249 9.52479 12.5255 9.52503 12.526C9.52552 12.5271 9.52595 12.528 9.52631 12.5288C9.52704 12.5304 9.52752 12.5315 9.52777 12.532C9.52827 12.5331 9.52784 12.5322 9.52662 12.5293C9.52418 12.5235 9.51858 12.51 9.51079 12.4892C9.49516 12.4475 9.47111 12.3779 9.44608 12.2849C9.39566 12.0977 9.34375 11.8249 9.34375 11.5H7.34375C7.34375 12.0345 7.42856 12.4844 7.51485 12.8049C7.55818 12.9658 7.6025 13.0964 7.63813 13.1915C7.65598 13.2391 7.67175 13.278 7.68425 13.3076C7.69051 13.3224 7.69596 13.3349 7.70046 13.345C7.70272 13.3501 7.70473 13.3546 7.7065 13.3584C7.70738 13.3603 7.70819 13.3621 7.70895 13.3638C7.70932 13.3646 7.70968 13.3654 7.71003 13.3661C7.7102 13.3665 7.71036 13.3668 7.71053 13.3672C7.71061 13.3673 7.71073 13.3676 7.71077 13.3677C7.71089 13.3679 7.711 13.3682 8.61719 12.9453ZM9.34375 11.5C9.34375 11.0254 9.4841 10.6581 9.65421 10.433C9.82151 10.2117 9.98609 10.1562 10.1016 10.1562V8.15625C8.33095 8.15625 7.34375 9.8973 7.34375 11.5H9.34375ZM10.1016 10.1562C10.1778 10.1562 10.2108 10.1702 10.2176 10.1734C10.2234 10.176 10.2276 10.1786 10.2353 10.1881C10.2561 10.214 10.3125 10.3141 10.3125 10.5234H12.3125C12.3125 9.99054 12.1735 9.40705 11.794 8.93497C11.3911 8.43375 10.7934 8.15625 10.1016 8.15625V10.1562ZM10.3125 10.5234C10.3125 10.7627 10.2244 11.1426 10.0482 11.7215C9.89017 12.2408 9.6651 12.9095 9.51835 13.5384L11.466 13.9929C11.5927 13.4499 11.7778 12.9076 11.9616 12.3039C12.1272 11.7597 12.3125 11.1045 12.3125 10.5234H10.3125ZM9.51321 13.5617C9.17693 15.1758 10.4238 16.4844 11.9375 16.4844V14.4844C11.7507 14.4844 11.6209 14.4091 11.5485 14.3248C11.4812 14.2466 11.4372 14.1327 11.4712 13.9696L9.51321 13.5617ZM11.9375 16.4844C13.181 16.4844 14.2255 15.8249 14.923 14.8347C15.613 13.8552 15.9844 12.5383 15.9844 11.0703H13.9844C13.9844 12.2195 13.6917 13.1097 13.2879 13.6829C12.8917 14.2454 12.4128 14.4844 11.9375 14.4844V16.4844ZM15.9844 11.0703C15.9844 9.65079 15.4707 8.39858 14.5488 7.50189C13.6295 6.60779 12.3644 6.125 10.9609 6.125V8.125C11.9013 8.125 12.6478 8.44299 13.1543 8.93561C13.6582 9.42564 13.9844 10.1461 13.9844 11.0703H15.9844ZM10.9609 6.125C7.59353 6.125 5.58594 8.68566 5.58594 11.3047H7.58594C7.58594 9.70497 8.78147 8.125 10.9609 8.125V6.125ZM5.58594 11.3047C5.58594 12.3489 5.95175 13.4885 6.52084 14.1714L8.05728 12.8911C7.84512 12.6365 7.58594 11.9793 7.58594 11.3047H5.58594ZM6.58196 14.2384C6.43705 14.0935 6.39132 13.9365 6.37684 13.8641C6.3644 13.8019 6.36719 13.7553 6.36719 13.8047H8.36719C8.36719 13.7759 8.36997 13.6317 8.338 13.4719C8.30399 13.3018 8.2192 13.0472 7.99617 12.8241L6.58196 14.2384ZM6.39704 13.5622C6.36014 13.7098 6.2995 13.925 6.23494 14.1671C6.2051 14.279 6.17493 14.3951 6.1517 14.4946C6.14019 14.5439 6.12826 14.598 6.11867 14.6504C6.11273 14.6828 6.09375 14.7846 6.09375 14.8984H8.09375C8.09375 14.983 8.08087 15.0384 8.08592 15.0108C8.08732 15.0032 8.09125 14.9838 8.09928 14.9495C8.11511 14.8817 8.13865 14.7903 8.16741 14.6825C8.22003 14.4851 8.29611 14.2121 8.33733 14.0472L6.39704 13.5622ZM6.11317 14.7023C6.12368 14.6498 6.20804 14.316 6.59195 14.156C6.75635 14.0875 6.90018 14.0876 6.98275 14.0966C7.06198 14.1053 7.10938 14.1245 7.11358 14.1262L6.3708 15.9832C6.53453 16.0487 6.92893 16.1823 7.36118 16.0022C7.86228 15.7934 8.02475 15.3424 8.07433 15.0946L6.11317 14.7023ZM7.17775 14.1545C6.84355 13.9928 6.48945 13.6185 6.21096 13.0454C5.93763 12.4829 5.78906 11.831 5.78906 11.2656H3.78906C3.78906 12.1455 4.01159 13.0953 4.41209 13.9195C4.80742 14.7331 5.42989 15.5306 6.30663 15.9548L7.17775 14.1545ZM5.78906 11.2656C5.78906 9.98524 6.25553 8.78082 7.13351 7.89887C8.00383 7.02461 9.33997 6.40625 11.1953 6.40625V4.40625C8.87097 4.40625 7.00398 5.19414 5.7161 6.48785C4.43588 7.77387 3.78906 9.49913 3.78906 11.2656H5.78906ZM11.1953 6.40625C14.0654 6.40625 16.1719 8.44133 16.1719 11.0312H18.1719C18.1719 7.21492 15.044 4.40625 11.1953 4.40625V6.40625ZM16.1719 11.0312C16.1719 13.9932 14.3344 16.0469 12.1328 16.0469V18.0469C15.7906 18.0469 18.1719 14.7099 18.1719 11.0312H16.1719ZM12.1328 16.0469C11.8118 16.0469 11.4905 15.9617 11.2308 15.8271C10.9583 15.6858 10.8344 15.5342 10.8007 15.4668L9.01182 16.3613C9.29065 16.9189 9.79172 17.3338 10.3102 17.6026C10.8416 17.8781 11.4773 18.0469 12.1328 18.0469V16.0469ZM9.90625 15.9141C8.93611 15.6715 8.93611 15.6715 8.9361 15.6715C8.9361 15.6716 8.9361 15.6716 8.93609 15.6716C8.93607 15.6717 8.93605 15.6717 8.93603 15.6718C8.93597 15.6721 8.93589 15.6724 8.93578 15.6728C8.93555 15.6737 8.93522 15.6751 8.93478 15.6768C8.93389 15.6804 8.93258 15.6856 8.93085 15.6925C8.92741 15.7063 8.92233 15.7266 8.91582 15.7526C8.90281 15.8046 8.88407 15.8794 8.86123 15.9704C8.81552 16.1526 8.75339 16.4 8.68762 16.6606C8.55462 17.1877 8.41099 17.7523 8.35555 17.9556L10.2851 18.4819C10.3468 18.2555 10.4962 17.6678 10.6268 17.1499C10.6929 16.8881 10.7553 16.6398 10.8011 16.457C10.8241 16.3656 10.8429 16.2906 10.8559 16.2383C10.8625 16.2122 10.8676 16.1918 10.8711 16.1779C10.8728 16.171 10.8741 16.1657 10.875 16.1621C10.8755 16.1603 10.8758 16.1589 10.876 16.158C10.8762 16.1575 10.8762 16.1572 10.8763 16.157C10.8763 16.1568 10.8764 16.1568 10.8764 16.1567C10.8764 16.1567 10.8764 16.1566 10.8764 16.1566C10.8764 16.1566 10.8764 16.1566 9.90625 15.9141ZM8.35555 17.9556C8.16186 18.6658 7.6432 19.6169 7.26138 20.2278L8.95737 21.2878C9.3568 20.6487 10.01 19.4904 10.2851 18.4819L8.35555 17.9556ZM7.78085 21.7023C8.81653 22.0625 9.91178 22.1875 11 22.1875V20.1875C10.057 20.1875 9.1991 20.0781 8.4379 19.8133L7.78085 21.7023ZM11 22.1875C16.9038 22.1875 21.6875 17.4038 21.6875 11.5H19.6875C19.6875 16.2993 15.7993 20.1875 11 20.1875V22.1875Z" fill="black" mask="url(#path-1-outside-1)"/>
</svg>
