<svg width="35" height="36" viewBox="0 0 35 36" fill="none" xmlns="http://www.w3.org/2000/svg">
<path d="M10.9375 0.375H2.1875C0.957031 0.375 0 1.40039 0 2.5625V28.8125C0 32.4355 2.93945 35.375 6.5625 35.375C10.1172 35.375 13.125 32.4355 13.125 28.8125V2.5625C13.125 1.40039 12.0996 0.375 10.9375 0.375ZM6.5625 30.4531C5.60547 30.4531 4.92188 29.7695 4.92188 28.8125C4.92188 27.9238 5.60547 27.1719 6.5625 27.1719C7.45117 27.1719 8.20312 27.9238 8.20312 28.8125C8.20312 29.7695 7.45117 30.4531 6.5625 30.4531ZM8.75 17.875H4.375V13.5H8.75V17.875ZM8.75 9.125H4.375V4.75H8.75V9.125Z" fill="black"/>
<path opacity="0.5" d="M4.375 17.875H8.75V13.5H4.375V17.875ZM29.668 11.8594L23.5156 5.70703C23.1738 5.36523 22.4902 5.0918 21.9434 5.0918C21.4648 5.0918 20.7812 5.36523 20.4395 5.70703L15.3125 10.834V29.3594L29.668 14.9355C30.0098 14.5938 30.3516 13.9102 30.3516 13.4316C30.3516 12.9531 30.0098 12.2012 29.668 11.8594ZM4.375 9.125H8.75V4.75H4.375V9.125ZM32.8125 22.25H25.498L12.7148 35.0332C12.5781 35.1699 12.4414 35.3066 12.3047 35.375H32.8125C33.9746 35.375 35 34.418 35 33.1875V24.4375C35 23.2754 33.9746 22.25 32.8125 22.25Z" fill="black"/>
</svg>
