<?xml version="1.0" standalone="no"?>
<!DOCTYPE svg PUBLIC "-//W3C//DTD SVG 1.1//EN" "http://www.w3.org/Graphics/SVG/1.1/DTD/svg11.dtd" >
<svg>
<metadata>
Created by FontForge 20090914 at Wed Sep  7 11:02:32 2016
 By www-data
Copyright (c) 2012 by Kimberly Geswein. All rights reserved.
</metadata>
<defs>
<font id="KGOneMoreNight" horiz-adv-x="205" >
  <font-face 
    font-family="KG One More Night"
    font-weight="400"
    font-stretch="normal"
    units-per-em="1024"
    panose-1="2 0 5 6 0 0 0 2 0 4"
    ascent="819"
    descent="-205"
    x-height="697"
    cap-height="700"
    bbox="-93.998 -157.181 740.572 848.553"
    underline-thickness="50"
    underline-position="-50"
    unicode-range="U+0020-U+2212"
  />
<missing-glyph horiz-adv-x="500" 
 />
    <glyph glyph-name=".notdef" horiz-adv-x="500" 
 />
    <glyph glyph-name="space" unicode=" " horiz-adv-x="155" 
 />
    <glyph glyph-name="space" unicode="&#xa0;" horiz-adv-x="155" 
 />
    <glyph glyph-name="exclam" unicode="!" horiz-adv-x="94" 
d="M18 35c0 7.33301 2.66699 13.666 8 18.999s11.666 8 18.999 8s13.666 -2.66699 18.999 -8s8 -11.666 8 -18.999s-2.66699 -13.666 -8 -18.999s-11.666 -8 -18.999 -8s-13.666 2.66699 -18.999 8s-8 11.666 -8 18.999zM25 687c0 4.66699 2.16699 8.16797 6.5 10.501
s9 3.33301 14 3s9.5 -1.83301 13.5 -4.5s6 -6.66699 6 -12v-528c-2 -5.33301 -5.33301 -9.33301 -10 -12s-9.33398 -3.83398 -14.001 -3.50098s-8.66699 2 -12 5s-4.66602 7.5 -3.99902 13.5v528z" />
    <glyph glyph-name="quotedbl" unicode="&#x22;" horiz-adv-x="230" 
d="M51 696c-5.33301 4 -7.49805 8.33105 -6.49805 12.998s3.66699 8.33398 8 11.001s9.66602 3.83398 15.999 3.50098s11.833 -3.16602 16.5 -8.49902c10 -11.333 16 -27.833 18 -49.5s-2.66699 -43.167 -14 -64.5c-3.33301 -6 -7.33301 -9.33301 -12 -10s-9 0.5 -13 3.5
s-6.66699 7 -8 12s-0.333008 10.5 3 16.5c6.66699 11.333 9.16699 24.666 7.5 39.999s-6.83398 26.333 -15.501 33zM130.002 700.998c-5.33301 4 -7.49805 8.33105 -6.49805 12.998s3.66699 8.33398 8 11.001s9.66602 3.83398 15.999 3.50098s11.833 -3.16602 16.5 -8.49902
c10 -11.333 16 -27.833 18 -49.5s-2.66699 -43.167 -14 -64.5c-3.33301 -6 -7.33301 -9.33301 -12 -10s-9 0.5 -13 3.5s-6.66699 7 -8 12s-0.333008 10.5 3 16.5c6.66699 11.333 9.16699 24.666 7.5 39.999s-6.83398 26.333 -15.501 33z" />
    <glyph glyph-name="numbersign" unicode="#" horiz-adv-x="332" 
d="M226 458l65.002 -0.00195312c4.66699 0 8.16699 -2.16699 10.5 -6.5s3.33301 -9 3 -14s-1.83301 -9.5 -4.5 -13.5s-6.66699 -6 -12 -6h-62v-50h63c4.66699 0 8.16699 -2.16699 10.5 -6.5s3.33301 -9 3 -14s-1.83301 -9.5 -4.5 -13.5s-6.66699 -6 -12 -6h-61v-75
c0 -4.66699 -2.16699 -8.16699 -6.5 -10.5s-9 -3.33301 -14 -3s-9.5 1.83301 -13.5 4.5s-6 6.66699 -6 12v72l-50 1v-74c0 -4.66699 -2.16699 -8.16699 -6.5 -10.5s-9 -3.33301 -14 -3s-9.5 1.83301 -13.5 4.5s-6 6.66699 -6 12v71l-53 1
c-5.33301 2 -9.33301 5.33301 -12 10s-3.83398 9.33398 -3.50098 14.001s2 8.66699 5 12s7.5 4.66602 13.5 3.99902l51 -1v50l-52 1c-5.33301 2 -9.33301 5.33301 -12 10s-3.83398 9.33398 -3.50098 14.001s2 8.66699 5 12s7.5 4.66602 13.5 3.99902l49 -1l1 66
c2 5.33301 5.33301 9.33301 10 12s9.33398 3.83398 14.001 3.50098s8.66699 -2 12 -5s4.66602 -7.5 3.99902 -13.5l-1 -63l50 -1l1 65c2 5.33301 5.33301 9.33301 10 12s9.33398 3.83398 14.001 3.50098s8.66699 -2 12 -5s4.66602 -7.5 3.99902 -13.5zM136.002 368.998
l50 -1v50l-50 1v-50z" />
    <glyph glyph-name="dollar" unicode="$" horiz-adv-x="414" 
d="M171 1c-22.667 4 -44.333 11.165 -65 21.498s-38.667 23.666 -54 39.999s-27.5 36 -36.5 59s-12.833 49.167 -11.5 78.5c0 6.66699 2.33301 12 7 16s9.66699 6.33301 15 7s10.166 -0.666016 14.499 -3.99902s6.16602 -9 5.49902 -17
c-1.33301 -24 1.16699 -45.167 7.5 -63.5s15.333 -34.333 27 -48s25.334 -24.667 41.001 -33s32.167 -14.5 49.5 -18.5l-2 324c-19.333 7.33301 -38.5 17.166 -57.5 29.499s-36 26.5 -51 42.5s-27.333 33.333 -37 52s-14.5 38.334 -14.5 59.001c0 22 4 42.5 12 61.5
s19 35.5 33 49.5s30.667 25 50 33s40.333 12 63 12v23c0 4.66699 2.16699 8.16699 6.5 10.5s9 3.33301 14 3s9.5 -1.83301 13.5 -4.5s6 -6.66699 6 -12v-25c22 -5.33301 43.667 -14.333 65 -27s40.5 -28 57.5 -46s30.5 -38.333 40.5 -61s15 -47 15 -73
c0 -6 -2.33301 -10.5 -7 -13.5s-9.66699 -4.5 -15 -4.5s-10.333 1.66699 -15 5s-7 8 -7 14c0 18.667 -4 36.834 -12 54.501s-18.167 33.834 -30.5 48.501s-26.5 27.334 -42.5 38.001s-32.333 18.667 -49 24l2 -267c28.667 -12 56 -24.833 82 -38.5s48.167 -30 66.5 -49
s32 -41.667 41 -68s10.5 -58.5 4.5 -96.5c-4 -24 -12 -44.833 -24 -62.5s-26.667 -32.167 -44 -43.5s-36.666 -19.833 -57.999 -25.5s-43.333 -8.16699 -66 -7.5l1 -45c-2 -5.33301 -5.33301 -9.33301 -10 -12s-9.33398 -3.83398 -14.001 -3.50098s-8.66699 2 -12 5
s-4.66602 7.5 -3.99902 13.5zM362.001 139.998c4 27.333 2.49902 51.6699 -4.50098 73.0029s-17.667 40.166 -32 56.499s-31.666 30.666 -51.999 42.999s-41.833 23.5 -64.5 33.5l2 -312c18 0 35.5 2.16699 52.5 6.5s32.333 11 46 20s25.167 20.167 34.5 33.5
s15.333 28.666 18 45.999zM52 550.002c0 -15.333 3.16699 -30 9.5 -44s15 -27 26 -39s23.5 -23 37.5 -33s28.667 -19 44 -27l-2 254c-32 0 -59.167 -9 -81.5 -27s-33.5 -46 -33.5 -84z" />
    <glyph glyph-name="percent" unicode="%" horiz-adv-x="355" 
d="M300 693c2 4 5.33105 6.16797 9.99805 6.50098s9.33398 -0.666992 14.001 -3s8.33398 -5.5 11.001 -9.5s2.66699 -8.33301 0 -13l-282 -670c-4 -4 -8.66699 -6.33301 -14 -7s-10 0 -14 2s-6.83301 5.16699 -8.5 9.5s-1.16699 9.16602 1.5 14.499zM231.998 33.001
c0 7.33301 2.66699 13.666 8 18.999s11.666 8 18.999 8s13.666 -2.66699 18.999 -8s8 -11.666 8 -18.999s-2.66699 -13.666 -8 -18.999s-11.666 -8 -18.999 -8s-13.666 2.66699 -18.999 8s-8 11.666 -8 18.999zM68.998 661.001c0 7.33301 2.66699 13.666 8 18.999
s11.666 8 18.999 8s13.666 -2.66699 18.999 -8s8 -11.666 8 -18.999s-2.66699 -13.666 -8 -18.999s-11.666 -8 -18.999 -8s-13.666 2.66699 -18.999 8s-8 11.666 -8 18.999z" />
    <glyph glyph-name="ampersand" unicode="&#x26;" horiz-adv-x="342" 
d="M316 21c4 -7.33301 5.16504 -13.6621 3.49805 -18.9951s-4.5 -9.5 -8.5 -12.5s-8.66699 -4.16699 -14 -3.5s-9.66602 3.66699 -12.999 9l-33 65c-11.333 -14 -26.333 -27.167 -45 -39.5s-38.5 -20.833 -59.5 -25.5s-41.333 -4.5 -61 0.5s-35.834 17.5 -48.501 37.5
c-14 22 -21.667 49.833 -23 83.5s1.83398 69.167 9.50098 106.5s19.167 74.5 34.5 111.5s33 69.833 53 98.5c-4 12 -8.5 26.833 -13.5 44.5s-9.33301 36.167 -13 55.5s-6 38.666 -7 57.999s0.333008 37 4 53s10.167 29.167 19.5 39.5s22.666 16.166 39.999 17.499
c20.667 2 35.667 -4.83301 45 -20.5s13.833 -36.5 13.5 -62.5s-4.66602 -55.5 -12.999 -88.5s-19.166 -65.833 -32.499 -98.5c14 -48 29.833 -95.167 47.5 -141.5l53.5 -139.5c4.66699 16 8.5 31.333 11.5 46s5.66699 30 8 46s4.33301 33.167 6 51.5
s3.16699 39.166 4.5 62.499c0.666992 6.66699 3.16699 11.5 7.5 14.5s9 4.16699 14 3.5s9.5 -2.83398 13.5 -6.50098s6 -8.83398 6 -15.501c0 -15.333 -1 -34 -3 -56s-5 -45 -9 -69s-8.83301 -47.667 -14.5 -71s-12.5 -44 -20.5 -62l19 -39.5
c5.33301 -11 11.333 -22.167 18 -33.5zM230.998 102.004c-5.33301 10.667 -12.168 26.666 -20.501 47.999l-27 71l-29.5 80.5c-10 27.667 -19 53.834 -27 78.501c-12 -17.333 -23.5 -40.166 -34.5 -68.499s-19.667 -57.833 -26 -88.5s-9.66602 -60.334 -9.99902 -89.001
s4.16699 -52 13.5 -70c8.66699 -16.667 20.5 -26.667 35.5 -30s30.5 -2.33301 46.5 3s31.167 14 45.5 26s25.5 25 33.5 39zM145.996 658.003c-8.66699 0.666992 -15.166 -2.66895 -19.499 -10.002s-7.33301 -16.833 -9 -28.5s-2 -24.334 -1 -38.001s2.5 -27 4.5 -40
s4.16699 -24.5 6.5 -34.5s4.16602 -17 5.49902 -21c2 3.33301 4.5 10 7.5 20s5.83301 21.333 8.5 34s5.16699 25.834 7.5 39.501s3.66602 26.334 3.99902 38.001s-0.666992 21.334 -3 29.001s-6.16602 11.5 -11.499 11.5z" />
    <glyph glyph-name="quotesingle" unicode="'" horiz-adv-x="154" 
d="M51 684c-5.33301 4 -7.49805 8.33105 -6.49805 12.998s3.66699 8.33398 8 11.001s9.66602 3.83398 15.999 3.50098s11.833 -3.16602 16.5 -8.49902c10 -11.333 16 -27.833 18 -49.5s-2.66699 -43.167 -14 -64.5c-3.33301 -6 -7.33301 -9.33301 -12 -10s-9 0.5 -13 3.5
s-6.66699 7 -8 12s-0.333008 10.5 3 16.5c6.66699 11.333 9.16699 24.666 7.5 39.999s-6.83398 26.333 -15.501 33z" />
    <glyph glyph-name="parenleft" unicode="(" horiz-adv-x="233" 
d="M222 738c6.66699 0.666992 11.8291 -0.332031 15.4961 -2.99902s5.83398 -6.16699 6.50098 -10.5s-0.333008 -9 -3 -14s-7.33398 -9.5 -14.001 -13.5c-36 -22 -65 -48.667 -87 -80s-39 -64.333 -51 -99s-20.167 -69.167 -24.5 -103.5s-6.83301 -65.833 -7.5 -94.5
c-0.666992 -46 3 -88.333 11 -127s18.833 -72.5 32.5 -101.5s29.334 -52.667 47.001 -71s35.5 -29.833 53.5 -34.5c6.66699 -2 11 -5.33301 13 -10s2.33301 -9.5 1 -14.5s-4 -9.16699 -8 -12.5s-8.66699 -4 -14 -2c-24.667 8 -48 21.833 -70 41.5s-41.167 45.167 -57.5 76.5
s-29.166 68.5 -38.499 111.5s-13.333 92.167 -12 147.5c0.666992 42 5 84 13 126s20.333 81.5 37 118.5s37.834 70.167 63.501 99.5s56.834 52.666 93.501 69.999z" />
    <glyph glyph-name="parenright" unicode=")" horiz-adv-x="266" 
d="M42 -57c-6.66699 -0.666992 -11.8301 0.333008 -15.4971 3s-5.83398 6.16699 -6.50098 10.5s0.333008 9 3 14s7.33398 9.5 14.001 13.5c36 22 65 48.667 87 80s39 64.333 51 99s20.167 69.167 24.5 103.5s6.83301 65.833 7.5 94.5c0.666992 46 -3 88.333 -11 127
s-18.833 72.5 -32.5 101.5s-29.334 52.667 -47.001 71s-35.5 29.833 -53.5 34.5c-6.66699 2 -11 5.33301 -13 10s-2.33301 9.5 -1 14.5s4 9.16699 8 12.5s8.66699 4 14 2c24.667 -8 48 -21.833 70 -41.5s41.167 -45.167 57.5 -76.5s29 -68.666 38 -111.999
s13.167 -92.333 12.5 -147c-0.666992 -42 -5 -84 -13 -126s-20.333 -81.5 -37 -118.5s-37.834 -70.333 -63.501 -100s-56.834 -52.834 -93.501 -69.501z" />
    <glyph glyph-name="asterisk" unicode="*" horiz-adv-x="471" 
d="M220 459l55.9951 132.002c2 4 5.33301 6.16699 10 6.5s9.33398 -0.666992 14.001 -3s8.33398 -5.5 11.001 -9.5s2.66699 -8.33301 0 -13l-53 -127l151 10c6 0.666992 10.667 -1 14 -5s5.5 -8.5 6.5 -13.5s0.5 -9.66699 -1.5 -14s-6 -6.83301 -12 -7.5l-151 -10l92 -110
c4 -4 5.83301 -8.33301 5.5 -13s-2.16602 -8.66699 -5.49902 -12s-7.5 -5.5 -12.5 -6.5s-10.167 -0.166992 -15.5 2.5l-97 116l-59 -140c-4 -4 -8.66699 -6.33301 -14 -7s-10 0 -14 2s-6.83301 5.16699 -8.5 9.5s-1.16699 9.16602 1.5 14.499l58 140l-137 -9
c-5.33301 -0.666992 -9.5 1 -12.5 5s-4.83301 8.5 -5.5 13.5s-0.166992 9.66699 1.5 14s4.83398 6.83301 9.50098 7.5l131 8l-83 101c-4 4 -5.33301 8.33301 -4 13s3.83301 8.66699 7.5 12s7.83398 5.66602 12.501 6.99902s8.66699 0.333008 12 -3z" />
    <glyph glyph-name="plus" unicode="+" horiz-adv-x="264" 
d="M154 366l76.001 0.999023c4.66699 0 8.16699 -2.16699 10.5 -6.5s3.33301 -9 3 -14s-1.83301 -9.5 -4.5 -13.5s-6.66699 -6 -12 -6l-73 -1l1 -71c0 -4.66699 -2.16699 -8.16699 -6.5 -10.5s-9 -3.33301 -14 -3s-9.5 1.83301 -13.5 4.5s-6 6.66699 -6 12l-1 68h-72
c-5.33301 2 -9.33301 5.33301 -12 10s-3.83398 9.33398 -3.50098 14.001s2 8.66699 5 12s7.5 4.66602 13.5 3.99902h69v77c2 5.33301 5.33301 9.33301 10 12s9.33398 3.83398 14.001 3.50098s8.66699 -2 12 -5s4.66602 -7.5 3.99902 -13.5v-74z" />
    <glyph glyph-name="comma" unicode="," horiz-adv-x="146" 
d="M46 48c-5.33301 4 -7.49805 8.33105 -6.49805 12.998s3.66699 8.33398 8 11.001s9.66602 3.83398 15.999 3.50098s11.833 -3.16602 16.5 -8.49902c10 -11.333 16 -27.833 18 -49.5s-2.66699 -43.167 -14 -64.5c-3.33301 -6 -7.33301 -9.33301 -12 -10s-9 0.5 -13 3.5
s-6.66699 7 -8 12s-0.333008 10.5 3 16.5c6.66699 11.333 9.16699 24.666 7.5 39.999s-6.83398 26.333 -15.501 33z" />
    <glyph glyph-name="hyphen" unicode="-" horiz-adv-x="272" 
d="M230 371c4.66699 0 8.16797 -2.16699 10.501 -6.5s3.33301 -9 3 -14s-1.83301 -9.5 -4.5 -13.5s-6.66699 -6 -12 -6l-185 -1c-5.33301 2 -9.33301 5.33301 -12 10s-3.83398 9.33398 -3.50098 14.001s2 8.66699 5 12s7.5 4.66602 13.5 3.99902z" />
    <glyph glyph-name="period" unicode="." horiz-adv-x="84" 
d="M18 35c0 7.33301 2.66699 13.666 8 18.999s11.666 8 18.999 8s13.666 -2.66699 18.999 -8s8 -11.666 8 -18.999s-2.66699 -13.666 -8 -18.999s-11.666 -8 -18.999 -8s-13.666 2.66699 -18.999 8s-8 11.666 -8 18.999z" />
    <glyph glyph-name="slash" unicode="/" horiz-adv-x="338" 
d="M287 693c2 4 5.33105 6.16797 9.99805 6.50098s9.33398 -0.666992 14.001 -3s8.33398 -5.5 11.001 -9.5s2.66699 -8.33301 0 -13l-282 -670c-4 -4 -8.66699 -6.33301 -14 -7s-10 0 -14 2s-6.83301 5.16699 -8.5 9.5s-1.16699 9.16602 1.5 14.499z" />
    <glyph glyph-name="zero" unicode="0" horiz-adv-x="394" 
d="M377 331c-2 -47.333 -7.16797 -91.0029 -15.501 -131.003s-20.166 -74.667 -35.499 -104s-34.5 -52.666 -57.5 -69.999s-50.167 -26.666 -81.5 -27.999c-54 -2 -96.167 26.667 -126.5 86s-44.5 144 -42.5 254c0.666992 42 4.5 84.333 11.5 127s18 81.334 33 116.001
s34.5 63.167 58.5 85.5s53.667 34.166 89 35.499c28.667 0.666992 53.834 -9 75.501 -29s39.667 -47.167 54 -81.5s24.666 -74.166 30.999 -119.499s8.5 -92.333 6.5 -141zM333.999 333.997c0.666992 46.667 -1.66895 90.002 -7.00195 130.002s-13.5 74.5 -24.5 103.5
s-24.333 51.5 -40 67.5s-33.167 23.667 -52.5 23s-36.5 -6.33398 -51.5 -17.001s-28 -24.667 -39 -42s-20.167 -37.166 -27.5 -59.499s-13.166 -45.166 -17.499 -68.499s-7.66602 -46.666 -9.99902 -69.999s-3.5 -44.333 -3.5 -63
c-1.33301 -92.667 9.16699 -165.334 31.5 -218.001s54.5 -79.334 96.5 -80.001c22 0 41.833 6.66699 59.5 20s32.667 32.666 45 57.999s21.833 56.166 28.5 92.499s10.667 77.5 12 123.5z" />
    <glyph glyph-name="one" unicode="1" horiz-adv-x="84" 
d="M21 689c0 4.66699 2.16699 8.16797 6.5 10.501s9 3.33301 14 3s9.5 -1.83301 13.5 -4.5s6 -6.66699 6 -12v-674c-2 -5.33301 -5.33301 -9.33301 -10 -12s-9.33398 -3.83398 -14.001 -3.50098s-8.66699 2 -12 5s-4.66602 7.5 -3.99902 13.5v674z" />
    <glyph glyph-name="two" unicode="2" horiz-adv-x="314" 
d="M62 551c-1.33301 -6.66699 -4.66016 -11.0059 -9.99316 -13.0059s-10.833 -2.33301 -16.5 -1s-10.334 4.16602 -14.001 8.49902s-4.83398 9.5 -3.50098 15.5c8.66699 33.333 25.167 61.833 49.5 85.5s50.5 39.334 78.5 47.001s55.333 6 82 -5s46.667 -34.5 60 -70.5
c12 -31.333 15 -63.833 9 -97.5s-16.833 -67.667 -32.5 -102s-34.334 -68.5 -56.001 -102.5l-63 -99.5c-20.333 -32.333 -38 -63.166 -53 -92.499s-23.5 -56.333 -25.5 -81l213 -1c5.33301 0 9.66602 -2 12.999 -6s5.33301 -8.5 6 -13.5s-0.666016 -9.5 -3.99902 -13.5
s-9 -6 -17 -6h-230c-10.667 0.666992 -18.334 3.33398 -23.001 8.00098s-7.33398 10.334 -8.00098 17.001s-0.166992 13.834 1.5 21.501s3.5 14.834 5.5 21.501c6.66699 23.333 18.167 49.5 34.5 78.5l53.5 90.5l58.5 96.5c19.667 33 36.667 65.333 51 97
s24.166 61.834 29.499 90.501s3.66602 54.667 -5.00098 78c-10.667 28 -25.167 45.5 -43.5 52.5s-37 6.83301 -56 -0.5s-36.5 -20.5 -52.5 -39.5s-26.667 -40.167 -32 -63.5z" />
    <glyph glyph-name="three" unicode="3" horiz-adv-x="324" 
d="M57 596c-3.33301 -5.33301 -7.66406 -8.33008 -12.9971 -8.99707s-10.333 0 -15 2s-8.16699 5.16699 -10.5 9.5s-1.83301 9.16602 1.5 14.499c16 26 37.167 45.667 63.5 59s53.166 20.5 80.499 21.5s52.666 -4.16699 75.999 -15.5s40.666 -28.333 51.999 -51
c8 -17.333 11.167 -35.666 9.5 -54.999s-6.83398 -38.333 -15.501 -57s-20 -36.334 -34 -53.001s-29.333 -30.667 -46 -42c26 -12.667 47 -31.5 63 -56.5s27.5 -53 34.5 -84s9.16699 -62.667 6.5 -95s-9.66699 -62 -21 -89s-27.166 -49.167 -47.499 -66.5
s-44.833 -26 -73.5 -26c-33.333 0 -60.166 6.66699 -80.499 20s-36 30.166 -47 50.499s-18 43 -21 68s-3.5 48.833 -1.5 71.5c0.666992 6 3 10.667 7 14s8.16699 5.16602 12.5 5.49902s8.5 -0.833984 12.5 -3.50098s7 -7 9 -13c0 -15.333 0.333008 -32.833 1 -52.5
s4.16699 -38.334 10.5 -56.001s16.666 -32.834 30.999 -45.501s35.166 -19.334 62.499 -20.001c23.333 -0.666992 43 7.5 59 24.5s27.833 38.667 35.5 65s11 54.833 10 85.5s-6.33301 59.334 -16 86.001s-24.167 48.834 -43.5 66.501s-43.333 26.5 -72 26.5
c-4.66699 0 -8.16699 2.16699 -10.5 6.5s-3.5 9 -3.5 14s1.16699 9.66699 3.5 14s5.83301 6.5 10.5 6.5c16.667 0 33.667 6.5 51 19.5s32 28.833 44 47.5s20 38.334 24 59.001s0.666992 39 -10 55c-10.667 16.667 -24.667 27.834 -42 33.501s-35.166 7 -53.499 4
s-36 -9.66699 -53 -20s-30.5 -23.5 -40.5 -39.5z" />
    <glyph glyph-name="four" unicode="4" horiz-adv-x="346" 
d="M284 340l-231.997 0.00292969c-13.333 0 -22.333 1.83301 -27 5.5s-7 12.167 -7 25.5v315c0 4.66699 2.16699 8.16699 6.5 10.5s9.16602 3.66602 14.499 3.99902s10.166 -0.833984 14.499 -3.50098s6.5 -6.66699 6.5 -12v-303l224 2v307
c0 4.66699 2.33301 8.16699 7 10.5s9.66699 3.33301 15 3s10.166 -1.83301 14.499 -4.5s6.5 -6.66699 6.5 -12v-669c-2 -5.33301 -5.5 -9.33301 -10.5 -12s-10 -3.83398 -15 -3.50098s-9.33301 2 -13 5s-5.16699 7.5 -4.5 13.5v318z" />
    <glyph glyph-name="five" unicode="5" horiz-adv-x="278" 
d="M232 700c6 -1.33301 10.499 -3.82227 13.499 -7.48926s4.5 -7.66699 4.5 -12s-1.5 -8.33301 -4.5 -12s-7.16699 -6.5 -12.5 -8.5l-178 -3l9 -248c32 10.667 61.333 13 88 7c24.667 -5.33301 45.334 -19.5 62.001 -42.5s29 -49.833 37 -80.5s11.667 -63.334 11 -98.001
s-6 -66.334 -16 -95.001s-24.5 -52.5 -43.5 -71.5s-42.833 -28.167 -71.5 -27.5c-38 0.666992 -66.667 15.167 -86 43.5s-27.666 65.166 -24.999 110.499c0.666992 6.66699 3.16699 11.667 7.5 15s8.83301 4.66602 13.5 3.99902s8.83398 -2.83398 12.501 -6.50098
s5.83398 -8.83398 6.50098 -15.501c-0.666992 -10.667 -0.166992 -22.334 1.5 -35.001s5 -24.5 10 -35.5s12.167 -20.333 21.5 -28s21.666 -11.834 36.999 -12.501c19.333 -0.666992 35.5 6.5 48.5 21.5s23 34.167 30 57.5s10.833 49 11.5 77s-1.83301 54.333 -7.5 79
s-14.667 46.167 -27 64.5s-27.833 29.5 -46.5 33.5c-16.667 4 -36.667 2.33301 -60 -5c-8.66699 -5.33301 -16.334 -7.83301 -23.001 -7.5s-12.334 2.16602 -17.001 5.49902s-8.16699 7.66602 -10.5 12.999s-3.5 10.666 -3.5 15.999l-10 239
c0 4.66699 0.166992 10.667 0.5 18s1.5 14.5 3.5 21.5s5.66699 13 11 18s13 7.5 23 7.5h179z" />
    <glyph glyph-name="six" unicode="6" horiz-adv-x="358" 
d="M250 698c6.66699 1.33301 11.8379 0.333008 15.5049 -3s6 -7.5 7 -12.5s0.5 -9.83301 -1.5 -14.5s-5 -7.33398 -9 -8.00098c-34 -8.66699 -63.5 -25.834 -88.5 -51.501s-46 -57 -63 -94s-30.167 -78.167 -39.5 -123.5s-15 -91.666 -17 -138.999
c9.33301 12 19.166 23.333 29.499 34s21.666 20.167 33.999 28.5s25.666 15 39.999 20s30.166 8.16699 47.499 9.5c35.333 2 63.666 -5 84.999 -21s36.666 -36.667 45.999 -62s12.833 -53 10.5 -83s-9.66602 -58.167 -21.999 -84.5s-29.333 -48.5 -51 -66.5
s-47.167 -27.333 -76.5 -28c-27.333 -0.666992 -51.833 4.33301 -73.5 15s-40.334 25.5 -56.001 44.5s-28 41.333 -37 67s-14.167 53.167 -15.5 82.5c-3.33301 60.667 0.333984 118.834 11.001 174.501s26.667 105.5 48 149.5s47 80.667 77 110s63 48 99 56zM60.0039 183
c0.666992 -15.333 4.33301 -31.498 11 -48.498s15.667 -32.5 27 -46.5s25.333 -25.667 42 -35s35.334 -14 56.001 -14c20.667 0.666992 39 7.66699 55 21s28.667 29.833 38 49.5s15.333 40.667 18 63s0.833984 43.166 -5.49902 62.499s-17.333 35.5 -33 48.5
s-36.834 19.5 -63.501 19.5c-14.667 0 -29.334 -3.5 -44.001 -10.5s-28.5 -16 -41.5 -27s-24.667 -23.833 -35 -38.5s-18.5 -29.334 -24.5 -44.001z" />
    <glyph glyph-name="seven" unicode="7" horiz-adv-x="338" 
d="M303 702c2.66699 0 6.16797 -0.5 10.501 -1.5s8.16602 -3 11.499 -6s5.5 -7.5 6.5 -13.5s-0.5 -14 -4.5 -24l-270 -648c-2 -5.33301 -5.66699 -8.5 -11 -9.5s-10.5 -0.333008 -15.5 2s-8.83301 6 -11.5 11s-2.66699 10.833 0 17.5l266 633l-252 -2c-6 0 -10.333 2 -13 6
s-4 8.5 -4 13.5s1.5 9.5 4.5 13.5s7.5 6 13.5 6z" />
    <glyph glyph-name="eight" unicode="8" horiz-adv-x="294" 
d="M109 391c-12 8 -23.1699 17.999 -33.5029 29.999s-19.166 25 -26.499 39s-13.166 28.667 -17.499 44s-6.16602 30.666 -5.49902 45.999c0.666992 22.667 4.5 43 11.5 61s15.833 33.333 26.5 46s22.834 22.5 36.501 29.5s27.5 11.167 41.5 12.5
c15.333 1.33301 30.166 -1 44.499 -7s27 -15.667 38 -29s19.333 -30.166 25 -50.499s7.5 -44.166 5.5 -71.499c-2 -28 -11.167 -54.167 -27.5 -78.5s-35.5 -46.833 -57.5 -67.5c22 -14.667 41.333 -34.5 58 -59.5s29.5 -52.167 38.5 -81.5s13.833 -59 14.5 -89
s-3.83301 -57.333 -13.5 -82s-25 -44.667 -46 -60s-48.5 -23 -82.5 -23c-31.333 -0 -56.166 7.83301 -74.499 23.5s-31.333 35.834 -39 60.501s-10.834 52.167 -9.50098 82.5s6.16602 59.833 14.499 88.5s19.333 55.167 33 79.5s28.834 43.166 45.501 56.499z
M139.997 39.999c27.333 0 48.832 6.83203 64.499 20.499s26.334 31.167 32.001 52.5s7 44.833 4 70.5s-9 50.5 -18 74.5s-20.833 45.667 -35.5 65s-30.667 33.333 -48 42c-12 -7.33301 -23.667 -20.666 -35 -39.999s-21 -41 -29 -65s-13.667 -49 -17 -75s-3 -49.667 1 -71
s12.5 -39 25.5 -53s31.5 -21 55.5 -21zM139.996 421.998c9.33301 8.66699 18.5 17.8301 27.5 27.4971s17 19.834 24 30.501s12.667 22 17 34s6.5 25 6.5 39c0 38 -7.33301 65.833 -22 83.5s-31.667 24.834 -51 21.501c-17.333 -2.66699 -33.333 -13.167 -48 -31.5
s-23.334 -43.166 -26.001 -74.499c-2 -23.333 3.33301 -45.833 16 -67.5s31.334 -42.5 56.001 -62.5z" />
    <glyph glyph-name="nine" unicode="9" horiz-adv-x="340" 
d="M325 10c0 -6 -2.16602 -10.5 -6.49902 -13.5s-9.33301 -4.5 -15 -4.5s-10.667 1.5 -15 4.5s-6.5 7.16699 -6.5 12.5l-2 294c-52.667 -8 -96.5 -8.16699 -131.5 -0.5s-62.833 20.5 -83.5 38.5s-34.834 39.833 -42.501 65.5s-10.167 52.5 -7.5 80.5
c2.66699 26.667 10.667 53 24 79s31.5 49.167 54.5 69.5s50.667 36.5 83 48.5s68.833 17 109.5 15c15.333 -1.33301 25 -6.5 29 -15.5s6.66699 -24.167 8 -45.5zM280.001 660c-35.333 0.666992 -66.1689 -4.16797 -92.502 -14.501s-48.666 -24.166 -66.999 -41.499
s-32.666 -36.833 -42.999 -58.5s-16.5 -43.167 -18.5 -64.5c-2 -23.333 0.666992 -45.333 8 -66s20 -37.5 38 -50.5s41.5 -21.167 70.5 -24.5s63.833 1 104.5 13v307z" />
    <glyph glyph-name="colon" unicode=":" horiz-adv-x="128" 
d="M39 226c0 7.33301 2.66699 13.666 8 18.999s11.666 8 18.999 8s13.666 -2.66699 18.999 -8s8 -11.666 8 -18.999s-2.66699 -13.666 -8 -18.999s-11.666 -8 -18.999 -8s-13.666 2.66699 -18.999 8s-8 11.666 -8 18.999zM38 502c0 7.33301 2.66699 13.666 8 18.999
s11.666 8 18.999 8s13.666 -2.66699 18.999 -8s8 -11.666 8 -18.999s-2.66699 -13.666 -8 -18.999s-11.666 -8 -18.999 -8s-13.666 2.66699 -18.999 8s-8 11.666 -8 18.999z" />
    <glyph glyph-name="semicolon" unicode=";" horiz-adv-x="136" 
d="M52 121c-2 6.66699 -1.49902 12.501 1.50098 17.501s6.83301 8.5 11.5 10.5s9.66699 2 15 0s9 -6.33301 11 -13c13.333 -36.667 18.166 -72.834 14.499 -108.501s-14.5 -70.5 -32.5 -104.5c-3.33301 -6 -7.5 -9 -12.5 -9s-9.5 1.83301 -13.5 5.5s-6.83301 8.5 -8.5 14.5
s-0.833984 12 2.49902 18c13.333 25.333 20.833 51.5 22.5 78.5s-2.16602 57.167 -11.499 90.5zM33.001 240.001c0 7.33301 2.66699 13.666 8 18.999s11.666 8 18.999 8s13.666 -2.66699 18.999 -8s8 -11.666 8 -18.999s-2.66699 -13.666 -8 -18.999s-11.666 -8 -18.999 -8
s-13.666 2.66699 -18.999 8s-8 11.666 -8 18.999z" />
    <glyph glyph-name="less" unicode="&#x3c;" horiz-adv-x="342" 
d="M41 323c-4.66699 2.66699 -7.99609 6.66699 -9.99609 12s-3 11 -3 17s1.16699 11.333 3.5 16s6.16602 7.66699 11.499 9l248 101c4 2 8 1.66699 12 -1s7 -6.33398 9 -11.001s2.66699 -9.33398 2 -14.001s-3.33398 -8 -8.00098 -10l-227 -94l218 -121
c5.33301 -3.33301 8.16602 -7.66602 8.49902 -12.999s-0.833984 -10.333 -3.50098 -15s-6.5 -8.16699 -11.5 -10.5s-9.83301 -2.16602 -14.5 0.500977z" />
    <glyph glyph-name="equal" unicode="=" horiz-adv-x="285" 
d="M230 322c4.66699 0 8.16797 -2.16699 10.501 -6.5s3.33301 -9 3 -14s-1.83301 -9.5 -4.5 -13.5s-6.66699 -6 -12 -6l-185 -1c-5.33301 2 -9.33301 5.33301 -12 10s-3.83398 9.33398 -3.50098 14.001s2 8.66699 5 12s7.5 4.66602 13.5 3.99902zM232.001 412
c4.66699 0 8.16797 -2.16699 10.501 -6.5s3.33301 -9 3 -14s-1.83301 -9.5 -4.5 -13.5s-6.66699 -6 -12 -6l-185 -1c-5.33301 2 -9.33301 5.33301 -12 10s-3.83398 9.33398 -3.50098 14.001s2 8.66699 5 12s7.5 4.66602 13.5 3.99902z" />
    <glyph glyph-name="greater" unicode="&#x3e;" horiz-adv-x="340" 
d="M73 183c-5.33301 -2.66699 -10.332 -2.83398 -14.999 -0.500977s-8.33398 5.83301 -11.001 10.5s-3.83398 9.66699 -3.50098 15s3.16602 9.66602 8.49902 12.999l218 121l-227 94c-5.33301 2 -8.16602 5.33301 -8.49902 10s0.5 9.33398 2.5 14.001s5 8.33398 9 11.001
s8 3 12 1l248 -101c4.66699 -1.33301 8.33398 -4.33301 11.001 -9s4 -10 4 -16s-1 -11.667 -3 -17s-5.33301 -9.33301 -10 -12z" />
    <glyph glyph-name="question" unicode="?" horiz-adv-x="280" 
d="M70 153c-2 -6 -5.00098 -10.3232 -9.00098 -12.9902s-8.16699 -3.83398 -12.5 -3.50098s-8.33301 1.83301 -12 4.5s-5.5 6.66699 -5.5 12l-7 123c0 5.33301 1.16699 10.666 3.5 15.999s5.83301 9.66602 10.5 12.999s10.334 5.16602 17.001 5.49902
s14.334 -2.16699 23.001 -7.5c23.333 -7.33301 43.333 -9 60 -5c18.667 4 34.167 15.833 46.5 35.5s21.333 42.834 27 69.501s8.33398 55.167 8.00098 85.5s-4 58.166 -11 83.499s-17 46.166 -30 62.499s-29.167 24.166 -48.5 23.499
c-15.333 -0.666992 -27.666 -4.83398 -36.999 -12.501s-16.5 -17 -21.5 -28s-8.33301 -22.833 -10 -35.5s-2.16699 -24.334 -1.5 -35.001c-0.666992 -6.66699 -2.83398 -11.834 -6.50098 -15.501s-7.83398 -5.83398 -12.501 -6.50098s-9.16699 0.5 -13.5 3.5
s-6.83301 8.16699 -7.5 15.5c-2.66699 45.333 5.66602 82.166 24.999 110.499s48 42.833 86 43.5c28.667 0 52.5 -10 71.5 -30s33.5 -45.333 43.5 -76s15.333 -64.5 16 -101.5s-3 -71.833 -11 -104.5s-20.5 -61.167 -37.5 -85.5s-37.833 -39.166 -62.5 -44.499
c-26.667 -6 -56 -3.66699 -88 7zM34.999 24.0098c0 -7.33301 2.66699 -13.666 8 -18.999s11.666 -8 18.999 -8s13.666 2.66699 18.999 8s8 11.666 8 18.999s-2.66699 13.666 -8 18.999s-11.666 8 -18.999 8s-13.666 -2.66699 -18.999 -8s-8 -11.666 -8 -18.999z" />
    <glyph glyph-name="at" unicode="@" horiz-adv-x="483" 
d="M230 160c-24 0.666992 -43.8379 11.0029 -59.5049 31.0029s-27.334 44.333 -35.001 73s-11.167 59.834 -10.5 93.501s5.66699 64.5 15 92.5s22.833 51.167 40.5 69.5s39.5 27.166 65.5 26.499c11.333 -0.666992 20.833 -2.33398 28.5 -5.00098
s18.834 -9.33398 33.501 -20.001c2.66699 6 6.33398 9.66699 11.001 11s9.16699 0.666016 13.5 -2.00098s7.66602 -7.16699 9.99902 -13.5s2.83301 -14.5 1.5 -24.5c-2 -12 -4.16699 -27.333 -6.5 -46s-4.16602 -38.167 -5.49902 -58.5s-2.16602 -40.833 -2.49902 -61.5
s0.166992 -39.334 1.5 -56.001s4 -30.334 8 -41.001s9.33301 -16 16 -16c12.667 -0.666992 23.667 5.66602 33 18.999s16.666 31.333 21.999 54s8.5 48.5 9.5 77.5s-0.166992 58.833 -3.5 89.5s-8.83301 60.667 -16.5 90s-17.667 55.5 -30 78.5s-27.166 41.5 -44.499 55.5
s-37 21 -59 21c-32.667 0 -61.5 -9.83301 -86.5 -29.5s-46.333 -45.5 -64 -77.5s-31.5 -68.333 -41.5 -109s-15.833 -82.334 -17.5 -125.001s0.666016 -84.334 6.99902 -125.001s17.166 -77 32.499 -109s35 -57.833 59 -77.5s52.667 -29.5 86 -29.5
c18.667 0 37 7.33301 55 22s32.667 39.667 44 75c2 6.66699 5.66699 10.667 11 12s10.333 0.833008 15 -1.5s8.5 -6 11.5 -11s3.16699 -10.833 0.5 -17.5c-13.333 -41.333 -31.833 -71.166 -55.5 -89.499s-49.5 -28.166 -77.5 -29.499c-41.333 -2 -76.833 7.33301 -106.5 28
s-54 48.834 -73 84.501s-32.5 76.5 -40.5 122.5s-11.167 93 -9.5 141s8.5 95.333 20.5 142s28.667 88.167 50 124.5s47.333 65.666 78 87.999s65.667 33.5 105 33.5c28.667 0 54.334 -8.5 77.001 -25.5s41.834 -39.167 57.501 -66.5s28.334 -58.5 38.001 -93.5
s16 -70.667 19 -107s3 -71.666 0 -105.999s-9.16699 -64.5 -18.5 -90.5s-21.666 -46.333 -36.999 -61s-33.666 -20.334 -54.999 -17.001c-14.667 2 -26 7.83301 -34 17.5s-13 20.834 -15 33.501l-11.5 -21c-4.33301 -8 -9.5 -15.167 -15.5 -21.5
s-12.667 -11.666 -20 -15.999s-15.333 -6.16602 -24 -5.49902zM226.995 213.003c12.667 1.33301 23.002 7.49902 31.002 18.499s14.5 24.667 19.5 41s8.66699 34.333 11 54s3.83301 39.5 4.5 59.5s1 38.833 1 56.5v45.5c-10 5.33301 -19 9 -27 11s-15.667 3.33301 -23 4
c-16.667 0.666992 -30.334 -6.16602 -41.001 -20.499s-18.834 -32.666 -24.501 -54.999s-8.66699 -46.333 -9 -72s1.5 -49.334 5.5 -71.001s10.333 -39.5 19 -53.5s19.667 -20 33 -18z" />
    <glyph glyph-name="A" unicode="A" horiz-adv-x="446" 
d="M180 679c0.666992 8 4.16797 14.335 10.501 19.002s13.166 7.16699 20.499 7.5s14.333 -1.5 21 -5.5s11 -10.333 13 -19l191 -659c0.666992 -6.66699 -0.833008 -12 -4.5 -16s-8.16699 -6.66699 -13.5 -8s-10.5 -0.833008 -15.5 1.5s-7.83301 6.5 -8.5 12.5l-69 245
c-10 -0.666992 -24.833 -0.833984 -44.5 -0.500977s-40.167 0.833008 -61.5 1.5s-41.833 1.16699 -61.5 1.5s-34.5 0.166016 -44.5 -0.500977l-63 -248c-2 -5.33301 -5.66699 -9.16602 -11 -11.499s-10.5 -2.83301 -15.5 -1.5s-9.16699 4.16602 -12.5 8.49902
s-4.33301 10.5 -3 18.5zM124.001 302.002c9.33301 0.666992 22.668 0.832031 40.001 0.499023s35.5 -0.833008 54.5 -1.5s37.167 -1.16699 54.5 -1.5s30.666 -0.166016 39.999 0.500977l-100 340z" />
    <glyph glyph-name="B" unicode="B" horiz-adv-x="293" 
d="M7 681c1.33301 10 6.00195 15.999 14.002 17.999s14.667 0.666992 20 -4c24 4 49 4.83301 75 2.5s49.667 -8.83301 71 -19.5s38.5 -25.834 51.5 -45.501s18.833 -44.834 17.5 -75.501c-1.33301 -21.333 -7 -41.333 -17 -60s-22.167 -35.167 -36.5 -49.5
s-29.333 -26.666 -45 -36.999s-29.5 -17.5 -41.5 -21.5c44.667 -9.33301 81 -26.333 109 -51s45.667 -55 53 -91c8.66699 -43.333 8.5 -80.5 -0.5 -111.5s-23.833 -56.5 -44.5 -76.5s-45.834 -34.5 -75.501 -43.5s-61.5 -12.833 -95.5 -11.5v-1
c-2 -5.33301 -5.33301 -9.33301 -10 -12s-9.16699 -4 -13.5 -4s-8.5 1.66699 -12.5 5s-6.33301 8 -7 14v170.5c0 55.667 -0.333008 111.334 -1 167.001s-1.83398 111.334 -3.50098 167.001s-4.16699 112.5 -7.5 170.5zM57.002 357.999
c0.666992 -29.333 1.16797 -56.332 1.50098 -80.999s0.833008 -49 1.5 -73s1.16699 -48.5 1.5 -73.5s0.5 -52.167 0.5 -81.5c27.333 -6 53.166 -5.5 77.499 1.5s44.833 18.667 61.5 35s28.667 36.833 36 61.5s7.66602 52 0.999023 82c-6 26 -16.167 47.167 -30.5 63.5
s-30.166 29.166 -47.499 38.499s-35.333 15.833 -54 19.5s-35 6.16699 -49 7.5zM51.0029 652c2 -42.667 3.66895 -83.168 5.00195 -121.501s2.66602 -78.833 3.99902 -121.5c10.667 2.66699 24.5 8.33398 41.5 17.001s33.667 19.167 50 31.5s30.5 26.333 42.5 42
s19 31.834 21 48.501c2.66699 24 -0.5 44.167 -9.5 60.5s-21.5 28.666 -37.5 36.999s-34.333 13 -55 14s-41.334 -1.5 -62.001 -7.5z" />
    <glyph glyph-name="C" unicode="C" horiz-adv-x="340" 
d="M312 675c8.66699 -4.66699 14.333 -10.334 17 -17.001s3.33398 -12.667 2.00098 -18s-4.5 -9.5 -9.5 -12.5s-10.833 -2.83301 -17.5 0.5c-11.333 9.33301 -24 16 -38 20s-27 5.33301 -39 4c-29.333 -2.66699 -54.666 -12.667 -75.999 -30
s-39.166 -40.666 -53.499 -69.999s-25.333 -64 -33 -104s-11.834 -84 -12.501 -132c-0.666992 -35.333 2.83301 -70 10.5 -104s18.667 -64.167 33 -90.5s31.833 -47.666 52.5 -63.999s43.667 -24.5 69 -24.5c13.333 0 26.666 3 39.999 9s27.666 14.667 42.999 26
c4.66699 4 9.33398 5.33301 14.001 4s8.5 -4 11.5 -8s4.33301 -9 4 -15s-3.16602 -11.333 -8.49902 -16c-36.667 -27.333 -72.334 -41 -107.001 -41s-64.834 9.16699 -90.501 27.5s-47 42.666 -64 72.999s-29.833 65 -38.5 104s-13.334 79.5 -14.001 121.5
c-0.666992 46.667 3.83301 92.667 13.5 138s24.334 85.833 44.001 121.5s44 64.334 73 86.001s62.5 31.834 100.5 30.501c12.667 -0.666992 25.167 -2.33398 37.5 -5.00098s24.5 -7.33398 36.5 -14.001z" />
    <glyph glyph-name="D" unicode="D" horiz-adv-x="319" 
d="M9 356v310c2 13.333 5.33301 21.5 10 24.5s14 5.83301 28 8.5c39.333 -2 75.5 -12.833 108.5 -32.5s61.333 -45.5 85 -77.5s42 -69 55 -111s19.167 -86.333 18.5 -133c-1.33301 -68 -10 -123.333 -26 -166s-36.167 -76.5 -60.5 -101.5s-51.833 -43 -82.5 -54
s-61 -18.833 -91 -23.5c-18.667 -3.33301 -30.167 -2.5 -34.5 2.5s-6.83301 10.5 -7.5 16.5zM57 347l0.000976562 -302.001c8.66699 -0.666992 20 0.166016 34 2.49902s28.833 7.33301 44.5 15s31.5 18.334 47.5 32.001s30.5 31.5 43.5 53.5s23.333 48.333 31 79
s11.5 67 11.5 109c-0.666992 47.333 -7.16699 90.5 -19.5 129.5s-28.5 72.333 -48.5 100s-42.833 49.334 -68.5 65.001s-51.834 24.167 -78.501 25.5z" />
    <glyph glyph-name="E" unicode="E" horiz-adv-x="316" 
d="M290 703c6.66699 -1.33301 11.5 -4.33008 14.5 -8.99707s4.16699 -9.33398 3.5 -14.001s-3.16699 -8.83398 -7.5 -12.501s-9.83301 -5.16699 -16.5 -4.5h-221c-2.66699 -28.667 -4.16699 -56.334 -4.5 -83.001s-0.333008 -53.167 0 -79.5s1 -52.833 2 -79.5
s1.83301 -54.334 2.5 -83.001c5.33301 0 18 0.166992 38 0.5s41.5 0.666016 64.5 0.999023s44.5 0.666016 64.5 0.999023s32.667 0.5 38 0.5c6 -1.33301 10.5 -3.83301 13.5 -7.5s4.5 -7.66699 4.5 -12s-1.5 -8.33301 -4.5 -12s-7.16699 -6.5 -12.5 -8.5
c-5.33301 0 -18.166 -0.166992 -38.499 -0.5s-42 -0.666016 -65 -0.999023s-44.5 -0.666016 -64.5 -0.999023s-32.667 -0.5 -38 -0.5c0 -31.333 -0.166992 -58.333 -0.5 -81s-0.5 -43.5 -0.5 -62.5s0.166992 -37.167 0.5 -54.5s0.5 -36 0.5 -56
c10.667 -0.666992 26.5 -1.16699 47.5 -1.5s43.167 -0.5 66.5 -0.5s45.5 0.166992 66.5 0.5s36.833 0.833008 47.5 1.5c3.33301 0 6.33301 -1.66699 9 -5s4.33398 -7.33301 5.00098 -12s0 -9.16699 -2 -13.5s-5.66699 -7.5 -11 -9.5c-6.66699 -0.666992 -16.667 -1 -30 -1
s-28.166 -0.166992 -44.499 -0.5s-33.666 -0.5 -51.999 -0.5h-52c-16.333 0 -31 0.166992 -44 0.5s-22.833 0.833008 -29.5 1.5c-5.33301 0.666992 -9.33301 4 -12 10s-4.33398 13 -5.00098 21s-0.833984 16.167 -0.500977 24.5s0.5 14.5 0.5 18.5
c0 9.33301 -0.166992 28.166 -0.5 56.499s-0.833008 61.833 -1.5 100.5s-1.33398 79.834 -2.00098 123.501s-1 85.167 -1 124.5s0.166992 74 0.5 104s1.16602 51 2.49902 63c1.33301 18 4.83301 30.833 10.5 38.5s18.167 11.834 37.5 12.501z" />
    <glyph glyph-name="F" unicode="F" horiz-adv-x="300" 
d="M269 703c6.66699 -1.33301 11.5059 -4.33203 14.5059 -8.99902s4.16699 -9.33398 3.5 -14.001s-3.16699 -8.83398 -7.5 -12.501s-9.83301 -5.16699 -16.5 -4.5h-205c-1.33301 -35.333 -2.16602 -67 -2.49902 -95s-0.5 -54.5 -0.5 -79.5s0.166992 -49.5 0.5 -73.5
s1.16602 -49.667 2.49902 -77c5.33301 0 18.333 0.166992 39 0.5s42.667 0.5 66 0.5s45.333 0.166992 66 0.5s33.667 0.5 39 0.5c6 -1.33301 10.5 -3.83301 13.5 -7.5s4.5 -7.66699 4.5 -12s-1.5 -8.33301 -4.5 -12s-7.16699 -6.5 -12.5 -8.5
c-5.33301 0 -18.333 -0.166992 -39 -0.5s-42.834 -0.5 -66.501 -0.5s-45.834 -0.166992 -66.501 -0.5s-33.667 -0.5 -39 -0.5c0 -31.333 0.166992 -60 0.5 -86s0.833008 -50.5 1.5 -73.5s1.5 -44.833 2.5 -65.5s1.5 -41 1.5 -61
c-1.33301 -6.66699 -4.16602 -11.167 -8.49902 -13.5s-9 -3 -14 -2s-9.5 3.16699 -13.5 6.5s-6 7.33301 -6 12c-0.666992 14 -1.33398 40.667 -2.00098 80s-1.33398 87.5 -2.00098 144.5s-1.33398 120.667 -2.00098 191l-2 219.5c1.33301 18 5.16602 30.833 11.499 38.5
s19.166 11.834 38.499 12.501z" />
    <glyph glyph-name="G" unicode="G" horiz-adv-x="361" 
d="M330 522c-4.66699 -11.333 -11.9941 -16.8311 -21.9941 -16.498s-16 6.83301 -18 19.5c1.33301 12 1.33301 26 0 42s-4.83301 31.167 -10.5 45.5s-13.667 26.333 -24 36s-24.166 14.5 -41.499 14.5c-26 0 -48.833 -9.83301 -68.5 -29.5s-36 -45.167 -49 -76.5
s-22.667 -66.666 -29 -105.999s-9.5 -79.333 -9.5 -120c0 -30 2.66699 -61.667 8 -95s13.166 -64 23.499 -92s23.166 -51.333 38.499 -70s33.333 -28.334 54 -29.001c16.667 -0.666992 32.667 5.83301 48 19.5s28.666 32.334 39.999 56.001s20.166 51.5 26.499 83.5
s8.83301 66.333 7.5 103c-6.66699 0 -14 -0.166992 -22 -0.5s-15.333 -0.833008 -22 -1.5c-12.667 1.33301 -19.834 6.83301 -21.501 16.5s3.16602 17.167 14.499 22.5c9.33301 1.33301 19.333 2 30 2s20.667 0.666992 30 2c11.333 1.33301 19.5 -0.833984 24.5 -6.50098
s7.83301 -17.834 8.5 -36.501c0.666992 -40 -3 -78 -11 -114s-19.167 -67.833 -33.5 -95.5s-31.833 -50 -52.5 -67s-43 -26.167 -67 -27.5c-26 -1.33301 -49 7 -69 25s-37 42.333 -51 73s-24.833 66 -32.5 106s-11.834 81.333 -12.501 124c-1.33301 44.667 1.5 89 8.5 133
s18.5 83.5 34.5 118.5s36.333 63.667 61 86s54.667 34.166 90 35.499c25.333 0.666992 46 -5.5 62 -18.5s28.167 -29.167 36.5 -48.5s14 -39.5 17 -60.5s4.16699 -38.5 3.5 -52.5z" />
    <glyph glyph-name="H" unicode="H" horiz-adv-x="354" 
d="M341 11c-3.33301 -7.33301 -9.83301 -11.6709 -19.5 -13.0039s-16.5 4 -20.5 16l-2 341h-245l3 -346c-0.666992 -3.33301 -3.16699 -6.16602 -7.5 -8.49902s-9 -3.66602 -14 -3.99902s-9.66699 0.666992 -14 3s-6.83301 6.5 -7.5 12.5l-3 673c0 6.66699 2 11.167 6 13.5
s8.5 3.33301 13.5 3s9.5 -2.16602 13.5 -5.49902s6 -7.66602 6 -12.999l3 -288h246l-1 292c0 6 2.16699 10.5 6.5 13.5s8.83301 4.5 13.5 4.5s9 -1.66699 13 -5s6 -8.33301 6 -15z" />
    <glyph glyph-name="I" unicode="I" horiz-adv-x="357" 
d="M343 700c4.66699 0 8.16895 -2.16699 10.502 -6.5s3.33301 -9 3 -14s-1.83301 -9.5 -4.5 -13.5s-6.66699 -6 -12 -6l-145 -1v-618l145 1c4.66699 0 8.16699 -2.16699 10.5 -6.5s3.33301 -9 3 -14s-1.83301 -9.5 -4.5 -13.5s-6.66699 -6 -12 -6l-321 -1
c-5.33301 2 -9.33301 5.33301 -12 10s-3.83398 9.33398 -3.50098 14.001s2 8.66699 5 12s7.5 4.66602 13.5 3.99902h136v618h-136c-5.33301 2 -9.33301 5.33301 -12 10s-3.83398 9.33398 -3.50098 14.001s2 8.66699 5 12s7.5 4.66602 13.5 3.99902z" />
    <glyph glyph-name="J" unicode="J" horiz-adv-x="380" 
d="M283 663c0 -35.333 0.505859 -69.333 1.50586 -102s1.66699 -65 2 -97s0.5 -64.167 0.5 -96.5s-0.333008 -65.833 -1 -100.5c-1.33301 -40 -4.66602 -76.667 -9.99902 -110s-13.5 -61.666 -24.5 -84.999s-25.333 -41.333 -43 -54s-39.167 -19 -64.5 -19
c-36.667 0.666992 -66.834 10 -90.501 28s-39.167 42 -46.5 72c-2 8.66699 -1.33301 15.667 2 21s7.5 8.83301 12.5 10.5s10 1 15 -2s8.16699 -7.83301 9.5 -14.5c2 -11.333 6.16699 -21.833 12.5 -31.5s14.166 -17.834 23.499 -24.501s19.666 -11.667 30.999 -15
s22.666 -4 33.999 -2c35.333 5.33301 59.666 27.333 72.999 66s21.666 93.334 24.999 164.001c1.33301 29.333 2 58.666 2 87.999s-0.166992 59.833 -0.5 91.5l-1 100c-0.333008 35 -0.5 72.5 -0.5 112.5h-140c-5.33301 2 -9.33301 5.33301 -12 10
s-3.83398 9.33398 -3.50098 14.001s2 8.66699 5 12s7.5 4.66602 13.5 3.99902l249 1c4.66699 0 8.16699 -2.16699 10.5 -6.5s3.33301 -9 3 -14s-1.83301 -9.5 -4.5 -13.5s-6.66699 -6 -12 -6l-64 -1h-7z" />
    <glyph glyph-name="K" unicode="K" horiz-adv-x="406" 
d="M368 699c2 4 5.16504 5.33203 9.49805 3.99902s8 -4 11 -8s4.83301 -8.83301 5.5 -14.5s-1.33301 -10.834 -6 -15.501l-309 -309l299 -316l1 -1c4 -5.33301 5.66699 -10.833 5 -16.5s-2.66699 -10.167 -6 -13.5s-7.5 -5.16602 -12.5 -5.49902s-10.167 2.16699 -15.5 7.5
l-287 294c0 -17.333 0.166992 -38.833 0.5 -64.5s0.5 -52.167 0.5 -79.5v-80.5v-67.5c-1.33301 -4.66699 -4.16602 -8.33398 -8.49902 -11.001s-9 -4 -14 -4s-9.5 1.33301 -13.5 4s-6.33301 6.66699 -7 12l-3 664c-1.33301 6.66699 0.5 11.334 5.5 14.001s10.5 3.5 16.5 2.5
s11.333 -3.16699 16 -6.5s6.33398 -7.66602 5.00098 -12.999l-1 -269z" />
    <glyph glyph-name="L" unicode="L" horiz-adv-x="342" 
d="M14 681c0 6 2.16699 10.333 6.5 13s9 3.66699 14 3s9.66699 -2.66699 14 -6s6.16602 -7.66602 5.49902 -12.999v-636l259 -2c5.33301 0 9.5 -1.83301 12.5 -5.5s4.5 -7.66699 4.5 -12s-1.33301 -8.66602 -4 -12.999s-6.66699 -7.5 -12 -9.5h-268
c-5.33301 -0.666992 -10.333 -0.333984 -15 0.999023s-8.5 4 -11.5 8s-5.16699 9.66699 -6.5 17s-1.66602 16.666 -0.999023 27.999z" />
    <glyph glyph-name="M" unicode="M" horiz-adv-x="518" 
d="M13 16l0.00292969 13c0 7.33301 -0.166992 20.166 -0.5 38.499s-0.333008 43 0 74s0.666016 70.667 0.999023 119s1 106.5 2 174.5s2.5 148.333 4.5 241c0.666992 8 2.66699 14 6 18s7.33301 6.33301 12 7s9 -0.333008 13 -3s7 -6.66699 9 -12l180 -322l219 325
c2 4 5.33301 7 10 9s9.5 2.83301 14.5 2.5s9.5 -2.33301 13.5 -6s5.66699 -8.83398 5 -15.501l4 -665c-0.666992 -5.33301 -2.83398 -9.16602 -6.50098 -11.499s-7.83398 -3.5 -12.501 -3.5s-9.16699 1.5 -13.5 4.5s-6.83301 7.5 -7.5 13.5l-2 616l-200 -313
c-2 -4.66699 -5 -8.16699 -9 -10.5s-8.16699 -3.5 -12.5 -3.5s-8.5 0.833008 -12.5 2.5s-6.66699 4.16699 -8 7.5l-165 302l-3 -606c-1.33301 -3.33301 -4 -6.16602 -8 -8.49902s-8.5 -3.5 -13.5 -3.5s-9.5 1.16699 -13.5 3.5s-6 6.5 -6 12.5z" />
    <glyph glyph-name="N" unicode="N" horiz-adv-x="515" 
d="M12 679c-0.666992 8.66699 0.833984 15.165 4.50098 19.498s8.16699 6.83301 13.5 7.5s10.833 -0.166016 16.5 -2.49902s10.167 -5.83301 13.5 -10.5l397 -611l5 592c-2 8 -0.833008 14.333 3.5 19s9.16602 7.5 14.499 8.5s10.5 -0.166992 15.5 -3.5
s7.5 -9.66602 7.5 -18.999v-663c-0.666992 -8 -3 -13.833 -7 -17.5s-9 -5.5 -15 -5.5s-12.167 1.83301 -18.5 5.5s-11.833 9.5 -16.5 17.5l-394 613l8 -617c-0.666992 -5.33301 -3.66699 -9.5 -9 -12.5s-11 -4.33301 -17 -4s-11.333 2.5 -16 6.5s-6.66699 10.667 -6 20v657z
" />
    <glyph glyph-name="O" unicode="O" horiz-adv-x="387" 
d="M370 331c-2 -47.333 -7.16797 -91.0029 -15.501 -131.003s-20.166 -74.667 -35.499 -104s-34.5 -52.666 -57.5 -69.999s-50.167 -26.666 -81.5 -27.999c-54 -2 -96.167 26.667 -126.5 86s-44.5 144 -42.5 254c0.666992 42 4.5 84.333 11.5 127s18 81.334 33 116.001
s34.5 63.167 58.5 85.5s53.667 34.166 89 35.499c28.667 0.666992 53.834 -9 75.501 -29s39.667 -47.167 54 -81.5s24.666 -74.166 30.999 -119.499s8.5 -92.333 6.5 -141zM326.999 333.997c0.666992 46.667 -1.66895 90.002 -7.00195 130.002s-13.5 74.5 -24.5 103.5
s-24.333 51.5 -40 67.5s-33.167 23.667 -52.5 23s-36.5 -6.33398 -51.5 -17.001s-28 -24.667 -39 -42s-20.167 -37.166 -27.5 -59.499s-13.166 -45.166 -17.499 -68.499s-7.66602 -46.666 -9.99902 -69.999s-3.5 -44.333 -3.5 -63
c-1.33301 -92.667 9.16699 -165.334 31.5 -218.001s54.5 -79.334 96.5 -80.001c22 0 41.833 6.66699 59.5 20s32.667 32.666 45 57.999s21.833 56.166 28.5 92.499s10.667 77.5 12 123.5z" />
    <glyph glyph-name="P" unicode="P" horiz-adv-x="411" 
d="M10 669c0 10 3.50293 18.167 10.5029 24.5s17.5 8.5 31.5 6.5c55.333 -3.33301 103.666 -8.83301 144.999 -16.5s76 -19.167 104 -34.5c31.333 -17.333 55.833 -40 73.5 -68s27.5 -58.333 29.5 -91s-4.66699 -65.667 -20 -99s-40.333 -63.333 -75 -90
c-20 -15.333 -41.667 -28.333 -65 -39s-46.5 -19.167 -69.5 -25.5s-44.833 -11.333 -65.5 -15s-38.334 -6.16699 -53.001 -7.5v-198c0 -5.33301 -2 -9.66602 -6 -12.999s-8.5 -5.33301 -13.5 -6s-9.83301 0.333008 -14.5 3s-7.33398 7 -8.00098 13
c0 51.333 -0.166992 102.166 -0.5 152.499s-0.833008 102 -1.5 155s-1.16699 108.167 -1.5 165.5s-0.5 118.333 -0.5 183zM56.0029 259c8 0 21.501 1.16504 40.501 3.49805s40.167 6.83301 63.5 13.5s47.333 15.5 72 26.5s47 25.167 67 42.5c19.333 16.667 34.5 37 45.5 61
s16.833 48.333 17.5 73s-4.83301 48.5 -16.5 71.5s-30.167 42.5 -55.5 58.5c-23.333 14.667 -54.333 26.334 -93 35.001s-87.334 14.334 -146.001 17.001z" />
    <glyph glyph-name="Q" unicode="Q" horiz-adv-x="382" 
d="M370 331c-2 -50 -7.66797 -95.8359 -17.001 -137.503s-22.666 -77.5 -39.999 -107.5l31 -72c0 -6 -1.5 -11.167 -4.5 -15.5s-6.83301 -7.16602 -11.5 -8.49902s-9 -1.16602 -13 0.500977s-7 5.16699 -9 10.5l-20 47c-28 -31.333 -63.333 -48 -106 -50
c-54 -2 -96.167 26.667 -126.5 86s-44.5 144 -42.5 254c0.666992 42 4.5 84.333 11.5 127s18 81.334 33 116.001s34.5 63.167 58.5 85.5s53.667 34.166 89 35.499c28.667 0.666992 53.834 -9 75.501 -29s39.667 -47.167 54 -81.5s24.666 -74.166 30.999 -119.499
s8.5 -92.333 6.5 -141zM326.999 333.997c0.666992 46.667 -1.66895 89.999 -7.00195 129.999s-13.5 74.5 -24.5 103.5s-24.333 51.5 -40 67.5s-33.167 23.667 -52.5 23s-36.5 -6.33398 -51.5 -17.001s-28 -24.667 -39 -42s-20.167 -37.166 -27.5 -59.499
s-13.166 -45.166 -17.499 -68.499s-7.66602 -46.666 -9.99902 -69.999s-3.5 -44.333 -3.5 -63c-1.33301 -92.667 9.16699 -165.334 31.5 -218.001s54.5 -79.334 96.5 -80.001c34 -0.666992 63 15.333 87 48l-64 151c-2 4 -1.33301 7.83301 2 11.5s7.33301 6.5 12 8.5
s9.33398 2.5 14.001 1.5s8 -4.16699 10 -9.5l50 -118c10.667 24.667 18.667 53.834 24 87.501s8.66602 71.5 9.99902 113.5z" />
    <glyph glyph-name="R" unicode="R" horiz-adv-x="422" 
d="M56 210l0.00195312 -194.001c0 -5.33301 -2 -9.66602 -6 -12.999s-8.5 -5.33301 -13.5 -6s-9.83301 0.333008 -14.5 3s-7.33398 7 -8.00098 13c0 51.333 -0.166992 102.166 -0.5 152.499s-0.833008 102 -1.5 155s-1.16699 108.167 -1.5 165.5s-0.5 118.333 -0.5 183
c0 10 3.5 18.167 10.5 24.5s17.5 8.5 31.5 6.5c55.333 -3.33301 103.666 -8.83301 144.999 -16.5s76 -19.167 104 -34.5c31.333 -17.333 55.833 -40 73.5 -68s27.5 -58.333 29.5 -91s-4.66699 -65.667 -20 -99s-40.333 -63.333 -75 -90c-30 -23.333 -62.833 -41 -98.5 -53
s-68.834 -20.667 -99.501 -26l293 -177c5.33301 -3.33301 8.33301 -7.66602 9 -12.999s-0.166016 -10.333 -2.49902 -15s-5.83301 -8 -10.5 -10s-9.66699 -1.33301 -15 2zM56.002 258.999c8 0 21.501 1.16504 40.501 3.49805s40.167 6.83301 63.5 13.5s47.333 15.5 72 26.5
s47 25.167 67 42.5c19.333 16.667 34.5 37 45.5 61s16.833 48.333 17.5 73s-4.83301 48.5 -16.5 71.5s-30.167 42.5 -55.5 58.5c-23.333 14.667 -54.333 26.334 -93 35.001s-87.334 14.334 -146.001 17.001z" />
    <glyph glyph-name="S" unicode="S" horiz-adv-x="414" 
d="M385 490c0 -6 -2.3291 -10.4922 -6.99609 -13.4922s-9.66699 -4.5 -15 -4.5s-10.333 1.66699 -15 5s-7 8 -7 14c0 21.333 -4.83301 41.833 -14.5 61.5s-22 37.167 -37 52.5s-32 28 -51 38s-37.833 16 -56.5 18c-18 1.33301 -34.833 0.166016 -50.5 -3.50098
s-29.334 -10.167 -41.001 -19.5s-21 -21.333 -28 -36s-10.5 -32 -10.5 -52c0 -17.333 4.16699 -33.833 12.5 -49.5s19.333 -30.167 33 -43.5s29 -25.333 46 -36s34.167 -19.334 51.5 -26.001c30 -12.667 58.833 -25.834 86.5 -39.501s51.5 -30 71.5 -49
s34.833 -42.167 44.5 -69.5s11.5 -60.666 5.5 -99.999c-5.33301 -34 -19 -61.833 -41 -83.5s-48 -37 -78 -46s-61.667 -11.833 -95 -8.5s-63.833 13 -91.5 29s-50.5 38.333 -68.5 67s-26.333 63.667 -25 105c0 6.66699 2.33301 12 7 16s9.66699 6.33301 15 7
s10.166 -0.666016 14.499 -3.99902s6.16602 -9 5.49902 -17c-2 -34.667 4 -63.834 18 -87.501s32.167 -42 54.5 -55s46.833 -20.833 73.5 -23.5s52 -0.5 76 6.5s44.833 18.667 62.5 35s28.167 37.166 31.5 62.499c4.66699 32 2.16699 59.667 -7.5 83
s-23.834 43.666 -42.501 60.999s-40.5 32.333 -65.5 45s-50.833 24 -77.5 34c-19.333 7.33301 -38.5 17.166 -57.5 29.499s-36 26.5 -51 42.5s-27.333 33.333 -37 52s-14.5 38.334 -14.5 59.001c0 23.333 4.5 45.166 13.5 65.499s21.333 37.5 37 51.5s34.167 24.5 55.5 31.5
s44.333 9.16699 69 6.5c24 -2.66699 48 -9.83398 72 -21.501s45.5 -26.834 64.5 -45.501s34.5 -40.334 46.5 -65.001s18 -51 18 -79z" />
    <glyph glyph-name="T" unicode="T" horiz-adv-x="362" 
d="M26 660c-6 -0.666992 -10.667 1.00195 -14 5.00195s-5.16602 8.5 -5.49902 13.5s1 9.66699 4 14s7.83301 6.16602 14.5 5.49902h311c6.66699 0 11.5 -2 14.5 -6s4.5 -8.33301 4.5 -13s-1.5 -9 -4.5 -13s-7.5 -6 -13.5 -6h-142l1 -641c0 -6.66699 -2.33301 -11.5 -7 -14.5
s-9.83398 -4.5 -15.501 -4.5s-10.667 1.66699 -15 5s-6.5 8.66602 -6.5 15.999l1 639h-127z" />
    <glyph glyph-name="U" unicode="U" horiz-adv-x="427" 
d="M13 680c0 6.66699 2.49805 11.665 7.49805 14.998s10.5 4.83301 16.5 4.5s11.167 -2.33301 15.5 -6s6.16602 -9.16699 5.49902 -16.5c0 -69.333 1 -135.666 3 -198.999s5.66699 -121.333 11 -174c4 -38.667 9.5 -73.667 16.5 -105s15.667 -58.333 26 -81
s22.5 -40.167 36.5 -52.5s30.333 -18.5 49 -18.5c22 0 41.333 6.83301 58 20.5s31 32.334 43 56.001s21.833 51.167 29.5 82.5s14.167 64.333 19.5 99c5.33301 37.333 9.5 75.166 12.5 113.499s5.33301 74.5 7 108.5s2.83398 64.833 3.50098 92.5
s1.33398 49.167 2.00098 64.5c-0.666992 6.66699 1.16602 11.5 5.49902 14.5s9.16602 4.5 14.499 4.5s10.333 -1.5 15 -4.5s7 -7.5 7 -13.5c-0.666992 -30 -1.5 -61.667 -2.5 -95s-2.5 -66.833 -4.5 -100.5s-4.33301 -67 -7 -100s-6 -64.5 -10 -94.5
c-6 -42 -13.667 -81 -23 -117s-21.666 -67.167 -36.999 -93.5s-34.166 -46.833 -56.499 -61.5s-48.833 -21.667 -79.5 -21c-26 0.666992 -48.5 8.16699 -67.5 22.5s-35.167 34.333 -48.5 60s-24.166 56.334 -32.499 92.001s-14.833 74.5 -19.5 116.5
c-6.66699 57.333 -10.667 119 -12 185z" />
    <glyph glyph-name="V" unicode="V" horiz-adv-x="474" 
d="M255 13c-3.33301 -9.33301 -9.83203 -14.168 -19.499 -14.501s-15.834 3.83398 -18.501 12.501l-214 667c-1.33301 4 -0.333008 7.83301 3 11.5s7.33301 6.16699 12 7.5s9.5 1.33301 14.5 0s8.16699 -4.66602 9.5 -9.99902l194 -609l194 610
c1.33301 5.33301 4.5 8.66602 9.5 9.99902s9.83301 1.33301 14.5 0s8.66699 -3.83301 12 -7.5s4.33301 -7.5 3 -11.5z" />
    <glyph glyph-name="W" unicode="W" horiz-adv-x="742" 
d="M372 360l-116.997 -346.999c-3.33301 -9.33301 -9.83301 -14.166 -19.5 -14.499s-15.834 3.83398 -18.501 12.501l-214 667c-1.33301 4 -0.333008 7.83301 3 11.5s7.66602 6.16699 12.999 7.5s10.5 1.33301 15.5 0s8.16699 -4.66602 9.5 -9.99902l192 -602l115 340
c1.33301 4 3.83301 7.33301 7.5 10s7.83398 4.33398 12.501 5.00098s9 0.166992 13 -1.5s7 -5.16699 9 -10.5l114 -338l192 603c1.33301 5.33301 4.5 8.66602 9.5 9.99902s10.167 1.16602 15.5 -0.500977s9.66602 -4.33398 12.999 -8.00098s4.33301 -7.5 3 -11.5l-214 -667
c-2.66699 -8.66699 -8.83398 -12.834 -18.501 -12.501s-16.167 5.16602 -19.5 14.499z" />
    <glyph glyph-name="X" unicode="X" horiz-adv-x="396" 
d="M202 394l150.004 301c1.33301 4 4.5 6.33301 9.5 7s10 0 15 -2s9.16699 -5.16699 12.5 -9.5s4 -8.83301 2 -13.5l-166 -327l166 -327c2 -5.33301 2.16699 -10.166 0.5 -14.499s-4.33398 -7.5 -8.00098 -9.5s-8 -2.66699 -13 -2s-9.5 3.33398 -13.5 8.00098l-156 304
l-158 -306c-4 -4.66699 -8.33301 -7.16699 -13 -7.5s-8.83398 0.666992 -12.501 3s-6.33398 5.66602 -8.00098 9.99902s-1.5 9.16602 0.5 14.499l167 329l-168 327c-2 4.66699 -1.33301 9 2 13s7.5 7 12.5 9s10.167 2.5 15.5 1.5s8.66602 -3.5 9.99902 -7.5z" />
    <glyph glyph-name="Y" unicode="Y" horiz-adv-x="493" 
d="M210 343l-211 334.001c-1.33301 6 -0.333008 11 3 15s7.5 6.83301 12.5 8.5s9.83301 1.83398 14.5 0.500977s8 -4 10 -8l191 -294l215 292c4.66699 7.33301 10.167 11.666 16.5 12.999s11.833 0.666016 16.5 -2.00098s8 -6.66699 10 -12s1 -11 -3 -17l-232 -325v-336
c0.666992 -4.66699 -1.16602 -8 -5.49902 -10s-9.33301 -2.66699 -15 -2s-10.834 2.16699 -15.501 4.5s-6.66699 5.83301 -6 10.5z" />
    <glyph glyph-name="Z" unicode="Z" horiz-adv-x="527" 
d="M24 658c-6 -2 -10.6689 -0.998047 -14.002 3.00195s-5.33301 8.66699 -6 14s0.166016 10.5 2.49902 15.5s6.5 7.5 12.5 7.5c8.66699 -0.666992 25.5 -1 50.5 -1h87.5h105.5h103c31.667 0 58.667 0.166992 81 0.5s35.5 0.5 39.5 0.5
c17.333 1.33301 27.666 -4.16699 30.999 -16.5s0 -27.833 -10 -46.5l-447 -592c5.33301 -0.666992 19.166 -1.16699 41.499 -1.5s48.833 -0.5 79.5 -0.5s63.5 0.166992 98.5 0.5s67.833 0.666016 98.5 0.999023s57.167 0.666016 79.5 0.999023s36.166 0.833008 41.499 1.5
c6 0.666992 10.333 -0.666016 13 -3.99902s3.83398 -7.33301 3.50098 -12s-2 -9.33398 -5 -14.001s-7.16699 -8 -12.5 -10c-8 -0.666992 -24.333 -1 -49 -1h-85h-101c-35.333 0 -68.333 0.166992 -99 0.5s-56.667 0.333008 -78 0s-34 -0.5 -38 -0.5
c-21.333 -2 -35.166 2.33301 -41.499 13s-5.16602 22 3.50098 34l456 605h-40.5h-80c-31 0 -64.167 0.166992 -99.5 0.5s-68.666 0.5 -99.999 0.5s-58.166 0.166992 -80.499 0.5s-36.166 0.5 -41.499 0.5z" />
    <glyph glyph-name="bracketleft" unicode="[" horiz-adv-x="193" 
d="M165 747c6.66699 -1.33301 11.501 -4.33203 14.501 -8.99902s4.16699 -9.33398 3.5 -14.001s-3.16699 -8.83398 -7.5 -12.501s-9.83301 -5.16699 -16.5 -4.5h-94c1.33301 -64.667 2.33301 -129.334 3 -194.001s1 -127.667 1 -189s-0.333008 -120.166 -1 -176.499
s-1.66699 -108.166 -3 -155.499l96 -1c3.33301 0 6.33301 -1.66699 9 -5s4.33398 -7.33301 5.00098 -12s0 -9.16699 -2 -13.5s-5.66699 -7.5 -11 -9.5l-122 1c-5.33301 0.666992 -9.33301 4 -12 10s-4.33398 13 -5.00098 21s-0.833984 16.167 -0.500977 24.5
s0.5 14.5 0.5 18.5c0 9.33301 0.166992 30 0.5 62s0.5 70 0.5 114v142v145.5c0 46.333 -0.166992 88.166 -0.5 125.499s-0.5 64.333 -0.5 81c1.33301 18 4.83301 30.833 10.5 38.5s18.167 11.834 37.5 12.501h94z" />
    <glyph glyph-name="backslash" unicode="\" horiz-adv-x="334" 
d="M321 23c2.66699 -5.33301 3.16504 -10.167 1.49805 -14.5s-4.5 -7.5 -8.5 -9.5s-8.66699 -2.66699 -14 -2s-10 3 -14 7l-282 670c-2.66699 4.66699 -2.66699 9 0 13s6.33398 7.16699 11.001 9.5s9.33398 3.33301 14.001 3s8 -2.5 10 -6.5z" />
    <glyph glyph-name="bracketright" unicode="]" horiz-adv-x="196" 
d="M29 -49c-6.66699 1.33301 -11.501 4.33301 -14.501 9s-4.16699 9.33398 -3.5 14.001s3 8.83398 7 12.501s9.66699 5.16699 17 4.5h94c-1.33301 64.667 -2.33301 129.334 -3 194.001s-1 127.667 -1 189s0.333008 120.166 1 176.499s1.66699 108.166 3 155.499l-96 1
c-3.33301 0 -6.33301 1.66699 -9 5s-4.33398 7.33301 -5.00098 12s0 9.16699 2 13.5s5.66699 7.5 11 9.5l122 -1c5.33301 -0.666992 9.33301 -4 12 -10s4.33398 -13 5.00098 -21s0.833984 -16.167 0.500977 -24.5s-0.5 -14.5 -0.5 -18.5c0 -9.33301 -0.166992 -30 -0.5 -62
s-0.5 -70 -0.5 -114v-142v-145.5v-125.5c0 -37.333 0.333008 -64.333 1 -81c-1.33301 -18 -4.83301 -30.833 -10.5 -38.5s-18.167 -11.834 -37.5 -12.501h-94z" />
    <glyph glyph-name="asciicircum" unicode="^" horiz-adv-x="191" 
d="M70 445c4 6.66699 8.66699 11.334 14 14.001s10.666 3.66699 15.999 3s10.333 -2.5 15 -5.5s8 -6.83301 10 -11.5l31 -65c2 -4 1.66699 -8.16699 -1 -12.5s-6.16699 -7.5 -10.5 -9.5s-8.83301 -2.83301 -13.5 -2.5s-8.33398 2.83301 -11.001 7.5l-23 45l-22 -46
c-3.33301 -6 -7.66602 -9.33301 -12.999 -10s-10.333 0.333008 -15 3s-8.16699 6.16699 -10.5 10.5s-2.16602 9.16602 0.500977 14.499z" />
    <glyph glyph-name="underscore" unicode="_" horiz-adv-x="238" 
d="M214 42c4.66699 0 8.16797 -2.16699 10.501 -6.5s3.33301 -9 3 -14s-1.83301 -9.5 -4.5 -13.5s-6.66699 -6 -12 -6l-185 -1c-5.33301 2 -9.33301 5.33301 -12 10s-3.83398 9.33398 -3.50098 14.001s2 8.66699 5 12s7.5 4.66602 13.5 3.99902z" />
    <glyph glyph-name="grave" unicode="`" horiz-adv-x="99" 
d="M12 780c-3.33301 6 -3.83301 11.335 -1.5 16.002s6 8 11 10s10.167 2.66699 15.5 2s9 -3.33398 11 -8.00098l31 -65c3.33301 -7.33301 3.83301 -13.333 1.5 -18s-5.83301 -7.83398 -10.5 -9.50098s-9.66699 -1.66699 -15 0s-9.33301 5.16699 -12 10.5l-31 62v0z" />
    <glyph glyph-name="a" unicode="a" horiz-adv-x="271" 
d="M104 679c0.666992 8 4.50098 14 11.501 18s14.5 6 22.5 6s15.167 -1.83301 21.5 -5.5s9.5 -9.16699 9.5 -16.5l90 -667c0.666992 -6.66699 -0.833008 -12 -4.5 -16s-8 -6.66699 -13 -8s-9.83301 -0.833008 -14.5 1.5s-7.33398 6.5 -8.00098 12.5l-37 243
c-10 -0.666992 -18.5 -1 -25.5 -1s-13.667 0.333008 -20 1s-13 1 -20 1s-15.5 -0.333008 -25.5 -1l-34 -242c-2 -5.33301 -5.66699 -9.16602 -11 -11.499s-10.5 -2.83301 -15.5 -1.5s-9.16699 4.16602 -12.5 8.49902s-4.33301 10.5 -3 18.5zM95.001 290
c9.33301 0.666992 17.167 1 23.5 1s12.333 -0.333008 18 -1s11.5 -1 17.5 -1s13.667 0.333008 23 1l-42 350z" />
    <glyph glyph-name="b" unicode="b" horiz-adv-x="229" 
d="M10 681c1.33301 10 5.50293 15.998 12.5029 17.998s13.167 0.666992 18.5 -4c24 4 46.667 4.83301 68 2.5s39.666 -9 54.999 -20s27.166 -26.5 35.499 -46.5s11.833 -45.333 10.5 -76c-1.33301 -21.333 -5 -40.5 -11 -57.5s-13.5 -32.167 -22.5 -45.5
s-18.833 -25.166 -29.5 -35.499s-21 -19.5 -31 -27.5c30 -13.333 52.833 -31.666 68.5 -54.999s27.167 -53 34.5 -89c13.333 -65.333 6.5 -118.5 -20.5 -159.5s-72.5 -69.833 -136.5 -86.5v-1c-4.66699 -11.333 -12 -16.833 -22 -16.5s-16 6.83301 -18 19.5
c0 116 -0.333008 229.333 -1 340s-4.33398 224 -11.001 340zM60.0029 361.998c0.666992 -29.333 1.16797 -56.835 1.50098 -82.502s0.5 -51.167 0.5 -76.5v-77v-83c22 4 41.5 11.667 58.5 23s30.667 25.5 41 42.5s17.166 36.333 20.499 58s2.33301 44.834 -3 69.501
c-5.33301 24 -12 43.167 -20 57.5s-17 25.833 -27 34.5s-21.167 15.334 -33.5 20.001zM51.0039 654.996c2 -42.667 3.66602 -84.5029 4.99902 -125.503l4 -125.5c10.667 2.66699 22 8.33398 34 17.001s23 19.5 33 32.5s18.5 27.333 25.5 43s11.5 31.834 13.5 48.501
c5.33301 48.667 -2.16699 82.334 -22.5 101.001s-51.166 21.667 -92.499 9z" />
    <glyph glyph-name="c" unicode="c" horiz-adv-x="210" 
d="M204 526c0 -4.66699 -1.83691 -8.32812 -5.50391 -10.9951s-7.83398 -4 -12.501 -4s-9 1.33301 -13 4s-6 7.33398 -6 14.001c-1.33301 13.333 -2.33301 27.833 -3 43.5s-2.16699 30.167 -4.5 43.5s-5.83301 24.333 -10.5 33s-11.334 13 -20.001 13
c-12 0 -22.167 -6 -30.5 -18s-15.166 -27.333 -20.499 -46s-9.5 -39.334 -12.5 -62.001s-5.33301 -44.667 -7 -66s-2.83398 -40.5 -3.50098 -57.5s-1 -29.5 -1 -37.5c-0.666992 -19.333 -0.5 -41 0.5 -65s2.66699 -48.333 5 -73s5.5 -48.667 9.5 -72s8.66699 -44 14 -62
s11.333 -32.333 18 -43s14 -15.667 22 -15c10.667 0.666992 18.5 8 23.5 22s8.33301 30.833 10 50.5s2.5 40.5 2.5 62.5s0.666992 41.667 2 59c0.666992 6.66699 3.16699 11.667 7.5 15s8.83301 4.66602 13.5 3.99902s8.83398 -2.83398 12.501 -6.50098
s5.83398 -8.83398 6.50098 -15.501c0 -28.667 -0.333008 -57.167 -1 -85.5s-3.5 -53.666 -8.5 -75.999s-13 -40.5 -24 -54.5s-26.833 -20.667 -47.5 -20c-18 0.666992 -33.167 8.66699 -45.5 24s-22.666 35 -30.999 59s-14.666 50.5 -18.999 79.5s-7.5 57.667 -9.5 86
s-3.16699 54.666 -3.5 78.999s-0.166016 43.5 0.500977 57.5c0.666992 11.333 1.16699 27.333 1.5 48s1.5 42.834 3.5 66.501s5.33301 47.667 10 72s11.167 46.333 19.5 66s19.333 35.667 33 48s30.5 18.166 50.5 17.499c16.667 0 29.834 -5.83301 39.501 -17.5
s16.834 -26.334 21.501 -44.001s7.66699 -36.834 9 -57.501s2.66602 -40 3.99902 -58z" />
    <glyph glyph-name="d" unicode="d" horiz-adv-x="239" 
d="M12 670c0 10.667 3.66602 19.165 10.999 25.498s15.333 7.5 24 3.5c33.333 -11.333 61.833 -28.666 85.5 -51.999s43 -50.166 58 -80.499s25.667 -63.166 32 -98.499s8.5 -70.333 6.5 -105c-2.66699 -67.333 -19 -132.5 -49 -195.5s-72 -117.5 -126 -163.5
c-8 -2 -16.667 -3.33301 -26 -4s-14.666 3.66602 -15.999 12.999v657zM52.999 55.998c39.333 40 71.334 86.167 96.001 138.5s37.667 107.833 39 166.5c0.666992 25.333 -0.5 52 -3.5 80s-9.5 55 -19.5 81s-23.833 50 -41.5 72s-40.834 39.667 -69.501 53z" />
    <glyph glyph-name="e" unicode="e" 
d="M178 703c6.66699 -1.33301 11.499 -4.33203 14.499 -8.99902s4.16699 -9.33398 3.5 -14.001s-3.16699 -8.83398 -7.5 -12.501s-9.83301 -5.16699 -16.5 -4.5h-109v-325c11.333 0 23.5 0.333008 36.5 1s25.167 1 36.5 1c6 -1.33301 10.5 -3.83301 13.5 -7.5
s4.5 -7.66699 4.5 -12s-1.5 -8.33301 -4.5 -12s-7.16699 -6.5 -12.5 -8.5c-11.333 0 -23.666 -0.333008 -36.999 -1s-25.666 -1 -36.999 -1c0 -31.333 -0.166992 -58.333 -0.5 -81s-0.5 -43.5 -0.5 -62.5s0.166992 -37.167 0.5 -54.5s0.5 -36 0.5 -56l115 -3
c3.33301 0 6.33301 -1.66699 9 -5s4.33398 -7.33301 5.00098 -12s0 -9.16699 -2 -13.5s-5.66699 -7.5 -11 -9.5c-10 -0.666992 -21 -1.16699 -33 -1.5l-37 -1c-12.667 -0.333008 -24.834 -0.333008 -36.501 0s-22.5 0.833008 -32.5 1.5
c-5.33301 0.666992 -9.33301 4.33398 -12 11.001s-4.33398 14.167 -5.00098 22.5s-0.833984 16.833 -0.500977 25.5s0.5 15 0.5 19v54v95v118c0 42 -0.166992 82.667 -0.5 122s-0.666016 75.166 -0.999023 107.499s-0.5 57.5 -0.5 75.5c-0.666992 18 2.33301 30.833 9 38.5
s19.667 11.834 39 12.501z" />
    <glyph glyph-name="f" unicode="f" horiz-adv-x="172" 
d="M145 703c6.66699 -1.33301 11.501 -4.33203 14.501 -8.99902s4.16699 -9.33398 3.5 -14.001s-3.16699 -8.83398 -7.5 -12.501s-9.83301 -5.16699 -16.5 -4.5h-81c-1.33301 -35.333 -2.16602 -67 -2.49902 -95s-0.5 -54.5 -0.5 -79.5s0.166992 -49.5 0.5 -73.5
s1.16602 -49.667 2.49902 -77c11.333 0 20 0.333008 26 1s14.667 1 26 1c6 -1.33301 10.5 -3.83301 13.5 -7.5s4.5 -7.66699 4.5 -12s-1.5 -8.33301 -4.5 -12s-7.16699 -6.5 -12.5 -8.5c-11.333 0 -20.166 -0.333008 -26.499 -1s-15.166 -1 -26.499 -1
c0 -31.333 0.166992 -60 0.5 -86s0.833008 -50.5 1.5 -73.5s1.5 -44.833 2.5 -65.5s1.5 -41 1.5 -61c-1.33301 -6.66699 -4 -11.167 -8 -13.5s-8.33301 -3 -13 -2s-9 3.16699 -13 6.5s-6 7.33301 -6 12c-0.666992 14 -1.33398 40.667 -2.00098 80
s-1.33398 87.5 -2.00098 144.5s-1.33398 120.667 -2.00098 191l-2 219.5c1.33301 18 4.83301 30.833 10.5 38.5s18.167 11.834 37.5 12.501z" />
    <glyph glyph-name="g" unicode="g" horiz-adv-x="222" 
d="M210 557c-4.66699 -11.333 -11.9961 -16.8311 -21.9961 -16.498s-16 6.83301 -18 19.5v28c0 12 -1.16699 23.667 -3.5 35s-6.16602 20.833 -11.499 28.5s-13 10.834 -23 9.50098c-12 -1.33301 -22 -7.83301 -30 -19.5s-14.667 -25.5 -20 -41.5s-9.5 -32.667 -12.5 -50
l-7.5 -44c-0.666992 -7.33301 -2 -23.666 -4 -48.999s-3.33301 -55 -4 -89s-0.666992 -69.667 0 -107s3 -72 7 -104s9.66699 -58.5 17 -79.5s17.666 -31.833 30.999 -32.5c11.333 -0.666992 20.833 3.66602 28.5 12.999s14 21.833 19 37.5s8.83301 33.167 11.5 52.5
s4.5 38.833 5.5 58.5s1.16699 38.334 0.5 56.001s-1.66699 32.5 -3 44.5c-6.66699 0 -14 -0.166992 -22 -0.5s-15.333 -0.833008 -22 -1.5c-12.667 1.33301 -19.834 6.83301 -21.501 16.5s3.16602 17.167 14.499 22.5c9.33301 1.33301 19.333 2 30 2s20.667 0.666992 30 2
c11.333 1.33301 19.666 -0.833984 24.999 -6.50098s8 -17.834 8 -36.501v-53c0 -20.667 -0.833008 -42 -2.5 -64s-4.5 -43.833 -8.5 -65.5s-9.83301 -41.167 -17.5 -58.5s-17.667 -31.833 -30 -43.5s-27.5 -18.167 -45.5 -19.5c-20 -0.666992 -36.5 8.83301 -49.5 28.5
s-23 45.167 -30 76.5s-11.667 66.5 -14 105.5s-3.33301 77.333 -3 115s1.66602 72.667 3.99902 105s4.5 57.5 6.5 75.5c2 18.667 5 39.167 9 61.5s10 43.166 18 62.499s19 35.666 33 48.999s32.333 20.666 55 21.999c16.667 0.666992 29.834 -3.66602 39.501 -12.999
s17 -21.5 22 -36.5s8.16699 -31.167 9.5 -48.5s1.66602 -33 0.999023 -47z" />
    <glyph glyph-name="h" unicode="h" horiz-adv-x="212" 
d="M201 11c-2 -3.33301 -4.83301 -6.1709 -8.5 -8.50391s-7.83398 -3.66602 -12.501 -3.99902s-9 0.666992 -13 3s-7 6.5 -9 12.5l-2 308h-102l2 -313c-0.666992 -3.33301 -3 -6.16602 -7 -8.49902s-8.16699 -3.83301 -12.5 -4.5s-8.66602 0 -12.999 2s-6.83301 6 -7.5 12
l-3 673c0 6.66699 2 11.334 6 14.001s8.16699 3.83398 12.5 3.50098s8.5 -2 12.5 -5s6 -7.16699 6 -12.5l3 -323h103l-1 327c0 6 2.16699 10.5 6.5 13.5s8.83301 4.5 13.5 4.5s9 -1.66699 13 -5s6 -8.33301 6 -15z" />
    <glyph glyph-name="i" unicode="i" horiz-adv-x="79" 
d="M23 689c0 4.66699 2.16699 8.16797 6.5 10.501s9 3.33301 14 3s9.5 -1.83301 13.5 -4.5s6 -6.66699 6 -12v-674c-2 -5.33301 -5.33301 -9.33301 -10 -12s-9.33398 -3.83398 -14.001 -3.50098s-8.66699 2 -12 5s-4.66602 7.5 -3.99902 13.5v674z" />
    <glyph glyph-name="j" unicode="j" 
d="M146 686c0 6.66699 2.00098 11.3262 6.00098 13.9932s8.33301 3.83398 13 3.50098s9 -2 13 -5s6 -6.83301 6 -11.5c0.666992 -14 1.5 -39.333 2.5 -76s1.83301 -79 2.5 -127s0.833984 -98.5 0.500977 -151.5s-1.5 -102.5 -3.5 -148.5
c-0.666992 -17.333 -2.16699 -35.666 -4.5 -54.999s-6.33301 -37.833 -12 -55.5s-13.5 -32.834 -23.5 -45.501s-23.333 -20.667 -40 -24c-18 -3.33301 -35.667 1.33398 -53 14.001s-29 33.334 -35 62.001c-3.33301 15.333 -4.5 31 -3.5 47s3.83301 31 8.5 45
c2 6 5.16699 10 9.5 12s8.66602 2.5 12.999 1.5s7.83301 -3 10.5 -6s3.66699 -6.83301 3 -11.5c-2 -13.333 -3.16699 -26.166 -3.5 -38.499s0.166992 -23.833 1.5 -34.5c2.66699 -17.333 8.5 -30.833 17.5 -40.5s18.167 -12.834 27.5 -9.50098c10 2.66699 17.833 10 23.5 22
s10.167 25.667 13.5 41s5.66602 31.333 6.99902 48s2.33301 31.667 3 45c2 46.667 2.83301 96.834 2.5 150.501s-0.833008 104.334 -1.5 152.001s-1.5 88.334 -2.5 122.001s-1.5 53.834 -1.5 60.501z" />
    <glyph glyph-name="k" unicode="k" horiz-adv-x="240" 
d="M194 689c4.66699 4 9.49805 6.16504 14.498 6.49805s9.16699 -0.5 12.5 -2.5s5.83301 -5.33301 7.5 -10s1.16699 -10 -1.5 -16l-149 -332l148 -299l1 -1c4 -5.33301 5.66699 -10.833 5 -16.5s-2.66699 -10.167 -6 -13.5s-7.5 -5.16602 -12.5 -5.49902
s-10.167 2.16699 -15.5 7.5l-138 274c0 -17.333 0.333008 -37.5 1 -60.5s1.16699 -46.667 1.5 -71l1 -72.5c0.333008 -24 0.5 -45.333 0.5 -64c-1.33301 -4.66699 -4.16602 -8.33398 -8.49902 -11.001s-9 -4 -14 -4s-9.5 1.33301 -13.5 4s-6.33301 6.66699 -7 12l-3 664
c-1.33301 6.66699 0.5 11.334 5.5 14.001s10.5 3.5 16.5 2.5s11.333 -3.16699 16 -6.5s6.33398 -7.66602 5.00098 -12.999l-4 -293z" />
    <glyph glyph-name="l" unicode="l" horiz-adv-x="170" 
d="M14 681c0 6 2.16699 10.333 6.5 13s9 3.66699 14 3s9.66699 -2.66699 14 -6s6.16602 -7.66602 5.49902 -12.999v-636h94c5.33301 0 9.5 -1.83301 12.5 -5.5s4.5 -7.66699 4.5 -12s-1.33301 -8.66602 -4 -12.999s-6.66699 -7.5 -12 -9.5l-103 -2
c-5.33301 -0.666992 -10.333 -0.333984 -15 0.999023s-8.5 4 -11.5 8s-5.16699 9.66699 -6.5 17s-1.66602 16.666 -0.999023 27.999z" />
    <glyph glyph-name="m" unicode="m" horiz-adv-x="290" 
d="M13 16l0.00292969 13c0 7.33301 -0.166992 20.166 -0.5 38.499s-0.333008 43 0 74s0.666016 70.667 0.999023 119s1 106.5 2 174.5s2.5 148.333 4.5 241c0.666992 8 2.66699 14 6 18s7.33301 6.33301 12 7s9 -0.333008 13 -3s7 -6.66699 9 -12l89 -327l84 330
c2 4 5.33301 7 10 9s9.5 2.83301 14.5 2.5s9.5 -2.33301 13.5 -6s5.66699 -8.83398 5 -15.501l4 -665c-0.666992 -5.33301 -2.83398 -9.16602 -6.50098 -11.499s-7.83398 -3.5 -12.501 -3.5s-9.16699 1.5 -13.5 4.5s-6.83301 7.5 -7.5 13.5l-6 525l-66 -242
c-2 -4.66699 -5 -8.16699 -9 -10.5s-8.16699 -3.5 -12.5 -3.5s-8.5 0.833008 -12.5 2.5s-6.66699 4.16699 -8 7.5l-66 253l-6 -537c-1.33301 -3.33301 -4 -6.16602 -8 -8.49902s-8.5 -3.5 -13.5 -3.5s-9.5 1.16699 -13.5 3.5s-6 6.5 -6 12.5z" />
    <glyph glyph-name="n" unicode="n" horiz-adv-x="290" 
d="M12 679c1.33301 6.66699 4.33398 11.832 9.00098 15.499s9.5 6.16699 14.5 7.5s9.83301 1.16602 14.5 -0.500977s8 -4.5 10 -8.5l41.5 -136.5l45.5 -152.5l45 -154l42 -141l3 563c-2 8 -0.833008 14.333 3.5 19s9.16602 7.5 14.499 8.5s10.5 -0.166992 15.5 -3.5
s7.5 -9.66602 7.5 -18.999l-3 -653c-0.666992 -7.33301 -3.5 -13.166 -8.5 -17.499s-10.833 -6.83301 -17.5 -7.5s-13 1 -19 5s-10 10.667 -12 20l-44.5 141l-38 125.5l-38 132l-44.5 159.5l7 -570c-0.666992 -5.33301 -3.66699 -9.5 -9 -12.5s-11 -4.33301 -17 -4
s-11.333 2.5 -16 6.5s-6.66699 10.667 -6 20v657z" />
    <glyph glyph-name="o" unicode="o" horiz-adv-x="285" 
d="M272 330c0 -17.333 -0.332031 -37.5029 -0.999023 -60.5029s-2.5 -46.667 -5.5 -71s-7.5 -48.166 -13.5 -71.499s-14 -44.333 -24 -63s-22.5 -34 -37.5 -46s-32.833 -18.333 -53.5 -19c-18 -0.666992 -33.5 4.5 -46.5 15.5s-24 25.5 -33 43.5s-16.333 38.667 -22 62
s-10 47.166 -13 71.499s-5 48 -6 71s-1.5 43.5 -1.5 61.5c0 19.333 0.333008 42 1 68s2.5 52.833 5.5 80.5s7.5 55.167 13.5 82.5s14.333 51.833 25 73.5s24.167 39.334 40.5 53.001s36.166 20.834 59.499 21.501c19.333 0.666992 35.5 -5.66602 48.5 -18.999
s23.5 -30.666 31.5 -51.999s14.167 -45.666 18.5 -72.999s7.5 -54.833 9.5 -82.5s3.16699 -54.334 3.5 -80.001s0.5 -47.834 0.5 -66.501zM232.001 332.997c0 14.667 -0.333008 32.8311 -1 54.498s-2 44.667 -4 69s-4.83301 48.666 -8.5 72.999
s-8.16699 46.166 -13.5 65.499s-11.666 34.833 -18.999 46.5s-16 17.5 -26 17.5c-16 -0.666992 -29.667 -7.5 -41 -20.5s-20.833 -29.833 -28.5 -50.5s-13.667 -43.667 -18 -69s-7.66602 -50.166 -9.99902 -74.499s-4 -47.166 -5 -68.499s-1.5 -38 -1.5 -50
c-0.666992 -14.667 -0.333984 -32 0.999023 -52s3.5 -40.667 6.5 -62s6.66699 -42.333 11 -63s9.66602 -39.167 15.999 -55.5s13.5 -29.166 21.5 -38.499s17 -13.666 27 -12.999c18 1.33301 33 12.833 45 34.5s21.5 47.5 28.5 77.5s12 61.333 15 94s4.5 61 4.5 85z" />
    <glyph glyph-name="p" unicode="p" horiz-adv-x="211" 
d="M11 684c1.33301 10 5.66699 15.5039 13 16.5039s16.666 0.833008 27.999 -0.5c26 -7.33301 48.833 -18.833 68.5 -34.5s36 -34.334 49 -56.001s22.5 -45.834 28.5 -72.501s8.33301 -54.334 7 -83.001c-1.33301 -25.333 -5.5 -50.333 -12.5 -75s-16.833 -47.667 -29.5 -69
s-28 -40.333 -46 -57s-38.333 -29.334 -61 -38.001l-2 -209c0.666992 -3.33301 -0.833008 -6 -4.5 -8s-7.66699 -3 -12 -3s-8.66602 1.33301 -12.999 4s-6.83301 7 -7.5 13c-2 56.667 -3.5 111.5 -4.5 164.5s-1.5 106.333 -1.5 160v165.5v182zM54.001 269.004
c15.333 3.33301 29.333 10.999 42 22.999s23.834 26.5 33.501 43.5s17.334 35.5 23.001 55.5s9.16699 40 10.5 60s0.666016 40.667 -2.00098 62s-8.33398 41.5 -17.001 60.5s-20.667 35.833 -36 50.5s-34.333 25.334 -57 32.001z" />
    <glyph glyph-name="q" unicode="q" horiz-adv-x="286" 
d="M215 43c-9.33301 -13.333 -20.501 -23.835 -33.501 -31.502s-27.833 -11.834 -44.5 -12.501c-18 -0.666992 -33.5 4.5 -46.5 15.5s-24 25.5 -33 43.5s-16.333 38.667 -22 62s-10 47.166 -13 71.499s-5 48 -6 71s-1.5 43.5 -1.5 61.5c0 19.333 0.333008 42 1 68
s2.5 52.833 5.5 80.5s7.5 55.167 13.5 82.5s14.333 51.833 25 73.5s24.167 39.334 40.5 53.001s36.166 20.834 59.499 21.501c19.333 0.666992 35.5 -5.66602 48.5 -18.999s23.5 -30.666 31.5 -51.999s14.167 -45.666 18.5 -72.999s7.5 -54.833 9.5 -82.5
s3.16699 -54.334 3.5 -80.001s0.5 -47.834 0.5 -66.501c0 -16 -0.333008 -34 -1 -54s-2.16699 -40.667 -4.5 -62s-5.66602 -42.833 -9.99902 -64.5s-10.166 -41.834 -17.499 -60.501l34 -78c0 -6 -1.5 -11.167 -4.5 -15.5s-6.83301 -7.16602 -11.5 -8.49902
s-9 -1.16602 -13 0.500977s-7 5.16699 -9 10.5zM231.999 332.998c0 14.667 -0.333984 32.834 -1.00098 54.501s-2 44.5 -4 68.5s-4.83301 48 -8.5 72s-8.16699 45.5 -13.5 64.5s-11.666 34.333 -18.999 46s-16 17.5 -26 17.5c-16 -0.666992 -29.667 -7.5 -41 -20.5
s-20.833 -29.667 -28.5 -50s-13.667 -43 -18 -68s-7.5 -49.667 -9.5 -74s-3.5 -47 -4.5 -68s-1.5 -37.5 -1.5 -49.5c-0.666992 -22 0.5 -49.333 3.5 -82s7.83301 -63.834 14.5 -93.501s15.167 -54.834 25.5 -75.501s23.166 -30.334 38.499 -29.001
c11.333 1.33301 21.333 6.33301 30 15s16.667 20.334 24 35.001l-59 140c-2 4 -1.33301 7.83301 2 11.5s7.33301 6.5 12 8.5s9.33398 2.5 14.001 1.5s8 -4.16699 10 -9.5l40 -95c7.33301 30 12.5 61.333 15.5 94s4.5 61.334 4.5 86.001z" />
    <glyph glyph-name="r" unicode="r" horiz-adv-x="216" 
d="M56 204l-1.99902 -197.993c0.666992 -3.33301 -0.833008 -6 -4.5 -8s-7.66699 -3 -12 -3s-8.66602 1.33301 -12.999 4s-6.83301 7 -7.5 13c-2 56.667 -3.5 111.5 -4.5 164.5s-1.5 106.333 -1.5 160v165.5v182c1.33301 10 5.66602 15.5 12.999 16.5
s16.666 0.833008 27.999 -0.5c26 -7.33301 48.833 -18.833 68.5 -34.5s36 -34.334 49 -56.001s22.5 -45.834 28.5 -72.501s8.33301 -54.334 7 -83.001c-1.33301 -22 -4.83301 -44 -10.5 -66s-13.5 -42.833 -23.5 -62.5s-22.167 -37.834 -36.5 -54.501
s-30.5 -30.334 -48.5 -41.001l128 -194c1.33301 -6 1 -11.333 -1 -16s-5 -8.33398 -9 -11.001s-8.33301 -3.83398 -13 -3.50098s-8.66699 2.83301 -12 7.5zM54.001 269.007c15.333 3.33301 29.333 10.999 42 22.999s23.834 26.5 33.501 43.5s17.334 35.5 23.001 55.5
s9.16699 40 10.5 60s0.666016 40.667 -2.00098 62s-8.33398 41.5 -17.001 60.5s-20.667 35.833 -36 50.5s-34.333 25.334 -57 32.001z" />
    <glyph glyph-name="s" unicode="s" horiz-adv-x="163" 
d="M148 584c-1.33301 -6 -4.16992 -10.3271 -8.50293 -12.9941s-8.83301 -3.83398 -13.5 -3.50098s-8.83398 2.16602 -12.501 5.49902s-5.5 8 -5.5 14s0.5 13.167 1.5 21.5s1.33301 16.166 1 23.499s-1.66602 13.666 -3.99902 18.999s-6.83301 8.33301 -13.5 9
c-8.66699 0.666992 -16.167 -3.5 -22.5 -12.5s-11.5 -20.333 -15.5 -34s-6.83301 -28.834 -8.5 -45.501s-1.83398 -32.667 -0.500977 -48c3.33301 -40 10.666 -76.5 21.999 -109.5s23.333 -66.167 36 -99.5c13.333 -35.333 26 -72.333 38 -111s17.333 -78.667 16 -120
c-1.33301 -20.667 -6.66602 -39 -15.999 -55s-26.666 -24.667 -51.999 -26c-13.333 -0.666992 -25.333 4.66602 -36 15.999s-19.667 25 -27 41s-12.833 32.667 -16.5 50s-4.5 32 -2.5 44c0.666992 6.66699 3.33398 12 8.00098 16s9.33398 6.16699 14.001 6.5
s8.83398 -1.16699 12.501 -4.5s5.5 -9 5.5 -17c0 -12.667 1 -25.5 3 -38.5s5 -24.667 9 -35s8.66699 -18.833 14 -25.5s11 -10 17 -10c8.66699 0.666992 15.167 4.33398 19.5 11.001s7.16602 15.334 8.49902 26.001c2 18 1.5 36.167 -1.5 54.5s-7.16699 36.5 -12.5 54.5
s-11.5 36 -18.5 54l-20.5 53c-12.667 34 -24.5 69.833 -35.5 107.5s-18.167 77.5 -21.5 119.5c-1.33301 15.333 -1 33.166 1 53.499s6 39.666 12 57.999s14.833 34 26.5 47s26.5 19.5 44.5 19.5c12 0 22.167 -3.16699 30.5 -9.5s14.833 -15 19.5 -26
s7.33398 -23.5 8.00098 -37.5s-0.333008 -28.333 -3 -43z" />
    <glyph glyph-name="t" unicode="t" horiz-adv-x="179" 
d="M25 659c-6 -0.666992 -10.667 1.00293 -14 5.00293s-5.16602 8.66699 -5.49902 14s1 10.166 4 14.499s7.83301 6.16602 14.5 5.49902h130c6.66699 0 11.5 -2 14.5 -6s4.5 -8.5 4.5 -13.5s-1.5 -9.5 -4.5 -13.5s-7.5 -6 -13.5 -6h-47l1 -640
c0 -6.66699 -2.33301 -11.5 -7 -14.5s-9.83398 -4.5 -15.501 -4.5s-10.667 1.66699 -15 5s-6.5 8.66602 -6.5 15.999l1 638h-41z" />
    <glyph glyph-name="u" unicode="u" horiz-adv-x="208" 
d="M19 681c-0.666992 7.33301 1.66797 12.5 7.00098 15.5s11 4.33301 17 4s11.333 -2.5 16 -6.5s6.33398 -9.33301 5.00098 -16c-10 -152 -13 -277.333 -9 -376c3.33301 -79.333 9.5 -140.5 18.5 -183.5s21.167 -64.5 36.5 -64.5c7.33301 0 13.333 6.5 18 19.5
s8.5 30.5 11.5 52.5s5.33301 47.667 7 77s3.16699 60.666 4.5 93.999c1.33301 31.333 2.33301 63.666 3 96.999s1.16699 66.5 1.5 99.5s0.5 65.5 0.5 97.5v90c-0.666992 6.66699 1.16602 11.334 5.49902 14.001s9.16602 3.83398 14.499 3.50098s10.333 -2 15 -5
s7 -7.5 7 -13.5c0 -71.333 -0.166992 -139.666 -0.5 -204.999s-1.16602 -126 -2.49902 -182c-2.66699 -93.333 -10.334 -164.833 -23.001 -214.5s-34 -74.834 -64 -75.501c-16 0 -29.667 7 -41 21s-20.833 33.5 -28.5 58.5s-13.5 54.833 -17.5 89.5s-6.66699 72.667 -8 114
c-1.33301 42.667 -2 86 -2 130s0.5 84.5 1.5 121.5s2.16699 68.333 3.5 94s2.33301 42.167 3 49.5z" />
    <glyph glyph-name="v" unicode="v" horiz-adv-x="246" 
d="M143 19c-0.666992 -5.33301 -3 -9.33203 -7 -11.999s-8.33301 -4 -13 -4s-9 1.16699 -13 3.5s-6.33301 6.16602 -7 11.499l-100 667c-1.33301 4.66699 0 8.33398 4 11.001s8.5 4.33398 13.5 5.00098s9.66699 -0.166016 14 -2.49902s6.83301 -6.16602 7.5 -11.499l81 -535
l81 533c0.666992 5.33301 3.16699 9.16602 7.5 11.499s9 3.16602 14 2.49902s9.33301 -2.33398 13 -5.00098s5.16699 -6.33398 4.5 -11.001z" />
    <glyph glyph-name="w" unicode="w" horiz-adv-x="360" 
d="M177 222l-34.001 -202.996c-0.666992 -5.33301 -3 -9.33301 -7 -12s-8.33301 -4 -13 -4s-9 1.16699 -13 3.5s-6.33301 6.16602 -7 11.499l-100 667c-1.33301 4.66699 0 8.33398 4 11.001s8.5 4.33398 13.5 5.00098s9.66699 -0.166016 14 -2.49902
s6.83301 -6.16602 7.5 -11.499l81 -535l34 183c0.666992 5.33301 2.83398 9.16602 6.50098 11.499s7.83398 3.16602 12.501 2.49902s9.16699 -2.33398 13.5 -5.00098s7.16602 -6.33398 8.49902 -11.001l34 -183l81 535c0.666992 5.33301 3.16699 9.16602 7.5 11.499
s9 3.16602 14 2.49902s9.33301 -2.33398 13 -5.00098s5.16699 -6.33398 4.5 -11.001l-100 -667c-0.666992 -5.33301 -3 -9.16602 -7 -11.499s-8.33301 -3.5 -13 -3.5s-9 1.33301 -13 4s-6.33301 6.66699 -7 12z" />
    <glyph glyph-name="x" unicode="x" horiz-adv-x="184" 
d="M93 448l45 245c0.666992 4.66699 3.16699 7.66699 7.5 9s9 1.5 14 0.5s9.33301 -3.16699 13 -6.5s4.83398 -7.33301 3.50098 -12l-62 -336l72 -331c1.33301 -5.33301 0.666016 -9.83301 -2.00098 -13.5s-6.16699 -6 -10.5 -7s-9 -0.666992 -14 1
s-9.16699 5.16699 -12.5 10.5l-51 239l-43 -235c-3.33301 -5.33301 -7.5 -8.83301 -12.5 -10.5s-9.66699 -2 -14 -1s-7.83301 3.33301 -10.5 7s-3.33398 8.16699 -2.00098 13.5l60 327l-71 334c-1.33301 4.66699 -0.166016 8.66699 3.50098 12s8 5.5 13 6.5
s9.66699 0.833008 14 -0.5s6.83301 -4.33301 7.5 -9z" />
    <glyph glyph-name="y" unicode="y" horiz-adv-x="290" 
d="M136 235l-125.999 437.999c-1.33301 6 -0.333008 11 3 15s7.5 6.83301 12.5 8.5s9.83301 1.83398 14.5 0.500977s8 -4 10 -8l103 -367l85 360c2 6.66699 5.66699 11.167 11 13.5s10.5 2.5 15.5 0.5s9.16699 -5.83301 12.5 -11.5s3.66602 -12.5 0.999023 -20.5l-99 -424
l2 -227c0.666992 -4.66699 -1.16602 -8 -5.49902 -10s-9.33301 -2.66699 -15 -2s-10.834 2.16699 -15.501 4.5s-6.66699 5.83301 -6 10.5z" />
    <glyph glyph-name="z" unicode="z" 
d="M24 658c-6 -2 -10.6689 -0.998047 -14.002 3.00195s-5.33301 8.66699 -6 14s0.166016 10.5 2.49902 15.5s6.5 7.5 12.5 7.5c12.667 -0.666992 26.334 -1 41.001 -1h42.5c13.667 0 26.334 0.166992 38.001 0.5s20.5 0.5 26.5 0.5c6 0.666992 11.167 0.5 15.5 -0.5
s7.5 -3.66699 9.5 -8s2.83301 -10.833 2.5 -19.5s-2.5 -20.334 -6.5 -35.001l-19.5 -78.5l-24 -97.5l-25.5 -107.5l-25 -110l-23 -105c-7.33301 -33.667 -13.333 -63.834 -18 -90.501c22 0 44.667 -0.5 68 -1.5s43 -0.833008 59 0.5
c6 0.666992 10.333 -0.666016 13 -3.99902s3.83398 -7.33301 3.50098 -12s-2 -9.33398 -5 -14.001s-7.16699 -8 -12.5 -10c-12.667 -0.666992 -25.834 -1 -39.501 -1h-38.5c-12 0 -22.833 0.166992 -32.5 0.5s-16.5 0.5 -20.5 0.5c-19.333 0 -31.666 3.16699 -36.999 9.5
s-5.66602 18.833 -0.999023 37.5l25.5 111.5l34 150l38.5 170l39 172.5h-27c-10.667 0 -21.834 0.166992 -33.501 0.5l-34 1c-11 0.333008 -20.5 0.5 -28.5 0.5z" />
    <glyph glyph-name="braceleft" unicode="{" horiz-adv-x="140" 
d="M95 722c4.66699 4 9.49805 6.16309 14.498 6.49609s9.16699 -0.5 12.5 -2.5s5.83301 -5.33301 7.5 -10s1.16699 -10 -1.5 -16c-14.667 -22 -25.667 -42.333 -33 -61s-11.833 -36.667 -13.5 -54s-0.833984 -34.666 2.49902 -51.999s8.33301 -35.666 15 -54.999
c4 -10.667 6.5 -19.5 7.5 -26.5s0.333008 -13.167 -2 -18.5s-6.66602 -10.166 -12.999 -14.499s-14.833 -9.5 -25.5 -15.5c10.667 -6.66699 19 -12.5 25 -17.5s10.167 -10.5 12.5 -16.5s3 -13.167 2 -21.5s-2.83301 -19.166 -5.5 -32.499
c-3.33301 -10 -6.33301 -23.833 -9 -41.5s-4.66699 -37.167 -6 -58.5s-1.66602 -43.333 -0.999023 -66s2.66699 -43.834 6 -63.501s8.33301 -36.834 15 -51.501s15.334 -24.667 26.001 -30c6.66699 -3.33301 10 -7.66602 10 -12.999s-1.66699 -10.166 -5 -14.499
s-7.5 -7.5 -12.5 -9.5s-8.83301 -1.33301 -11.5 2c-23.333 17.333 -40.166 42.833 -50.499 76.5s-16.5 69.334 -18.5 107.001s-0.666992 74.834 4 111.501s10.667 66.667 18 90l-15 8.5c-5.33301 3 -10.5 6.33301 -15.5 10s-9.16699 7.66699 -12.5 12s-5 9.16602 -5 14.499
c0 12.667 5.16699 22.5 15.5 29.5s21.166 13.5 32.499 19.5c-5.33301 22 -10.166 43.167 -14.499 63.5s-6.33301 41.166 -6 62.499s4.16602 44 11.499 68s20.333 50.667 39 80z" />
    <glyph glyph-name="bar" unicode="|" horiz-adv-x="84" 
d="M21 689c0 4.66699 2.16699 8.16797 6.5 10.501s9 3.33301 14 3s9.5 -1.83301 13.5 -4.5s6 -6.66699 6 -12v-674c-2 -5.33301 -5.33301 -9.33301 -10 -12s-9.33398 -3.83398 -14.001 -3.50098s-8.66699 2 -12 5s-4.66602 7.5 -3.99902 13.5v674z" />
    <glyph glyph-name="braceright" unicode="}" horiz-adv-x="152" 
d="M59 722c18.667 -29.333 31.6689 -55.9961 39.002 -79.9961s11.166 -46.667 11.499 -68s-1.83398 -42.166 -6.50098 -62.499l-14 -63.5c11.333 -6 22.166 -12.5 32.499 -19.5s15.5 -16.833 15.5 -29.5c0 -5.33301 -1.66699 -10.166 -5 -14.499s-7.5 -8.33301 -12.5 -12
s-10.167 -7 -15.5 -10l-15 -8.5c7.33301 -23.333 13.333 -53.333 18 -90s6 -73.834 4 -111.501s-8.33301 -73.334 -19 -107.001s-27.334 -59.167 -50.001 -76.5c-2.66699 -3.33301 -6.5 -4 -11.5 -2s-9.16699 5.16699 -12.5 9.5s-5.16602 9.16602 -5.49902 14.499
s3.16699 9.66602 10.5 12.999c10.667 5.33301 19.334 15.333 26.001 30s11.667 31.834 15 51.501s5.33301 40.834 6 63.501s0.333984 44.667 -0.999023 66s-3.33301 40.833 -6 58.5s-5.66699 31.5 -9 41.5c-3.33301 13.333 -5.33301 24.166 -6 32.499
s0.166016 15.5 2.49902 21.5s6.5 11.5 12.5 16.5s14.333 10.833 25 17.5c-10.667 6 -19.167 11.167 -25.5 15.5s-10.666 9.16602 -12.999 14.499s-3 11.5 -2 18.5s3.5 15.833 7.5 26.5c6.66699 19.333 11.667 37.666 15 54.999s4.16602 34.666 2.49902 51.999
s-6.16699 35.333 -13.5 54s-18.333 39 -33 61c-2.66699 6 -3.16699 11.333 -1.5 16s4.16699 8 7.5 10s7.5 2.83301 12.5 2.5s9.83301 -2.5 14.5 -6.5z" />
    <glyph glyph-name="asciitilde" unicode="~" horiz-adv-x="286" 
d="M52 302c-0.666992 -5.33301 -2.99902 -9.5 -6.99902 -12.5s-8.16699 -4.66699 -12.5 -5s-8.66602 0.833984 -12.999 3.50098s-6.83301 7 -7.5 13c2 19.333 10 36.333 24 51s30 22.667 48 24c12 0.666992 23.167 -1.66602 33.5 -6.99902s20 -11.5 29 -18.5l24.5 -19
c7.33301 -5.66699 14.333 -8.16699 21 -7.5c19.333 2 32.666 15.667 39.999 41c2 6 5.16699 9.83301 9.5 11.5s8.66602 1.66699 12.999 0s7.83301 -4.83398 10.5 -9.50098s3.66699 -10 3 -16c-2.66699 -15.333 -10.667 -30 -24 -44s-29 -21.667 -47 -23
c-14 -0.666992 -25.833 1.5 -35.5 6.5s-18.667 10.833 -27 17.5s-16.333 12.667 -24 18s-15.834 7.66602 -24.501 6.99902c-11.333 -0.666992 -18.666 -4 -21.999 -10z" />
    <glyph glyph-name="exclamdown" unicode="&#xa1;" horiz-adv-x="94" 
d="M72.001 679.002c0 -7.33301 -2.66602 -13.666 -7.99902 -18.999s-11.666 -7.99902 -18.999 -7.99902s-13.666 2.66602 -18.999 7.99902s-8 11.666 -8 18.999s2.66699 13.666 8 18.999s11.666 7.99902 18.999 7.99902s13.666 -2.66602 18.999 -7.99902
s7.99902 -11.666 7.99902 -18.999zM65.002 27.042c0 -4.66699 -2.16797 -8.16797 -6.50098 -10.501s-8.99902 -3.33301 -13.998 -3c-5 0.333008 -9.5 1.83301 -13.499 4.5c-4 2.66602 -6 6.66602 -6 11.999v527.968c2 5.33301 5.33301 9.33301 9.99902 12
c4.66699 2.66699 9.33398 3.83398 14.001 3.50098c4.66602 -0.333008 8.66602 -2 11.999 -5s4.66602 -7.5 3.99902 -13.499v-527.968z" />
    <glyph glyph-name="cent" unicode="&#xa2;" horiz-adv-x="234" 
d="M110 30c-14.667 6.66699 -27.1689 18.1729 -37.502 34.5059s-19.166 35.5 -26.499 57.5s-13.166 45.667 -17.499 71s-7.5 50 -9.5 74s-3.33301 46.5 -4 67.5s-0.666992 37.833 0 50.5c0 14.667 0.666992 35.334 2 62.001s4.83301 54 10.5 82s14 54.333 25 79
s26.167 42.334 45.5 53.001v28c0 4.66699 2.16699 8.16699 6.5 10.5s9 3.33301 14 3s9.5 -1.83301 13.5 -4.5s6 -6.66699 6 -12v-15h3c16.667 0 29.667 -4.33301 39 -13s16.333 -19.834 21 -33.501s7.5 -29.334 8.5 -47.001s2.16699 -35.5 3.5 -53.5
c0 -4.66699 -1.83301 -8.33398 -5.5 -11.001s-7.83398 -4 -12.501 -4s-9 1.33301 -13 4s-6 7.33398 -6 14.001c-1.33301 13.333 -2.33301 26 -3 38s-2 22.667 -4 32s-5.16699 16.833 -9.5 22.5s-10.833 9.16699 -19.5 10.5h-1l10 -563
c6.66699 5.33301 11.5 15.833 14.5 31.5s5.16699 33.167 6.5 52.5s2 39.166 2 59.499s0.666992 38.166 2 53.499c0.666992 6.66699 3.16699 11.667 7.5 15s8.83301 4.66602 13.5 3.99902s8.83398 -2.83398 12.501 -6.50098s5.83398 -8.83398 6.50098 -15.501
c0 -26.667 -0.166992 -53.167 -0.5 -79.5s-2.5 -50.333 -6.5 -72s-10.333 -40 -19 -55s-21.334 -24.5 -38.001 -28.5l1 -33c-2 -5.33301 -5.33301 -9.33301 -10 -12s-9.33398 -3.83398 -14.001 -3.50098s-8.66699 2 -12 5s-4.66602 7.5 -3.99902 13.5zM53.998 374.006
c0 -24 0.999023 -50.165 2.99902 -78.498s5.33301 -55.833 10 -82.5s10.5 -51.334 17.5 -74.001s15.167 -40.667 24.5 -54l-10 525c-9.33301 -11.333 -16.833 -26.5 -22.5 -45.5s-10.167 -39.5 -13.5 -61.5s-5.66602 -44.333 -6.99902 -67s-2 -43.334 -2 -62.001z" />
    <glyph glyph-name="sterling" unicode="&#xa3;" horiz-adv-x="263" 
d="M43 347c2.66699 66.667 6.16992 122.335 10.5029 167.002s10.666 80.667 18.999 108s19 46.833 32 58.5s29.5 17.5 49.5 17.5h5c16.667 0 29.834 -5.83301 39.501 -17.5s16.834 -26.334 21.501 -44.001s7.66699 -36.834 9 -57.501s2.66602 -40 3.99902 -58
c0 -4.66699 -1.83301 -8.33398 -5.5 -11.001s-7.83398 -4 -12.501 -4s-9 1.33301 -13 4s-6 7.33398 -6 14.001c-1.33301 13.333 -2.33301 27.833 -3 43.5s-2.16699 30.167 -4.5 43.5s-5.83301 24.333 -10.5 33s-11.334 13 -20.001 13c-11.333 0 -20.833 -5.66699 -28.5 -17
s-14.334 -29.5 -20.001 -54.5s-10.167 -57.167 -13.5 -96.5s-6.33301 -86.666 -9 -141.999l125 1c4.66699 0 8.16699 -2.16699 10.5 -6.5s3.33301 -9 3 -14s-1.83301 -9.5 -4.5 -13.5s-6.66699 -6 -12 -6l-124 -1c-1.33301 -37.333 -2.5 -77.833 -3.5 -121.5
s-2.16699 -91.5 -3.5 -143.5l152 -2c5.33301 0 9.5 -1.83301 12.5 -5.5s4.5 -7.66699 4.5 -12s-1.33301 -8.66602 -4 -12.999s-6.66699 -7.5 -12 -9.5h-161c-5.33301 -0.666992 -10.333 -0.333984 -15 0.999023s-8.5 4 -11.5 8s-5.16699 9.66699 -6.5 17
s-1.66602 16.666 -0.999023 27.999c1.33301 48.667 2.33301 94 3 136s1.66699 81 3 117h-18c-5.33301 2 -9.33301 5.33301 -12 10s-3.83398 9.33398 -3.50098 14.001s2 8.66699 5 12s7.5 4.66602 13.5 3.99902h16z" />
    <glyph glyph-name="yen" unicode="&#xa5;" horiz-adv-x="493" 
d="M210 323l0.00195312 20.001l-211 334c-1.33301 6 -0.333008 11 3 15s7.5 6.83301 12.5 8.5s9.83301 1.83398 14.5 0.500977s8 -4 10 -8l191 -294l215 292c4.66699 7.33301 10.167 11.666 16.5 12.999s11.833 0.666016 16.5 -2.00098s8 -6.66699 10 -12s1 -11 -3 -17
l-232 -325v-25l71 1c4.66699 0 8.16699 -2.16699 10.5 -6.5s3.33301 -9 3 -14s-1.83301 -9.5 -4.5 -13.5s-6.66699 -6 -12 -6l-68 -1v-50l69 1c4.66699 0 8.16699 -2.16699 10.5 -6.5s3.33301 -9 3 -14s-1.83301 -9.5 -4.5 -13.5s-6.66699 -6 -12 -6l-66 -1v-181
c0.666992 -4.66699 -1.16602 -8 -5.49902 -10s-9.33301 -2.66699 -15 -2s-10.834 2.16699 -15.501 4.5s-6.66699 5.83301 -6 10.5l-1 178h-76c-5.33301 2 -9.33301 5.33301 -12 10s-3.83398 9.33398 -3.50098 14.001s2 8.66699 5 12s7.5 4.66602 13.5 3.99902h73v50h-74
c-5.33301 2 -9.33301 5.33301 -12 10s-3.83398 9.33398 -3.50098 14.001s2 8.66699 5 12s7.5 4.66602 13.5 3.99902h71z" />
    <glyph glyph-name="dieresis" unicode="&#xa8;" horiz-adv-x="181" 
d="M22 739c0 7.33301 2.66699 13.666 8 18.999s11.666 8 18.999 8s13.666 -2.66699 18.999 -8s8 -11.666 8 -18.999s-2.66699 -13.666 -8 -18.999s-11.666 -8 -18.999 -8s-13.666 2.66699 -18.999 8s-8 11.666 -8 18.999zM106 739c0 7.33301 2.66699 13.666 8 18.999
s11.666 8 18.999 8s13.666 -2.66699 18.999 -8s8 -11.666 8 -18.999s-2.66699 -13.666 -8 -18.999s-11.666 -8 -18.999 -8s-13.666 2.66699 -18.999 8s-8 11.666 -8 18.999z" />
    <glyph glyph-name="copyright" unicode="&#xa9;" horiz-adv-x="406" 
d="M286 428c0 -4 -2.00293 -7.17188 -6.00293 -9.50488s-8.5 -3.5 -13.5 -3.5s-9.5 1.16699 -13.5 3.5s-6 6.16602 -6 11.499c-0.666992 12 -1.16699 24.5 -1.5 37.5s-1.33301 25 -3 36s-4.5 20 -8.5 27s-9.66699 10.5 -17 10.5c-16 -0.666992 -28.667 -11 -38 -31
s-16 -44.5 -20 -73.5s-5.66699 -60.5 -5 -94.5s3 -65.5 7 -94.5s9.83301 -52.833 17.5 -71.5s16.5 -27.667 26.5 -27c9.33301 0.666992 16.5 6.33398 21.5 17.001s8.83301 24 11.5 40s4.33398 33 5.00098 51s1.66699 34.333 3 49c0.666992 6 3 10.333 7 13
s8.33301 3.83398 13 3.50098s9 -2.16602 13 -5.49902s6.33301 -8 7 -14c0 -24.667 -1.5 -48.834 -4.5 -72.501s-7.66699 -45 -14 -64s-14.166 -34.667 -23.499 -47s-20 -19.166 -32 -20.499c-15.333 -1.33301 -29.333 4.33398 -42 17.001s-23.334 29.834 -32.001 51.501
s-15.334 46.834 -20.001 75.501s-7.33398 58.167 -8.00098 88.5s0.833008 60.166 4.5 89.499s10 55.666 19 78.999s20.5 42.333 34.5 57s30.667 22.667 50 24c14.667 0.666992 26.334 -4 35.001 -14s15.334 -22.667 20.001 -38s7.83398 -32.166 9.50098 -50.499
s2.83398 -35.166 3.50098 -50.499zM379.997 328.995c-2 -47.333 -7.16797 -91.0029 -15.501 -131.003s-20.166 -74.667 -35.499 -104s-34.5 -52.666 -57.5 -69.999s-50.167 -26.666 -81.5 -27.999c-54 -2 -96.167 26.667 -126.5 86s-44.5 144 -42.5 254
c0.666992 42 4.5 84.333 11.5 127s18 81.334 33 116.001s34.5 63.167 58.5 85.5s53.667 34.166 89 35.499c28.667 0.666992 53.834 -9 75.501 -29s39.667 -47.167 54 -81.5s24.666 -74.166 30.999 -119.499s8.5 -92.333 6.5 -141zM336.996 331.992
c0.666992 46.667 -1.66895 90.002 -7.00195 130.002s-13.5 74.5 -24.5 103.5s-24.333 51.5 -40 67.5s-33.167 23.667 -52.5 23s-36.5 -6.33398 -51.5 -17.001s-28 -24.667 -39 -42s-20.167 -37.166 -27.5 -59.499s-13.166 -45.166 -17.499 -68.499
s-7.66602 -46.666 -9.99902 -69.999s-3.5 -44.333 -3.5 -63c-1.33301 -92.667 9.16699 -165.334 31.5 -218.001s54.5 -79.334 96.5 -80.001c22 0 41.833 6.66699 59.5 20s32.667 32.666 45 57.999s21.833 56.166 28.5 92.499s10.667 77.5 12 123.5z" />
    <glyph glyph-name="macron" unicode="&#xaf;" horiz-adv-x="272" 
d="M230 754c4.66699 0 8.16797 -2.16699 10.501 -6.5s3.33301 -9 3 -14s-1.83301 -9.5 -4.5 -13.5s-6.66699 -6 -12 -6l-185 -1c-5.33301 2 -9.33301 5.33301 -12 10s-3.83398 9.33398 -3.50098 14.001s2 8.66699 5 12s7.5 4.66602 13.5 3.99902z" />
    <glyph glyph-name="acute" unicode="&#xb4;" horiz-adv-x="99" 
d="M47 718c-2.66699 -5.33301 -6.66699 -8.83496 -12 -10.502s-10.333 -1.66699 -15 0s-8.16699 4.83398 -10.5 9.50098s-1.83301 10.667 1.5 18l31 65c2 4.66699 5.66699 7.33398 11 8.00098s10.5 0 15.5 -2s8.66699 -5.33301 11 -10s1.83301 -10 -1.5 -16z" />
    <glyph glyph-name="cedilla" unicode="&#xb8;" horiz-adv-x="129" 
d="M32 4c0.666992 6 2.66504 10.668 5.99805 14.001s7 5.16602 11 5.49902s7.66699 -0.833984 11 -3.50098s6 -7 8 -13c0.666992 -4.66699 1 -7.33398 1 -8.00098v-1.5c0 -0.333008 -0.166992 -1 -0.5 -2s-0.5 -3.83301 -0.5 -8.5h1c16.667 -4 28.834 -12.167 36.501 -24.5
s10.667 -25.333 9 -39s-8.16699 -25.667 -19.5 -36s-27.333 -15.166 -48 -14.499c-4.66699 0 -8.33398 2 -11.001 6s-4.16699 8.16699 -4.5 12.5s0.5 8.33301 2.5 12s5.33301 5.16699 10 4.5c8.66699 -1.33301 15.834 0.333984 21.501 5.00098s9.16699 10.334 10.5 17.001
s0 13.167 -4 19.5s-11 10.166 -21 11.499c-9.33301 -0.666992 -14.666 0.5 -15.999 3.5s-2.66602 8.16699 -3.99902 15.5c0 4.66699 0.166992 7.66699 0.5 9s0.666016 2.33301 0.999023 3s0.5 1.66699 0.5 3s-0.333008 4.33301 -1 9z" />
    <glyph glyph-name="questiondown" unicode="&#xbf;" horiz-adv-x="280" 
d="M211.004 547.01c2 5.99902 5.00098 10.3311 9.00098 12.998c3.99902 2.66602 8.16504 3.83203 12.498 3.49902s8.33301 -1.83301 11.999 -4.5c3.66699 -2.66699 5.5 -6.66699 5.5 -12l7 -122.993c0 -5.33301 -1.16699 -10.666 -3.5 -15.999
s-5.83301 -9.66602 -10.5 -12.999c-4.66602 -3.33301 -10.332 -5.16602 -16.999 -5.49902c-6.66602 -0.333008 -14.332 2.16699 -22.998 7.5c-23.332 7.33301 -43.3311 9 -59.9961 5.00098c-18.666 -4 -34.165 -15.833 -46.4971 -35.498
c-12.333 -19.665 -21.333 -42.8301 -27 -69.4951c-5.66602 -26.665 -8.33203 -55.1631 -7.99902 -85.4941c0.333008 -30.332 3.99902 -58.1641 10.998 -83.4951c6.99902 -25.332 16.998 -46.1641 29.9971 -62.4961c12.999 -16.333 29.165 -24.166 48.4971 -23.499
c15.333 0.666992 27.666 4.83301 36.999 12.499c9.33301 7.66699 16.499 17 21.498 27.999c5 10.999 8.33301 22.8311 10 35.4961c1.66699 12.666 2.16699 24.332 1.5 34.998c0.666992 6.66699 2.83301 11.833 6.49902 15.499
c3.66699 3.66699 7.83398 5.83398 12.501 6.50098c4.66602 0.666992 9.16602 -0.5 13.499 -3.5s6.83301 -8.16602 7.5 -15.499c2.66699 -45.3311 -5.66602 -82.1621 -24.998 -110.493s-47.9971 -42.8301 -85.9951 -43.4971c-28.665 0 -52.4971 9.99902 -71.4961 29.998
s-33.498 45.3311 -43.4971 75.9961s-15.332 64.4961 -15.999 101.494c-0.666992 36.9971 3 71.8281 11 104.493c7.99902 32.665 20.498 61.1631 37.4971 85.4951c16.999 24.3311 37.8311 39.1631 62.4961 44.4961c26.665 5.99902 55.9971 3.66602 87.9951 -7z
M246.003 676.001c0 7.33301 -2.66602 13.666 -7.99902 18.999s-11.666 8 -18.999 8s-13.666 -2.66699 -18.999 -8s-7.99902 -11.666 -7.99902 -18.999s2.66602 -13.666 7.99902 -18.999s11.666 -8 18.999 -8s13.666 2.66699 18.999 8s7.99902 11.666 7.99902 18.999z" />
    <glyph glyph-name="Agrave" unicode="&#xc0;" horiz-adv-x="446" 
d="M180 679c0.666992 8 4.16797 14.335 10.501 19.002s13.166 7.16699 20.499 7.5s14.333 -1.5 21 -5.5s11 -10.333 13 -19l191 -659c0.666992 -6.66699 -0.833008 -12 -4.5 -16s-8.16699 -6.66699 -13.5 -8s-10.5 -0.833008 -15.5 1.5s-7.83301 6.5 -8.5 12.5l-69 245
c-10 -0.666992 -24.833 -0.833984 -44.5 -0.500977s-40.167 0.833008 -61.5 1.5s-41.833 1.16699 -61.5 1.5s-34.5 0.166016 -44.5 -0.500977l-63 -248c-2 -5.33301 -5.66699 -9.16602 -11 -11.499s-10.5 -2.83301 -15.5 -1.5s-9.16699 4.16602 -12.5 8.49902
s-4.33301 10.5 -3 18.5zM124.001 302.002c9.33301 0.666992 22.668 0.832031 40.001 0.499023s35.5 -0.833008 54.5 -1.5s37.167 -1.16699 54.5 -1.5s30.666 -0.166016 39.999 0.500977l-100 340zM175.003 805c-3.33301 6 -3.83301 11.335 -1.5 16.002s6 8 11 10
s10.167 2.66699 15.5 2s9 -3.33398 11 -8.00098l31 -65c3.33301 -7.33301 3.83301 -13.333 1.5 -18s-5.83301 -7.83398 -10.5 -9.50098s-9.66699 -1.66699 -15 0s-9.33301 5.16699 -12 10.5l-31 62v0z" />
    <glyph glyph-name="Aacute" unicode="&#xc1;" horiz-adv-x="446" 
d="M180 679c0.666992 8 4.16797 14.335 10.501 19.002s13.166 7.16699 20.499 7.5s14.333 -1.5 21 -5.5s11 -10.333 13 -19l191 -659c0.666992 -6.66699 -0.833008 -12 -4.5 -16s-8.16699 -6.66699 -13.5 -8s-10.5 -0.833008 -15.5 1.5s-7.83301 6.5 -8.5 12.5l-69 245
c-10 -0.666992 -24.833 -0.833984 -44.5 -0.500977s-40.167 0.833008 -61.5 1.5s-41.833 1.16699 -61.5 1.5s-34.5 0.166016 -44.5 -0.500977l-63 -248c-2 -5.33301 -5.66699 -9.16602 -11 -11.499s-10.5 -2.83301 -15.5 -1.5s-9.16699 4.16602 -12.5 8.49902
s-4.33301 10.5 -3 18.5zM124.001 302.002c9.33301 0.666992 22.668 0.832031 40.001 0.499023s35.5 -0.833008 54.5 -1.5s37.167 -1.16699 54.5 -1.5s30.666 -0.166016 39.999 0.500977l-100 340zM220.003 740c-2.66699 -5.33301 -6.66699 -8.83496 -12 -10.502
s-10.333 -1.66699 -15 0s-8.16699 4.83398 -10.5 9.50098s-1.83301 10.667 1.5 18l31 65c2 4.66699 5.66699 7.33398 11 8.00098s10.5 0 15.5 -2s8.66699 -5.33301 11 -10s1.83301 -10 -1.5 -16z" />
    <glyph glyph-name="Acircumflex" unicode="&#xc2;" horiz-adv-x="446" 
d="M180 679c0.666992 8 4.16797 14.335 10.501 19.002s13.166 7.16699 20.499 7.5s14.333 -1.5 21 -5.5s11 -10.333 13 -19l191 -659c0.666992 -6.66699 -0.833008 -12 -4.5 -16s-8.16699 -6.66699 -13.5 -8s-10.5 -0.833008 -15.5 1.5s-7.83301 6.5 -8.5 12.5l-69 245
c-10 -0.666992 -24.833 -0.833984 -44.5 -0.500977s-40.167 0.833008 -61.5 1.5s-41.833 1.16699 -61.5 1.5s-34.5 0.166016 -44.5 -0.500977l-63 -248c-2 -5.33301 -5.66699 -9.16602 -11 -11.499s-10.5 -2.83301 -15.5 -1.5s-9.16699 4.16602 -12.5 8.49902
s-4.33301 10.5 -3 18.5zM124.001 302.002c9.33301 0.666992 22.668 0.832031 40.001 0.499023s35.5 -0.833008 54.5 -1.5s37.167 -1.16699 54.5 -1.5s30.666 -0.166016 39.999 0.500977l-100 340zM189.003 817c4 6.66699 8.66699 11.334 14 14.001s10.666 3.66699 15.999 3
s10.333 -2.5 15 -5.5s8 -6.83301 10 -11.5l31 -65c2 -4 1.66699 -8.16699 -1 -12.5s-6.16699 -7.5 -10.5 -9.5s-8.83301 -2.83301 -13.5 -2.5s-8.33398 2.83301 -11.001 7.5l-23 45l-22 -46c-3.33301 -6 -7.66602 -9.33301 -12.999 -10s-10.333 0.333008 -15 3
s-8.16699 6.16699 -10.5 10.5s-2.16602 9.16602 0.500977 14.499z" />
    <glyph glyph-name="Atilde" unicode="&#xc3;" horiz-adv-x="446" 
d="M180 679c0.666992 8 4.16797 14.335 10.501 19.002s13.166 7.16699 20.499 7.5s14.333 -1.5 21 -5.5s11 -10.333 13 -19l191 -659c0.666992 -6.66699 -0.833008 -12 -4.5 -16s-8.16699 -6.66699 -13.5 -8s-10.5 -0.833008 -15.5 1.5s-7.83301 6.5 -8.5 12.5l-69 245
c-10 -0.666992 -24.833 -0.833984 -44.5 -0.500977s-40.167 0.833008 -61.5 1.5s-41.833 1.16699 -61.5 1.5s-34.5 0.166016 -44.5 -0.500977l-63 -248c-2 -5.33301 -5.66699 -9.16602 -11 -11.499s-10.5 -2.83301 -15.5 -1.5s-9.16699 4.16602 -12.5 8.49902
s-4.33301 10.5 -3 18.5zM124.001 302.002c9.33301 0.666992 22.668 0.832031 40.001 0.499023s35.5 -0.833008 54.5 -1.5s37.167 -1.16699 54.5 -1.5s30.666 -0.166016 39.999 0.500977l-100 340zM133.003 747c-0.666992 -5.33301 -2.99902 -9.5 -6.99902 -12.5
s-8.16699 -4.66699 -12.5 -5s-8.66602 0.833984 -12.999 3.50098s-6.83301 7 -7.5 13c2 19.333 10 36.333 24 51s30 22.667 48 24c12 0.666992 23.167 -1.66602 33.5 -6.99902s20 -11.5 29 -18.5l24.5 -19c7.33301 -5.66699 14.333 -8.16699 21 -7.5
c19.333 2 32.666 15.667 39.999 41c2 6 5.16699 9.83301 9.5 11.5s8.66602 1.66699 12.999 0s7.83301 -4.83398 10.5 -9.50098s3.66699 -10 3 -16c-2.66699 -15.333 -10.667 -30 -24 -44s-29 -21.667 -47 -23c-14 -0.666992 -25.833 1.5 -35.5 6.5s-18.667 10.833 -27 17.5
s-16.333 12.667 -24 18s-15.834 7.66602 -24.501 6.99902c-11.333 -0.666992 -18.666 -4 -21.999 -10z" />
    <glyph glyph-name="Adieresis" unicode="&#xc4;" horiz-adv-x="446" 
d="M180 679c0.666992 8 4.16797 14.335 10.501 19.002s13.166 7.16699 20.499 7.5s14.333 -1.5 21 -5.5s11 -10.333 13 -19l191 -659c0.666992 -6.66699 -0.833008 -12 -4.5 -16s-8.16699 -6.66699 -13.5 -8s-10.5 -0.833008 -15.5 1.5s-7.83301 6.5 -8.5 12.5l-69 245
c-10 -0.666992 -24.833 -0.833984 -44.5 -0.500977s-40.167 0.833008 -61.5 1.5s-41.833 1.16699 -61.5 1.5s-34.5 0.166016 -44.5 -0.500977l-63 -248c-2 -5.33301 -5.66699 -9.16602 -11 -11.499s-10.5 -2.83301 -15.5 -1.5s-9.16699 4.16602 -12.5 8.49902
s-4.33301 10.5 -3 18.5zM124.001 302.002c9.33301 0.666992 22.668 0.832031 40.001 0.499023s35.5 -0.833008 54.5 -1.5s37.167 -1.16699 54.5 -1.5s30.666 -0.166016 39.999 0.500977l-100 340zM142.003 758c0 7.33301 2.66699 13.666 8 18.999s11.666 8 18.999 8
s13.666 -2.66699 18.999 -8s8 -11.666 8 -18.999s-2.66699 -13.666 -8 -18.999s-11.666 -8 -18.999 -8s-13.666 2.66699 -18.999 8s-8 11.666 -8 18.999zM226.003 758c0 7.33301 2.66699 13.666 8 18.999s11.666 8 18.999 8s13.666 -2.66699 18.999 -8s8 -11.666 8 -18.999
s-2.66699 -13.666 -8 -18.999s-11.666 -8 -18.999 -8s-13.666 2.66699 -18.999 8s-8 11.666 -8 18.999z" />
    <glyph glyph-name="Aring" unicode="&#xc5;" horiz-adv-x="446" 
d="M180 679c0.666992 8 4.16797 14.335 10.501 19.002s13.166 7.16699 20.499 7.5s14.333 -1.5 21 -5.5s11 -10.333 13 -19l191 -659c0.666992 -6.66699 -0.833008 -12 -4.5 -16s-8.16699 -6.66699 -13.5 -8s-10.5 -0.833008 -15.5 1.5s-7.83301 6.5 -8.5 12.5l-69 245
c-10 -0.666992 -24.833 -0.833984 -44.5 -0.500977s-40.167 0.833008 -61.5 1.5s-41.833 1.16699 -61.5 1.5s-34.5 0.166016 -44.5 -0.500977l-63 -248c-2 -5.33301 -5.66699 -9.16602 -11 -11.499s-10.5 -2.83301 -15.5 -1.5s-9.16699 4.16602 -12.5 8.49902
s-4.33301 10.5 -3 18.5zM124.001 302.002c9.33301 0.666992 22.668 0.832031 40.001 0.499023s35.5 -0.833008 54.5 -1.5s37.167 -1.16699 54.5 -1.5s30.666 -0.166016 39.999 0.500977l-100 340zM202.003 786c0 -5.33301 1.83301 -9.66602 5.5 -12.999s8.16699 -5 13.5 -5
s9.66602 1.66699 12.999 5s5 7.66602 5 12.999s-1.66699 9.83301 -5 13.5s-7.66602 5.5 -12.999 5.5c-12.667 0 -19 -6.33301 -19 -19zM173.003 786c0 14 4.83301 25.833 14.5 35.5s21.167 14.5 34.5 14.5c14 0 25.833 -4.83301 35.5 -14.5s14.5 -21.5 14.5 -35.5
c0 -13.333 -4.83301 -24.833 -14.5 -34.5s-21.5 -14.5 -35.5 -14.5c-13.333 0 -24.833 4.83301 -34.5 14.5s-14.5 21.167 -14.5 34.5z" />
    <glyph glyph-name="AE" unicode="&#xc6;" horiz-adv-x="583" 
d="M557 703c6.66699 -1.33301 11.4941 -4.33203 14.4941 -8.99902s4.16699 -9.33398 3.5 -14.001s-3.16699 -8.83398 -7.5 -12.501s-9.83301 -5.16699 -16.5 -4.5h-220v-1l-2 -3c-2 -28 -3.16699 -55.333 -3.5 -82s-0.333008 -53 0 -79s1 -52.167 2 -78.5
s1.83301 -53.5 2.5 -81.5c5.33301 0 18 0.166992 38 0.5s41.5 0.666016 64.5 0.999023s44.5 0.666016 64.5 0.999023s32.667 0.5 38 0.5c6 -1.33301 10.5 -3.83301 13.5 -7.5s4.5 -7.66699 4.5 -12s-1.5 -8.33301 -4.5 -12s-7.16699 -6.5 -12.5 -8.5
c-5.33301 0 -18.166 -0.166992 -38.499 -0.5s-42 -0.666016 -65 -0.999023s-44.5 -0.666016 -64.5 -0.999023s-32.667 -0.5 -38 -0.5c0 -31.333 -0.166992 -58.333 -0.5 -81s-0.5 -43.5 -0.5 -62.5s0.166992 -37.167 0.5 -54.5s0.5 -36 0.5 -56
c10.667 -0.666992 26.5 -1.16699 47.5 -1.5s43.167 -0.5 66.5 -0.5s45.5 0.166992 66.5 0.5s36.833 0.833008 47.5 1.5c3.33301 0 6.33301 -1.66699 9 -5s4.33398 -7.33301 5.00098 -12s0 -9.16699 -2 -13.5s-5.66699 -7.5 -11 -9.5c-6.66699 -0.666992 -16.667 -1 -30 -1
s-28.166 -0.166992 -44.499 -0.5s-33.666 -0.5 -51.999 -0.5h-52c-16.333 0 -31 0.166992 -44 0.5s-22.833 0.833008 -29.5 1.5c-5.33301 0.666992 -9.33301 4 -12 10s-4.33398 13 -5.00098 21s-0.833984 16.167 -0.500977 24.5s0.5 14.5 0.5 18.5
c0 5.33301 -0.166992 14.833 -0.5 28.5s-0.666016 30 -0.999023 49s-0.666016 40.167 -0.999023 63.5s-0.5 48 -0.5 74c-19.333 -0.666992 -39.166 -0.666992 -59.499 0s-38.166 0.333984 -53.499 -0.999023l-121 -285c-2.66699 -5.33301 -6.83398 -9 -12.501 -11
s-11 -2.33301 -16 -1s-9.16699 4.33301 -12.5 9s-4 10.667 -2 18l275 649c2.66699 10.667 9.33398 18.167 20.001 22.5s21 6.83301 31 7.5zM285.994 339.001c-0.666992 39.333 -1.16797 77.832 -1.50098 115.499s-0.166016 71.834 0.500977 102.501l-97 -221z" />
    <glyph glyph-name="Ccedilla" unicode="&#xc7;" horiz-adv-x="340" 
d="M312 675c8.66699 -4.66699 14.333 -10.334 17 -17.001s3.33398 -12.667 2.00098 -18s-4.5 -9.5 -9.5 -12.5s-10.833 -2.83301 -17.5 0.5c-11.333 9.33301 -24 16 -38 20s-27 5.33301 -39 4c-29.333 -2.66699 -54.666 -12.667 -75.999 -30
s-39.166 -40.666 -53.499 -69.999s-25.333 -64 -33 -104s-11.834 -84 -12.501 -132c-0.666992 -35.333 2.83301 -70 10.5 -104s18.667 -64.167 33 -90.5s31.833 -47.666 52.5 -63.999s43.667 -24.5 69 -24.5c13.333 0 26.666 3 39.999 9s27.666 14.667 42.999 26
c4.66699 4 9.33398 5.33301 14.001 4s8.5 -4 11.5 -8s4.33301 -9 4 -15s-3.16602 -11.333 -8.49902 -16c-36.667 -27.333 -72.334 -41 -107.001 -41s-64.834 9.16699 -90.501 27.5s-47 42.666 -64 72.999s-29.833 65 -38.5 104s-13.334 79.5 -14.001 121.5
c-0.666992 46.667 3.83301 92.667 13.5 138s24.334 85.833 44.001 121.5s44 64.334 73 86.001s62.5 31.834 100.5 30.501c12.667 -0.666992 25.167 -2.33398 37.5 -5.00098s24.5 -7.33398 36.5 -14.001zM188.999 -4c0.666992 6 2.66504 10.668 5.99805 14.001
s7 5.16602 11 5.49902s7.66699 -0.833984 11 -3.50098s6 -7 8 -13c0.666992 -4.66699 1 -7.33398 1 -8.00098v-1.5c0 -0.333008 -0.166992 -1 -0.5 -2s-0.5 -3.83301 -0.5 -8.5h1c16.667 -4 28.834 -12.167 36.501 -24.5s10.667 -25.333 9 -39s-8.16699 -25.667 -19.5 -36
s-27.333 -15.166 -48 -14.499c-4.66699 0 -8.33398 2 -11.001 6s-4.16699 8.16699 -4.5 12.5s0.5 8.33301 2.5 12s5.33301 5.16699 10 4.5c8.66699 -1.33301 15.834 0.333984 21.501 5.00098s9.16699 10.334 10.5 17.001s0 13.167 -4 19.5s-11 10.166 -21 11.499
c-9.33301 -0.666992 -14.666 0.5 -15.999 3.5s-2.66602 8.16699 -3.99902 15.5c0 4.66699 0.166992 7.66699 0.5 9s0.666016 2.33301 0.999023 3s0.5 1.66699 0.5 3s-0.333008 4.33301 -1 9z" />
    <glyph glyph-name="Egrave" unicode="&#xc8;" horiz-adv-x="316" 
d="M290 703c6.66699 -1.33301 11.5 -4.33008 14.5 -8.99707s4.16699 -9.33398 3.5 -14.001s-3.16699 -8.83398 -7.5 -12.501s-9.83301 -5.16699 -16.5 -4.5h-221c-2.66699 -28.667 -4.16699 -56.334 -4.5 -83.001s-0.333008 -53.167 0 -79.5s1 -52.833 2 -79.5
s1.83301 -54.334 2.5 -83.001c5.33301 0 18 0.166992 38 0.5s41.5 0.666016 64.5 0.999023s44.5 0.666016 64.5 0.999023s32.667 0.5 38 0.5c6 -1.33301 10.5 -3.83301 13.5 -7.5s4.5 -7.66699 4.5 -12s-1.5 -8.33301 -4.5 -12s-7.16699 -6.5 -12.5 -8.5
c-5.33301 0 -18.166 -0.166992 -38.499 -0.5s-42 -0.666016 -65 -0.999023s-44.5 -0.666016 -64.5 -0.999023s-32.667 -0.5 -38 -0.5c0 -31.333 -0.166992 -58.333 -0.5 -81s-0.5 -43.5 -0.5 -62.5s0.166992 -37.167 0.5 -54.5s0.5 -36 0.5 -56
c10.667 -0.666992 26.5 -1.16699 47.5 -1.5s43.167 -0.5 66.5 -0.5s45.5 0.166992 66.5 0.5s36.833 0.833008 47.5 1.5c3.33301 0 6.33301 -1.66699 9 -5s4.33398 -7.33301 5.00098 -12s0 -9.16699 -2 -13.5s-5.66699 -7.5 -11 -9.5c-6.66699 -0.666992 -16.667 -1 -30 -1
s-28.166 -0.166992 -44.499 -0.5s-33.666 -0.5 -51.999 -0.5h-52c-16.333 0 -31 0.166992 -44 0.5s-22.833 0.833008 -29.5 1.5c-5.33301 0.666992 -9.33301 4 -12 10s-4.33398 13 -5.00098 21s-0.833984 16.167 -0.500977 24.5s0.5 14.5 0.5 18.5
c0 9.33301 -0.166992 28.166 -0.5 56.499s-0.833008 61.833 -1.5 100.5s-1.33398 79.834 -2.00098 123.501s-1 85.167 -1 124.5s0.166992 74 0.5 104s1.16602 51 2.49902 63c1.33301 18 4.83301 30.833 10.5 38.5s18.167 11.834 37.5 12.501zM125 802.003
c-3.33301 6 -3.83301 11.335 -1.5 16.002s6 8 11 10s10.167 2.66699 15.5 2s9 -3.33398 11 -8.00098l31 -65c3.33301 -7.33301 3.83301 -13.333 1.5 -18s-5.83301 -7.83398 -10.5 -9.50098s-9.66699 -1.66699 -15 0s-9.33301 5.16699 -12 10.5l-31 62v0z" />
    <glyph glyph-name="Eacute" unicode="&#xc9;" horiz-adv-x="316" 
d="M290 703c6.66699 -1.33301 11.5 -4.33008 14.5 -8.99707s4.16699 -9.33398 3.5 -14.001s-3.16699 -8.83398 -7.5 -12.501s-9.83301 -5.16699 -16.5 -4.5h-221c-2.66699 -28.667 -4.16699 -56.334 -4.5 -83.001s-0.333008 -53.167 0 -79.5s1 -52.833 2 -79.5
s1.83301 -54.334 2.5 -83.001c5.33301 0 18 0.166992 38 0.5s41.5 0.666016 64.5 0.999023s44.5 0.666016 64.5 0.999023s32.667 0.5 38 0.5c6 -1.33301 10.5 -3.83301 13.5 -7.5s4.5 -7.66699 4.5 -12s-1.5 -8.33301 -4.5 -12s-7.16699 -6.5 -12.5 -8.5
c-5.33301 0 -18.166 -0.166992 -38.499 -0.5s-42 -0.666016 -65 -0.999023s-44.5 -0.666016 -64.5 -0.999023s-32.667 -0.5 -38 -0.5c0 -31.333 -0.166992 -58.333 -0.5 -81s-0.5 -43.5 -0.5 -62.5s0.166992 -37.167 0.5 -54.5s0.5 -36 0.5 -56
c10.667 -0.666992 26.5 -1.16699 47.5 -1.5s43.167 -0.5 66.5 -0.5s45.5 0.166992 66.5 0.5s36.833 0.833008 47.5 1.5c3.33301 0 6.33301 -1.66699 9 -5s4.33398 -7.33301 5.00098 -12s0 -9.16699 -2 -13.5s-5.66699 -7.5 -11 -9.5c-6.66699 -0.666992 -16.667 -1 -30 -1
s-28.166 -0.166992 -44.499 -0.5s-33.666 -0.5 -51.999 -0.5h-52c-16.333 0 -31 0.166992 -44 0.5s-22.833 0.833008 -29.5 1.5c-5.33301 0.666992 -9.33301 4 -12 10s-4.33398 13 -5.00098 21s-0.833984 16.167 -0.500977 24.5s0.5 14.5 0.5 18.5
c0 9.33301 -0.166992 28.166 -0.5 56.499s-0.833008 61.833 -1.5 100.5s-1.33398 79.834 -2.00098 123.501s-1 85.167 -1 124.5s0.166992 74 0.5 104s1.16602 51 2.49902 63c1.33301 18 4.83301 30.833 10.5 38.5s18.167 11.834 37.5 12.501zM160 740.003
c-2.66699 -5.33301 -6.66699 -8.83496 -12 -10.502s-10.333 -1.66699 -15 0s-8.16699 4.83398 -10.5 9.50098s-1.83301 10.667 1.5 18l31 65c2 4.66699 5.66699 7.33398 11 8.00098s10.5 0 15.5 -2s8.66699 -5.33301 11 -10s1.83301 -10 -1.5 -16z" />
    <glyph glyph-name="Ecircumflex" unicode="&#xca;" horiz-adv-x="316" 
d="M290 703c6.66699 -1.33301 11.5 -4.33008 14.5 -8.99707s4.16699 -9.33398 3.5 -14.001s-3.16699 -8.83398 -7.5 -12.501s-9.83301 -5.16699 -16.5 -4.5h-221c-2.66699 -28.667 -4.16699 -56.334 -4.5 -83.001s-0.333008 -53.167 0 -79.5s1 -52.833 2 -79.5
s1.83301 -54.334 2.5 -83.001c5.33301 0 18 0.166992 38 0.5s41.5 0.666016 64.5 0.999023s44.5 0.666016 64.5 0.999023s32.667 0.5 38 0.5c6 -1.33301 10.5 -3.83301 13.5 -7.5s4.5 -7.66699 4.5 -12s-1.5 -8.33301 -4.5 -12s-7.16699 -6.5 -12.5 -8.5
c-5.33301 0 -18.166 -0.166992 -38.499 -0.5s-42 -0.666016 -65 -0.999023s-44.5 -0.666016 -64.5 -0.999023s-32.667 -0.5 -38 -0.5c0 -31.333 -0.166992 -58.333 -0.5 -81s-0.5 -43.5 -0.5 -62.5s0.166992 -37.167 0.5 -54.5s0.5 -36 0.5 -56
c10.667 -0.666992 26.5 -1.16699 47.5 -1.5s43.167 -0.5 66.5 -0.5s45.5 0.166992 66.5 0.5s36.833 0.833008 47.5 1.5c3.33301 0 6.33301 -1.66699 9 -5s4.33398 -7.33301 5.00098 -12s0 -9.16699 -2 -13.5s-5.66699 -7.5 -11 -9.5c-6.66699 -0.666992 -16.667 -1 -30 -1
s-28.166 -0.166992 -44.499 -0.5s-33.666 -0.5 -51.999 -0.5h-52c-16.333 0 -31 0.166992 -44 0.5s-22.833 0.833008 -29.5 1.5c-5.33301 0.666992 -9.33301 4 -12 10s-4.33398 13 -5.00098 21s-0.833984 16.167 -0.500977 24.5s0.5 14.5 0.5 18.5
c0 9.33301 -0.166992 28.166 -0.5 56.499s-0.833008 61.833 -1.5 100.5s-1.33398 79.834 -2.00098 123.501s-1 85.167 -1 124.5s0.166992 74 0.5 104s1.16602 51 2.49902 63c1.33301 18 4.83301 30.833 10.5 38.5s18.167 11.834 37.5 12.501zM133 822.003
c4 6.66699 8.66699 11.334 14 14.001s10.666 3.66699 15.999 3s10.333 -2.5 15 -5.5s8 -6.83301 10 -11.5l31 -65c2 -4 1.66699 -8.16699 -1 -12.5s-6.16699 -7.5 -10.5 -9.5s-8.83301 -2.83301 -13.5 -2.5s-8.33398 2.83301 -11.001 7.5l-23 45l-22 -46
c-3.33301 -6 -7.66602 -9.33301 -12.999 -10s-10.333 0.333008 -15 3s-8.16699 6.16699 -10.5 10.5s-2.16602 9.16602 0.500977 14.499z" />
    <glyph glyph-name="Edieresis" unicode="&#xcb;" horiz-adv-x="316" 
d="M290 703c6.66699 -1.33301 11.5 -4.33008 14.5 -8.99707s4.16699 -9.33398 3.5 -14.001s-3.16699 -8.83398 -7.5 -12.501s-9.83301 -5.16699 -16.5 -4.5h-221c-2.66699 -28.667 -4.16699 -56.334 -4.5 -83.001s-0.333008 -53.167 0 -79.5s1 -52.833 2 -79.5
s1.83301 -54.334 2.5 -83.001c5.33301 0 18 0.166992 38 0.5s41.5 0.666016 64.5 0.999023s44.5 0.666016 64.5 0.999023s32.667 0.5 38 0.5c6 -1.33301 10.5 -3.83301 13.5 -7.5s4.5 -7.66699 4.5 -12s-1.5 -8.33301 -4.5 -12s-7.16699 -6.5 -12.5 -8.5
c-5.33301 0 -18.166 -0.166992 -38.499 -0.5s-42 -0.666016 -65 -0.999023s-44.5 -0.666016 -64.5 -0.999023s-32.667 -0.5 -38 -0.5c0 -31.333 -0.166992 -58.333 -0.5 -81s-0.5 -43.5 -0.5 -62.5s0.166992 -37.167 0.5 -54.5s0.5 -36 0.5 -56
c10.667 -0.666992 26.5 -1.16699 47.5 -1.5s43.167 -0.5 66.5 -0.5s45.5 0.166992 66.5 0.5s36.833 0.833008 47.5 1.5c3.33301 0 6.33301 -1.66699 9 -5s4.33398 -7.33301 5.00098 -12s0 -9.16699 -2 -13.5s-5.66699 -7.5 -11 -9.5c-6.66699 -0.666992 -16.667 -1 -30 -1
s-28.166 -0.166992 -44.499 -0.5s-33.666 -0.5 -51.999 -0.5h-52c-16.333 0 -31 0.166992 -44 0.5s-22.833 0.833008 -29.5 1.5c-5.33301 0.666992 -9.33301 4 -12 10s-4.33398 13 -5.00098 21s-0.833984 16.167 -0.500977 24.5s0.5 14.5 0.5 18.5
c0 9.33301 -0.166992 28.166 -0.5 56.499s-0.833008 61.833 -1.5 100.5s-1.33398 79.834 -2.00098 123.501s-1 85.167 -1 124.5s0.166992 74 0.5 104s1.16602 51 2.49902 63c1.33301 18 4.83301 30.833 10.5 38.5s18.167 11.834 37.5 12.501zM89 761.003
c0 7.33301 2.66699 13.666 8 18.999s11.666 8 18.999 8s13.666 -2.66699 18.999 -8s8 -11.666 8 -18.999s-2.66699 -13.666 -8 -18.999s-11.666 -8 -18.999 -8s-13.666 2.66699 -18.999 8s-8 11.666 -8 18.999zM173 761.003c0 7.33301 2.66699 13.666 8 18.999
s11.666 8 18.999 8s13.666 -2.66699 18.999 -8s8 -11.666 8 -18.999s-2.66699 -13.666 -8 -18.999s-11.666 -8 -18.999 -8s-13.666 2.66699 -18.999 8s-8 11.666 -8 18.999z" />
    <glyph glyph-name="Igrave" unicode="&#xcc;" horiz-adv-x="357" 
d="M343 700c4.66699 0 8.16895 -2.16699 10.502 -6.5s3.33301 -9 3 -14s-1.83301 -9.5 -4.5 -13.5s-6.66699 -6 -12 -6l-145 -1v-618l145 1c4.66699 0 8.16699 -2.16699 10.5 -6.5s3.33301 -9 3 -14s-1.83301 -9.5 -4.5 -13.5s-6.66699 -6 -12 -6l-321 -1
c-5.33301 2 -9.33301 5.33301 -12 10s-3.83398 9.33398 -3.50098 14.001s2 8.66699 5 12s7.5 4.66602 13.5 3.99902h136v618h-136c-5.33301 2 -9.33301 5.33301 -12 10s-3.83398 9.33398 -3.50098 14.001s2 8.66699 5 12s7.5 4.66602 13.5 3.99902zM145.002 802
c-3.33301 6 -3.83301 11.335 -1.5 16.002s6 8 11 10s10.167 2.66699 15.5 2s9 -3.33398 11 -8.00098l31 -65c3.33301 -7.33301 3.83301 -13.333 1.5 -18s-5.83301 -7.83398 -10.5 -9.50098s-9.66699 -1.66699 -15 0s-9.33301 5.16699 -12 10.5l-31 62v0z" />
    <glyph glyph-name="Iacute" unicode="&#xcd;" horiz-adv-x="357" 
d="M343 700c4.66699 0 8.16895 -2.16699 10.502 -6.5s3.33301 -9 3 -14s-1.83301 -9.5 -4.5 -13.5s-6.66699 -6 -12 -6l-145 -1v-618l145 1c4.66699 0 8.16699 -2.16699 10.5 -6.5s3.33301 -9 3 -14s-1.83301 -9.5 -4.5 -13.5s-6.66699 -6 -12 -6l-321 -1
c-5.33301 2 -9.33301 5.33301 -12 10s-3.83398 9.33398 -3.50098 14.001s2 8.66699 5 12s7.5 4.66602 13.5 3.99902h136v618h-136c-5.33301 2 -9.33301 5.33301 -12 10s-3.83398 9.33398 -3.50098 14.001s2 8.66699 5 12s7.5 4.66602 13.5 3.99902zM180.002 740
c-2.66699 -5.33301 -6.66699 -8.83496 -12 -10.502s-10.333 -1.66699 -15 0s-8.16699 4.83398 -10.5 9.50098s-1.83301 10.667 1.5 18l31 65c2 4.66699 5.66699 7.33398 11 8.00098s10.5 0 15.5 -2s8.66699 -5.33301 11 -10s1.83301 -10 -1.5 -16z" />
    <glyph glyph-name="Icircumflex" unicode="&#xce;" horiz-adv-x="357" 
d="M343 700c4.66699 0 8.16895 -2.16699 10.502 -6.5s3.33301 -9 3 -14s-1.83301 -9.5 -4.5 -13.5s-6.66699 -6 -12 -6l-145 -1v-618l145 1c4.66699 0 8.16699 -2.16699 10.5 -6.5s3.33301 -9 3 -14s-1.83301 -9.5 -4.5 -13.5s-6.66699 -6 -12 -6l-321 -1
c-5.33301 2 -9.33301 5.33301 -12 10s-3.83398 9.33398 -3.50098 14.001s2 8.66699 5 12s7.5 4.66602 13.5 3.99902h136v618h-136c-5.33301 2 -9.33301 5.33301 -12 10s-3.83398 9.33398 -3.50098 14.001s2 8.66699 5 12s7.5 4.66602 13.5 3.99902zM154.002 822
c4 6.66699 8.66699 11.334 14 14.001s10.666 3.66699 15.999 3s10.333 -2.5 15 -5.5s8 -6.83301 10 -11.5l31 -65c2 -4 1.66699 -8.16699 -1 -12.5s-6.16699 -7.5 -10.5 -9.5s-8.83301 -2.83301 -13.5 -2.5s-8.33398 2.83301 -11.001 7.5l-23 45l-22 -46
c-3.33301 -6 -7.66602 -9.33301 -12.999 -10s-10.333 0.333008 -15 3s-8.16699 6.16699 -10.5 10.5s-2.16602 9.16602 0.500977 14.499z" />
    <glyph glyph-name="Idieresis" unicode="&#xcf;" horiz-adv-x="357" 
d="M343 700c4.66699 0 8.16895 -2.16699 10.502 -6.5s3.33301 -9 3 -14s-1.83301 -9.5 -4.5 -13.5s-6.66699 -6 -12 -6l-145 -1v-618l145 1c4.66699 0 8.16699 -2.16699 10.5 -6.5s3.33301 -9 3 -14s-1.83301 -9.5 -4.5 -13.5s-6.66699 -6 -12 -6l-321 -1
c-5.33301 2 -9.33301 5.33301 -12 10s-3.83398 9.33398 -3.50098 14.001s2 8.66699 5 12s7.5 4.66602 13.5 3.99902h136v618h-136c-5.33301 2 -9.33301 5.33301 -12 10s-3.83398 9.33398 -3.50098 14.001s2 8.66699 5 12s7.5 4.66602 13.5 3.99902zM109.002 761
c0 7.33301 2.66699 13.666 8 18.999s11.666 8 18.999 8s13.666 -2.66699 18.999 -8s8 -11.666 8 -18.999s-2.66699 -13.666 -8 -18.999s-11.666 -8 -18.999 -8s-13.666 2.66699 -18.999 8s-8 11.666 -8 18.999zM193.002 761c0 7.33301 2.66699 13.666 8 18.999
s11.666 8 18.999 8s13.666 -2.66699 18.999 -8s8 -11.666 8 -18.999s-2.66699 -13.666 -8 -18.999s-11.666 -8 -18.999 -8s-13.666 2.66699 -18.999 8s-8 11.666 -8 18.999z" />
    <glyph glyph-name="Eth" unicode="&#xd0;" horiz-adv-x="319" 
d="M9 356v310c2 13.333 5.33301 21.5 10 24.5s14 5.83301 28 8.5c39.333 -2 75.5 -12.833 108.5 -32.5s61.333 -45.5 85 -77.5s42 -69 55 -111s19.167 -86.333 18.5 -133c-1.33301 -68 -10 -123.333 -26 -166s-36.167 -76.5 -60.5 -101.5s-51.833 -43 -82.5 -54
s-61 -18.833 -91 -23.5c-18.667 -3.33301 -30.167 -2.5 -34.5 2.5s-6.83301 10.5 -7.5 16.5zM57 347l0.000976562 -302.001c8.66699 -0.666992 20 0.166016 34 2.49902s28.833 7.33301 44.5 15s31.5 18.334 47.5 32.001s30.5 31.5 43.5 53.5s23.333 48.333 31 79
s11.5 67 11.5 109c-0.666992 47.333 -7.16699 90.5 -19.5 129.5s-28.5 72.333 -48.5 100s-42.833 49.334 -68.5 65.001s-51.834 24.167 -78.501 25.5zM174.001 369.999c4.66699 0 8.16797 -2.16699 10.501 -6.5s3.33301 -9 3 -14s-1.83301 -9.5 -4.5 -13.5
s-6.66699 -6 -12 -6l-185 -1c-5.33301 2 -9.33301 5.33301 -12 10s-3.83398 9.33398 -3.50098 14.001s2 8.66699 5 12s7.5 4.66602 13.5 3.99902z" />
    <glyph glyph-name="Ntilde" unicode="&#xd1;" horiz-adv-x="515" 
d="M12 679c-0.666992 8.66699 0.833984 15.165 4.50098 19.498s8.16699 6.83301 13.5 7.5s10.833 -0.166016 16.5 -2.49902s10.167 -5.83301 13.5 -10.5l397 -611l5 592c-2 8 -0.833008 14.333 3.5 19s9.16602 7.5 14.499 8.5s10.5 -0.166992 15.5 -3.5
s7.5 -9.66602 7.5 -18.999v-663c-0.666992 -8 -3 -13.833 -7 -17.5s-9 -5.5 -15 -5.5s-12.167 1.83301 -18.5 5.5s-11.833 9.5 -16.5 17.5l-394 613l8 -617c-0.666992 -5.33301 -3.66699 -9.5 -9 -12.5s-11 -4.33301 -17 -4s-11.333 2.5 -16 6.5s-6.66699 10.667 -6 20v657z
M167.001 746.998c-0.666992 -5.33301 -2.99902 -9.5 -6.99902 -12.5s-8.16699 -4.66699 -12.5 -5s-8.66602 0.833984 -12.999 3.50098s-6.83301 7 -7.5 13c2 19.333 10 36.333 24 51s30 22.667 48 24c12 0.666992 23.167 -1.66602 33.5 -6.99902s20 -11.5 29 -18.5l24.5 -19
c7.33301 -5.66699 14.333 -8.16699 21 -7.5c19.333 2 32.666 15.667 39.999 41c2 6 5.16699 9.83301 9.5 11.5s8.66602 1.66699 12.999 0s7.83301 -4.83398 10.5 -9.50098s3.66699 -10 3 -16c-2.66699 -15.333 -10.667 -30 -24 -44s-29 -21.667 -47 -23
c-14 -0.666992 -25.833 1.5 -35.5 6.5s-18.667 10.833 -27 17.5s-16.333 12.667 -24 18s-15.834 7.66602 -24.501 6.99902c-11.333 -0.666992 -18.666 -4 -21.999 -10z" />
    <glyph glyph-name="Ograve" unicode="&#xd2;" horiz-adv-x="387" 
d="M370 331c-2 -47.333 -7.16797 -91.0029 -15.501 -131.003s-20.166 -74.667 -35.499 -104s-34.5 -52.666 -57.5 -69.999s-50.167 -26.666 -81.5 -27.999c-54 -2 -96.167 26.667 -126.5 86s-44.5 144 -42.5 254c0.666992 42 4.5 84.333 11.5 127s18 81.334 33 116.001
s34.5 63.167 58.5 85.5s53.667 34.166 89 35.499c28.667 0.666992 53.834 -9 75.501 -29s39.667 -47.167 54 -81.5s24.666 -74.166 30.999 -119.499s8.5 -92.333 6.5 -141zM326.999 333.997c0.666992 46.667 -1.66895 90.002 -7.00195 130.002s-13.5 74.5 -24.5 103.5
s-24.333 51.5 -40 67.5s-33.167 23.667 -52.5 23s-36.5 -6.33398 -51.5 -17.001s-28 -24.667 -39 -42s-20.167 -37.166 -27.5 -59.499s-13.166 -45.166 -17.499 -68.499s-7.66602 -46.666 -9.99902 -69.999s-3.5 -44.333 -3.5 -63
c-1.33301 -92.667 9.16699 -165.334 31.5 -218.001s54.5 -79.334 96.5 -80.001c22 0 41.833 6.66699 59.5 20s32.667 32.666 45 57.999s21.833 56.166 28.5 92.499s10.667 77.5 12 123.5zM159.996 801.999c-3.33301 6 -3.83301 11.335 -1.5 16.002s6 8 11 10
s10.167 2.66699 15.5 2s9 -3.33398 11 -8.00098l31 -65c3.33301 -7.33301 3.83301 -13.333 1.5 -18s-5.83301 -7.83398 -10.5 -9.50098s-9.66699 -1.66699 -15 0s-9.33301 5.16699 -12 10.5l-31 62v0z" />
    <glyph glyph-name="Oacute" unicode="&#xd3;" horiz-adv-x="387" 
d="M370 331c-2 -47.333 -7.16797 -91.0029 -15.501 -131.003s-20.166 -74.667 -35.499 -104s-34.5 -52.666 -57.5 -69.999s-50.167 -26.666 -81.5 -27.999c-54 -2 -96.167 26.667 -126.5 86s-44.5 144 -42.5 254c0.666992 42 4.5 84.333 11.5 127s18 81.334 33 116.001
s34.5 63.167 58.5 85.5s53.667 34.166 89 35.499c28.667 0.666992 53.834 -9 75.501 -29s39.667 -47.167 54 -81.5s24.666 -74.166 30.999 -119.499s8.5 -92.333 6.5 -141zM326.999 333.997c0.666992 46.667 -1.66895 90.002 -7.00195 130.002s-13.5 74.5 -24.5 103.5
s-24.333 51.5 -40 67.5s-33.167 23.667 -52.5 23s-36.5 -6.33398 -51.5 -17.001s-28 -24.667 -39 -42s-20.167 -37.166 -27.5 -59.499s-13.166 -45.166 -17.499 -68.499s-7.66602 -46.666 -9.99902 -69.999s-3.5 -44.333 -3.5 -63
c-1.33301 -92.667 9.16699 -165.334 31.5 -218.001s54.5 -79.334 96.5 -80.001c22 0 41.833 6.66699 59.5 20s32.667 32.666 45 57.999s21.833 56.166 28.5 92.499s10.667 77.5 12 123.5zM194.996 739.999c-2.66699 -5.33301 -6.66699 -8.83496 -12 -10.502
s-10.333 -1.66699 -15 0s-8.16699 4.83398 -10.5 9.50098s-1.83301 10.667 1.5 18l31 65c2 4.66699 5.66699 7.33398 11 8.00098s10.5 0 15.5 -2s8.66699 -5.33301 11 -10s1.83301 -10 -1.5 -16z" />
    <glyph glyph-name="Ocircumflex" unicode="&#xd4;" horiz-adv-x="387" 
d="M370 331c-2 -47.333 -7.16797 -91.0029 -15.501 -131.003s-20.166 -74.667 -35.499 -104s-34.5 -52.666 -57.5 -69.999s-50.167 -26.666 -81.5 -27.999c-54 -2 -96.167 26.667 -126.5 86s-44.5 144 -42.5 254c0.666992 42 4.5 84.333 11.5 127s18 81.334 33 116.001
s34.5 63.167 58.5 85.5s53.667 34.166 89 35.499c28.667 0.666992 53.834 -9 75.501 -29s39.667 -47.167 54 -81.5s24.666 -74.166 30.999 -119.499s8.5 -92.333 6.5 -141zM326.999 333.997c0.666992 46.667 -1.66895 90.002 -7.00195 130.002s-13.5 74.5 -24.5 103.5
s-24.333 51.5 -40 67.5s-33.167 23.667 -52.5 23s-36.5 -6.33398 -51.5 -17.001s-28 -24.667 -39 -42s-20.167 -37.166 -27.5 -59.499s-13.166 -45.166 -17.499 -68.499s-7.66602 -46.666 -9.99902 -69.999s-3.5 -44.333 -3.5 -63
c-1.33301 -92.667 9.16699 -165.334 31.5 -218.001s54.5 -79.334 96.5 -80.001c22 0 41.833 6.66699 59.5 20s32.667 32.666 45 57.999s21.833 56.166 28.5 92.499s10.667 77.5 12 123.5zM168.996 821.999c4 6.66699 8.66699 11.334 14 14.001s10.666 3.66699 15.999 3
s10.333 -2.5 15 -5.5s8 -6.83301 10 -11.5l31 -65c2 -4 1.66699 -8.16699 -1 -12.5s-6.16699 -7.5 -10.5 -9.5s-8.83301 -2.83301 -13.5 -2.5s-8.33398 2.83301 -11.001 7.5l-23 45l-22 -46c-3.33301 -6 -7.66602 -9.33301 -12.999 -10s-10.333 0.333008 -15 3
s-8.16699 6.16699 -10.5 10.5s-2.16602 9.16602 0.500977 14.499z" />
    <glyph glyph-name="Otilde" unicode="&#xd5;" horiz-adv-x="387" 
d="M370 331c-2 -47.333 -7.16797 -91.0029 -15.501 -131.003s-20.166 -74.667 -35.499 -104s-34.5 -52.666 -57.5 -69.999s-50.167 -26.666 -81.5 -27.999c-54 -2 -96.167 26.667 -126.5 86s-44.5 144 -42.5 254c0.666992 42 4.5 84.333 11.5 127s18 81.334 33 116.001
s34.5 63.167 58.5 85.5s53.667 34.166 89 35.499c28.667 0.666992 53.834 -9 75.501 -29s39.667 -47.167 54 -81.5s24.666 -74.166 30.999 -119.499s8.5 -92.333 6.5 -141zM326.999 333.997c0.666992 46.667 -1.66895 90.002 -7.00195 130.002s-13.5 74.5 -24.5 103.5
s-24.333 51.5 -40 67.5s-33.167 23.667 -52.5 23s-36.5 -6.33398 -51.5 -17.001s-28 -24.667 -39 -42s-20.167 -37.166 -27.5 -59.499s-13.166 -45.166 -17.499 -68.499s-7.66602 -46.666 -9.99902 -69.999s-3.5 -44.333 -3.5 -63
c-1.33301 -92.667 9.16699 -165.334 31.5 -218.001s54.5 -79.334 96.5 -80.001c22 0 41.833 6.66699 59.5 20s32.667 32.666 45 57.999s21.833 56.166 28.5 92.499s10.667 77.5 12 123.5zM102.996 746.999c-0.666992 -5.33301 -2.99902 -9.5 -6.99902 -12.5
s-8.16699 -4.66699 -12.5 -5s-8.66602 0.833984 -12.999 3.50098s-6.83301 7 -7.5 13c2 19.333 10 36.333 24 51s30 22.667 48 24c12 0.666992 23.167 -1.66602 33.5 -6.99902s20 -11.5 29 -18.5l24.5 -19c7.33301 -5.66699 14.333 -8.16699 21 -7.5
c19.333 2 32.666 15.667 39.999 41c2 6 5.16699 9.83301 9.5 11.5s8.66602 1.66699 12.999 0s7.83301 -4.83398 10.5 -9.50098s3.66699 -10 3 -16c-2.66699 -15.333 -10.667 -30 -24 -44s-29 -21.667 -47 -23c-14 -0.666992 -25.833 1.5 -35.5 6.5s-18.667 10.833 -27 17.5
s-16.333 12.667 -24 18s-15.834 7.66602 -24.501 6.99902c-11.333 -0.666992 -18.666 -4 -21.999 -10z" />
    <glyph glyph-name="Odieresis" unicode="&#xd6;" horiz-adv-x="387" 
d="M370 331c-2 -47.333 -7.16797 -91.0029 -15.501 -131.003s-20.166 -74.667 -35.499 -104s-34.5 -52.666 -57.5 -69.999s-50.167 -26.666 -81.5 -27.999c-54 -2 -96.167 26.667 -126.5 86s-44.5 144 -42.5 254c0.666992 42 4.5 84.333 11.5 127s18 81.334 33 116.001
s34.5 63.167 58.5 85.5s53.667 34.166 89 35.499c28.667 0.666992 53.834 -9 75.501 -29s39.667 -47.167 54 -81.5s24.666 -74.166 30.999 -119.499s8.5 -92.333 6.5 -141zM326.999 333.997c0.666992 46.667 -1.66895 90.002 -7.00195 130.002s-13.5 74.5 -24.5 103.5
s-24.333 51.5 -40 67.5s-33.167 23.667 -52.5 23s-36.5 -6.33398 -51.5 -17.001s-28 -24.667 -39 -42s-20.167 -37.166 -27.5 -59.499s-13.166 -45.166 -17.499 -68.499s-7.66602 -46.666 -9.99902 -69.999s-3.5 -44.333 -3.5 -63
c-1.33301 -92.667 9.16699 -165.334 31.5 -218.001s54.5 -79.334 96.5 -80.001c22 0 41.833 6.66699 59.5 20s32.667 32.666 45 57.999s21.833 56.166 28.5 92.499s10.667 77.5 12 123.5zM123.996 760.999c0 7.33301 2.66699 13.666 8 18.999s11.666 8 18.999 8
s13.666 -2.66699 18.999 -8s8 -11.666 8 -18.999s-2.66699 -13.666 -8 -18.999s-11.666 -8 -18.999 -8s-13.666 2.66699 -18.999 8s-8 11.666 -8 18.999zM207.996 760.999c0 7.33301 2.66699 13.666 8 18.999s11.666 8 18.999 8s13.666 -2.66699 18.999 -8
s8 -11.666 8 -18.999s-2.66699 -13.666 -8 -18.999s-11.666 -8 -18.999 -8s-13.666 2.66699 -18.999 8s-8 11.666 -8 18.999z" />
    <glyph glyph-name="multiply" unicode="&#xd7;" horiz-adv-x="214" 
d="M133 339l55.001 -53.0029c2.66699 -3.33301 3.33398 -7.33301 2.00098 -12s-3.83301 -8.83398 -7.5 -12.501s-7.83398 -6 -12.501 -7s-9 0.5 -13 4.5l-52 51l-50 -51c-3.33301 -3.33301 -7.16602 -4.16602 -11.499 -2.49902s-8.33301 4.33398 -12 8.00098
s-6 7.83398 -7 12.501s0.5 9 4.5 13l48 49l-51 50c-2.66699 5.33301 -3.33398 10.666 -2.00098 15.999s3.83301 9.5 7.5 12.5s7.66699 4.5 12 4.5s8.5 -2 12.5 -6l49 -49l54 54c5.33301 2 10.5 2.33301 15.5 1s9 -3.66602 12 -6.99902s4.66699 -7.16602 5 -11.499
s-1.83398 -8.5 -6.50098 -12.5z" />
    <glyph glyph-name="Oslash" unicode="&#xd8;" horiz-adv-x="387" 
d="M370 331c-2 -47.333 -7.16797 -91.0029 -15.501 -131.003s-20.166 -74.667 -35.499 -104s-34.5 -52.666 -57.5 -69.999s-50.167 -26.666 -81.5 -27.999c-54 -2 -96.167 26.667 -126.5 86s-44.5 144 -42.5 254c0.666992 42 4.5 84.333 11.5 127s18 81.334 33 116.001
s34.5 63.167 58.5 85.5s53.667 34.166 89 35.499c28.667 0.666992 53.834 -9 75.501 -29s39.667 -47.167 54 -81.5s24.666 -74.166 30.999 -119.499s8.5 -92.333 6.5 -141zM326.999 333.997c0.666992 46.667 -1.66895 90.002 -7.00195 130.002s-13.5 74.5 -24.5 103.5
s-24.333 51.5 -40 67.5s-33.167 23.667 -52.5 23s-36.5 -6.33398 -51.5 -17.001s-28 -24.667 -39 -42s-20.167 -37.166 -27.5 -59.499s-13.166 -45.166 -17.499 -68.499s-7.66602 -46.666 -9.99902 -69.999s-3.5 -44.333 -3.5 -63
c-1.33301 -92.667 9.16699 -165.334 31.5 -218.001s54.5 -79.334 96.5 -80.001c22 0 41.833 6.66699 59.5 20s32.667 32.666 45 57.999s21.833 56.166 28.5 92.499s10.667 77.5 12 123.5zM316.996 692.999c2 4 5.33105 6.16797 9.99805 6.50098s9.33398 -0.666992 14.001 -3
s8.33398 -5.5 11.001 -9.5s2.66699 -8.33301 0 -13l-282 -670c-4 -4 -8.66699 -6.33301 -14 -7s-10 0 -14 2s-6.83301 5.16699 -8.5 9.5s-1.16699 9.16602 1.5 14.499z" />
    <glyph glyph-name="Ugrave" unicode="&#xd9;" horiz-adv-x="427" 
d="M13 680c0 6.66699 2.49805 11.665 7.49805 14.998s10.5 4.83301 16.5 4.5s11.167 -2.33301 15.5 -6s6.16602 -9.16699 5.49902 -16.5c0 -69.333 1 -135.666 3 -198.999s5.66699 -121.333 11 -174c4 -38.667 9.5 -73.667 16.5 -105s15.667 -58.333 26 -81
s22.5 -40.167 36.5 -52.5s30.333 -18.5 49 -18.5c22 0 41.333 6.83301 58 20.5s31 32.334 43 56.001s21.833 51.167 29.5 82.5s14.167 64.333 19.5 99c5.33301 37.333 9.5 75.166 12.5 113.499s5.33301 74.5 7 108.5s2.83398 64.833 3.50098 92.5
s1.33398 49.167 2.00098 64.5c-0.666992 6.66699 1.16602 11.5 5.49902 14.5s9.16602 4.5 14.499 4.5s10.333 -1.5 15 -4.5s7 -7.5 7 -13.5c-0.666992 -30 -1.5 -61.667 -2.5 -95s-2.5 -66.833 -4.5 -100.5s-4.33301 -67 -7 -100s-6 -64.5 -10 -94.5
c-6 -42 -13.667 -81 -23 -117s-21.666 -67.167 -36.999 -93.5s-34.166 -46.833 -56.499 -61.5s-48.833 -21.667 -79.5 -21c-26 0.666992 -48.5 8.16699 -67.5 22.5s-35.167 34.333 -48.5 60s-24.166 56.334 -32.499 92.001s-14.833 74.5 -19.5 116.5
c-6.66699 57.333 -10.667 119 -12 185zM179.998 801.998c-3.33301 6 -3.83301 11.335 -1.5 16.002s6 8 11 10s10.167 2.66699 15.5 2s9 -3.33398 11 -8.00098l31 -65c3.33301 -7.33301 3.83301 -13.333 1.5 -18s-5.83301 -7.83398 -10.5 -9.50098s-9.66699 -1.66699 -15 0
s-9.33301 5.16699 -12 10.5l-31 62v0z" />
    <glyph glyph-name="Uacute" unicode="&#xda;" horiz-adv-x="427" 
d="M13 680c0 6.66699 2.49805 11.665 7.49805 14.998s10.5 4.83301 16.5 4.5s11.167 -2.33301 15.5 -6s6.16602 -9.16699 5.49902 -16.5c0 -69.333 1 -135.666 3 -198.999s5.66699 -121.333 11 -174c4 -38.667 9.5 -73.667 16.5 -105s15.667 -58.333 26 -81
s22.5 -40.167 36.5 -52.5s30.333 -18.5 49 -18.5c22 0 41.333 6.83301 58 20.5s31 32.334 43 56.001s21.833 51.167 29.5 82.5s14.167 64.333 19.5 99c5.33301 37.333 9.5 75.166 12.5 113.499s5.33301 74.5 7 108.5s2.83398 64.833 3.50098 92.5
s1.33398 49.167 2.00098 64.5c-0.666992 6.66699 1.16602 11.5 5.49902 14.5s9.16602 4.5 14.499 4.5s10.333 -1.5 15 -4.5s7 -7.5 7 -13.5c-0.666992 -30 -1.5 -61.667 -2.5 -95s-2.5 -66.833 -4.5 -100.5s-4.33301 -67 -7 -100s-6 -64.5 -10 -94.5
c-6 -42 -13.667 -81 -23 -117s-21.666 -67.167 -36.999 -93.5s-34.166 -46.833 -56.499 -61.5s-48.833 -21.667 -79.5 -21c-26 0.666992 -48.5 8.16699 -67.5 22.5s-35.167 34.333 -48.5 60s-24.166 56.334 -32.499 92.001s-14.833 74.5 -19.5 116.5
c-6.66699 57.333 -10.667 119 -12 185zM214.998 739.998c-2.66699 -5.33301 -6.66699 -8.83496 -12 -10.502s-10.333 -1.66699 -15 0s-8.16699 4.83398 -10.5 9.50098s-1.83301 10.667 1.5 18l31 65c2 4.66699 5.66699 7.33398 11 8.00098s10.5 0 15.5 -2
s8.66699 -5.33301 11 -10s1.83301 -10 -1.5 -16z" />
    <glyph glyph-name="Ucircumflex" unicode="&#xdb;" horiz-adv-x="427" 
d="M13 680c0 6.66699 2.49805 11.665 7.49805 14.998s10.5 4.83301 16.5 4.5s11.167 -2.33301 15.5 -6s6.16602 -9.16699 5.49902 -16.5c0 -69.333 1 -135.666 3 -198.999s5.66699 -121.333 11 -174c4 -38.667 9.5 -73.667 16.5 -105s15.667 -58.333 26 -81
s22.5 -40.167 36.5 -52.5s30.333 -18.5 49 -18.5c22 0 41.333 6.83301 58 20.5s31 32.334 43 56.001s21.833 51.167 29.5 82.5s14.167 64.333 19.5 99c5.33301 37.333 9.5 75.166 12.5 113.499s5.33301 74.5 7 108.5s2.83398 64.833 3.50098 92.5
s1.33398 49.167 2.00098 64.5c-0.666992 6.66699 1.16602 11.5 5.49902 14.5s9.16602 4.5 14.499 4.5s10.333 -1.5 15 -4.5s7 -7.5 7 -13.5c-0.666992 -30 -1.5 -61.667 -2.5 -95s-2.5 -66.833 -4.5 -100.5s-4.33301 -67 -7 -100s-6 -64.5 -10 -94.5
c-6 -42 -13.667 -81 -23 -117s-21.666 -67.167 -36.999 -93.5s-34.166 -46.833 -56.499 -61.5s-48.833 -21.667 -79.5 -21c-26 0.666992 -48.5 8.16699 -67.5 22.5s-35.167 34.333 -48.5 60s-24.166 56.334 -32.499 92.001s-14.833 74.5 -19.5 116.5
c-6.66699 57.333 -10.667 119 -12 185zM188.998 821.998c4 6.66699 8.66699 11.334 14 14.001s10.666 3.66699 15.999 3s10.333 -2.5 15 -5.5s8 -6.83301 10 -11.5l31 -65c2 -4 1.66699 -8.16699 -1 -12.5s-6.16699 -7.5 -10.5 -9.5s-8.83301 -2.83301 -13.5 -2.5
s-8.33398 2.83301 -11.001 7.5l-23 45l-22 -46c-3.33301 -6 -7.66602 -9.33301 -12.999 -10s-10.333 0.333008 -15 3s-8.16699 6.16699 -10.5 10.5s-2.16602 9.16602 0.500977 14.499z" />
    <glyph glyph-name="Udieresis" unicode="&#xdc;" horiz-adv-x="427" 
d="M13 680c0 6.66699 2.49805 11.665 7.49805 14.998s10.5 4.83301 16.5 4.5s11.167 -2.33301 15.5 -6s6.16602 -9.16699 5.49902 -16.5c0 -69.333 1 -135.666 3 -198.999s5.66699 -121.333 11 -174c4 -38.667 9.5 -73.667 16.5 -105s15.667 -58.333 26 -81
s22.5 -40.167 36.5 -52.5s30.333 -18.5 49 -18.5c22 0 41.333 6.83301 58 20.5s31 32.334 43 56.001s21.833 51.167 29.5 82.5s14.167 64.333 19.5 99c5.33301 37.333 9.5 75.166 12.5 113.499s5.33301 74.5 7 108.5s2.83398 64.833 3.50098 92.5
s1.33398 49.167 2.00098 64.5c-0.666992 6.66699 1.16602 11.5 5.49902 14.5s9.16602 4.5 14.499 4.5s10.333 -1.5 15 -4.5s7 -7.5 7 -13.5c-0.666992 -30 -1.5 -61.667 -2.5 -95s-2.5 -66.833 -4.5 -100.5s-4.33301 -67 -7 -100s-6 -64.5 -10 -94.5
c-6 -42 -13.667 -81 -23 -117s-21.666 -67.167 -36.999 -93.5s-34.166 -46.833 -56.499 -61.5s-48.833 -21.667 -79.5 -21c-26 0.666992 -48.5 8.16699 -67.5 22.5s-35.167 34.333 -48.5 60s-24.166 56.334 -32.499 92.001s-14.833 74.5 -19.5 116.5
c-6.66699 57.333 -10.667 119 -12 185zM143.998 760.998c0 7.33301 2.66699 13.666 8 18.999s11.666 8 18.999 8s13.666 -2.66699 18.999 -8s8 -11.666 8 -18.999s-2.66699 -13.666 -8 -18.999s-11.666 -8 -18.999 -8s-13.666 2.66699 -18.999 8s-8 11.666 -8 18.999z
M227.998 760.998c0 7.33301 2.66699 13.666 8 18.999s11.666 8 18.999 8s13.666 -2.66699 18.999 -8s8 -11.666 8 -18.999s-2.66699 -13.666 -8 -18.999s-11.666 -8 -18.999 -8s-13.666 2.66699 -18.999 8s-8 11.666 -8 18.999z" />
    <glyph glyph-name="Yacute" unicode="&#xdd;" horiz-adv-x="493" 
d="M210 343l-211 334.001c-1.33301 6 -0.333008 11 3 15s7.5 6.83301 12.5 8.5s9.83301 1.83398 14.5 0.500977s8 -4 10 -8l191 -294l215 292c4.66699 7.33301 10.167 11.666 16.5 12.999s11.833 0.666016 16.5 -2.00098s8 -6.66699 10 -12s1 -11 -3 -17l-232 -325v-336
c0.666992 -4.66699 -1.16602 -8 -5.49902 -10s-9.33301 -2.66699 -15 -2s-10.834 2.16699 -15.501 4.5s-6.66699 5.83301 -6 10.5zM248 740.001c-2.66699 -5.33301 -6.66699 -8.83496 -12 -10.502s-10.333 -1.66699 -15 0s-8.16699 4.83398 -10.5 9.50098
s-1.83301 10.667 1.5 18l31 65c2 4.66699 5.66699 7.33398 11 8.00098s10.5 0 15.5 -2s8.66699 -5.33301 11 -10s1.83301 -10 -1.5 -16z" />
    <glyph glyph-name="Thorn" unicode="&#xde;" horiz-adv-x="295" 
d="M15 675c-1.33301 6.66699 -0.333984 11.8359 2.99902 15.5029s7.5 5.66699 12.5 6s9.66699 -1 14 -4s6.5 -7.16699 6.5 -12.5l1 -139c21.333 0 44.166 -3.33301 68.499 -10s47.333 -16.334 69 -29.001s40.5 -28.334 56.5 -47.001s26.667 -40.334 32 -65.001
c8.66699 -42.667 8.83398 -80.5 0.500977 -113.5s-22.833 -60.833 -43.5 -83.5s-45.667 -39.667 -75 -51s-60.666 -16.666 -93.999 -15.999h-4v-1c0 -0.666992 -0.166992 -7.33398 -0.5 -20.001s-0.5 -26.5 -0.5 -41.5s-0.166992 -28.833 -0.5 -41.5
s-0.833008 -19.334 -1.5 -20.001c-2 -3.33301 -5 -6.16602 -9 -8.49902s-8.16699 -3.5 -12.5 -3.5s-8.33301 1.33301 -12 4s-5.83398 7.33398 -6.50098 14.001c0 59.333 -0.333008 118.666 -1 177.999l-2 174.5c-0.666992 57 -1.16699 112 -1.5 165
s-0.166016 102.833 0.500977 149.5zM56.999 501.002c0.666992 -29.333 1.16797 -57.501 1.50098 -84.501s0.833008 -53.667 1.5 -80s1.16699 -53.166 1.5 -80.499s0.5 -55.666 0.5 -84.999c27.333 -6 53.166 -4.33301 77.499 5s44.833 23.5 61.5 42.5s28.667 41.833 36 68.5
s7.66602 55 0.999023 85c-6 26 -16.167 47.167 -30.5 63.5s-30.166 29.166 -47.499 38.499s-35.333 15.833 -54 19.5s-35 6.16699 -49 7.5z" />
    <glyph glyph-name="germandbls" unicode="&#xdf;" horiz-adv-x="297" 
d="M110 660l-23.001 -4.00586c-7.33301 -1.33301 -13.5 -4 -18.5 -8s-9 -9.5 -12 -16.5s-4.5 -16.5 -4.5 -28.5c0 -35.333 0.166992 -74.333 0.5 -117s0.833008 -86 1.5 -130l2 -130c0.666992 -42.667 1.33398 -81.167 2.00098 -115.5s1.33398 -62.833 2.00098 -85.5
s1.33398 -36.667 2.00098 -42v-1c-2 -5.33301 -5.33301 -9.33301 -10 -12s-9.16699 -4 -13.5 -4s-8.5 1.66699 -12.5 5s-6.33301 8 -7 14l-4 310.5l-4 300.5c0 9.33301 0.666992 19.833 2 31.5s5 22.667 11 33s15.167 19.166 27.5 26.499s29.166 11.333 50.499 12
c20 0.666992 39.5 -1.83301 58.5 -7.5s35.833 -14.5 50.5 -26.5s26.167 -27 34.5 -45s11.833 -39 10.5 -63c-1.33301 -21.333 -7 -41.333 -17 -60s-22.167 -35.167 -36.5 -49.5s-29.333 -26.666 -45 -36.999s-29.5 -17.5 -41.5 -21.5c44.667 -9.33301 81 -26.333 109 -51
s45.667 -55 53 -91c8 -38.667 8.66699 -73.5 2 -104.5s-18.5 -57.667 -35.5 -80s-38 -40.166 -63 -53.499s-52.167 -21.666 -81.5 -24.999c-8.66699 2.66699 -13 8.83398 -13 18.501s3.66699 17.167 11 22.5c23.333 0.666992 44.833 6.83398 64.5 18.501
s36.167 26.834 49.5 45.501s22.5 40 27.5 64s4.5 49.333 -1.5 76c-5.33301 23.333 -13.166 42.666 -23.499 57.999s-22 27.666 -35 36.999s-26.833 16.333 -41.5 21s-29.334 8 -44.001 10c-5.33301 1.33301 -9.33301 4.83301 -12 10.5s-4.16699 11.667 -4.5 18
s0.166992 12.5 1.5 18.5s4 10.333 8 13c12 4.66699 25.167 11.334 39.5 20.001s27.833 19 40.5 31s23.5 25 32.5 39s14.167 28.333 15.5 43c2 18.667 0.5 34.834 -4.5 48.501s-12.333 25.167 -22 34.5s-21.334 16.333 -35.001 21s-28.167 7.33398 -43.5 8.00098z" />
    <glyph glyph-name="agrave" unicode="&#xe0;" horiz-adv-x="271" 
d="M104 679c0.666992 8 4.50098 14 11.501 18s14.5 6 22.5 6s15.167 -1.83301 21.5 -5.5s9.5 -9.16699 9.5 -16.5l90 -667c0.666992 -6.66699 -0.833008 -12 -4.5 -16s-8 -6.66699 -13 -8s-9.83301 -0.833008 -14.5 1.5s-7.33398 6.5 -8.00098 12.5l-37 243
c-10 -0.666992 -18.5 -1 -25.5 -1s-13.667 0.333008 -20 1s-13 1 -20 1s-15.5 -0.333008 -25.5 -1l-34 -242c-2 -5.33301 -5.66699 -9.16602 -11 -11.499s-10.5 -2.83301 -15.5 -1.5s-9.16699 4.16602 -12.5 8.49902s-4.33301 10.5 -3 18.5zM95.001 290
c9.33301 0.666992 17.167 1 23.5 1s12.333 -0.333008 18 -1s11.5 -1 17.5 -1s13.667 0.333008 23 1l-42 350zM112.002 799c-3.33301 6 -3.83301 11.335 -1.5 16.002s6 8 11 10s10.167 2.66699 15.5 2s9 -3.33398 11 -8.00098l31 -65
c3.33301 -7.33301 3.83301 -13.333 1.5 -18s-5.83301 -7.83398 -10.5 -9.50098s-9.66699 -1.66699 -15 0s-9.33301 5.16699 -12 10.5l-31 62v0z" />
    <glyph glyph-name="aacute" unicode="&#xe1;" horiz-adv-x="271" 
d="M104 679c0.666992 8 4.50098 14 11.501 18s14.5 6 22.5 6s15.167 -1.83301 21.5 -5.5s9.5 -9.16699 9.5 -16.5l90 -667c0.666992 -6.66699 -0.833008 -12 -4.5 -16s-8 -6.66699 -13 -8s-9.83301 -0.833008 -14.5 1.5s-7.33398 6.5 -8.00098 12.5l-37 243
c-10 -0.666992 -18.5 -1 -25.5 -1s-13.667 0.333008 -20 1s-13 1 -20 1s-15.5 -0.333008 -25.5 -1l-34 -242c-2 -5.33301 -5.66699 -9.16602 -11 -11.499s-10.5 -2.83301 -15.5 -1.5s-9.16699 4.16602 -12.5 8.49902s-4.33301 10.5 -3 18.5zM95.001 290
c9.33301 0.666992 17.167 1 23.5 1s12.333 -0.333008 18 -1s11.5 -1 17.5 -1s13.667 0.333008 23 1l-42 350zM145.002 733c-2.66699 -5.33301 -6.66699 -8.83496 -12 -10.502s-10.333 -1.66699 -15 0s-8.16699 4.83398 -10.5 9.50098s-1.83301 10.667 1.5 18l31 65
c2 4.66699 5.66699 7.33398 11 8.00098s10.5 0 15.5 -2s8.66699 -5.33301 11 -10s1.83301 -10 -1.5 -16z" />
    <glyph glyph-name="acircumflex" unicode="&#xe2;" horiz-adv-x="271" 
d="M104 679c0.666992 8 4.50098 14 11.501 18s14.5 6 22.5 6s15.167 -1.83301 21.5 -5.5s9.5 -9.16699 9.5 -16.5l90 -667c0.666992 -6.66699 -0.833008 -12 -4.5 -16s-8 -6.66699 -13 -8s-9.83301 -0.833008 -14.5 1.5s-7.33398 6.5 -8.00098 12.5l-37 243
c-10 -0.666992 -18.5 -1 -25.5 -1s-13.667 0.333008 -20 1s-13 1 -20 1s-15.5 -0.333008 -25.5 -1l-34 -242c-2 -5.33301 -5.66699 -9.16602 -11 -11.499s-10.5 -2.83301 -15.5 -1.5s-9.16699 4.16602 -12.5 8.49902s-4.33301 10.5 -3 18.5zM95.001 290
c9.33301 0.666992 17.167 1 23.5 1s12.333 -0.333008 18 -1s11.5 -1 17.5 -1s13.667 0.333008 23 1l-42 350zM111.002 800c4 6.66699 8.66699 11.334 14 14.001s10.666 3.66699 15.999 3s10.333 -2.5 15 -5.5s8 -6.83301 10 -11.5l31 -65c2 -4 1.66699 -8.16699 -1 -12.5
s-6.16699 -7.5 -10.5 -9.5s-8.83301 -2.83301 -13.5 -2.5s-8.33398 2.83301 -11.001 7.5l-23 45l-22 -46c-3.33301 -6 -7.66602 -9.33301 -12.999 -10s-10.333 0.333008 -15 3s-8.16699 6.16699 -10.5 10.5s-2.16602 9.16602 0.500977 14.499z" />
    <glyph glyph-name="atilde" unicode="&#xe3;" horiz-adv-x="271" 
d="M104 679c0.666992 8 4.50098 14 11.501 18s14.5 6 22.5 6s15.167 -1.83301 21.5 -5.5s9.5 -9.16699 9.5 -16.5l90 -667c0.666992 -6.66699 -0.833008 -12 -4.5 -16s-8 -6.66699 -13 -8s-9.83301 -0.833008 -14.5 1.5s-7.33398 6.5 -8.00098 12.5l-37 243
c-10 -0.666992 -18.5 -1 -25.5 -1s-13.667 0.333008 -20 1s-13 1 -20 1s-15.5 -0.333008 -25.5 -1l-34 -242c-2 -5.33301 -5.66699 -9.16602 -11 -11.499s-10.5 -2.83301 -15.5 -1.5s-9.16699 4.16602 -12.5 8.49902s-4.33301 10.5 -3 18.5zM95.001 290
c9.33301 0.666992 17.167 1 23.5 1s12.333 -0.333008 18 -1s11.5 -1 17.5 -1s13.667 0.333008 23 1l-42 350zM47.002 725c-0.666992 -5.33301 -2.99902 -9.5 -6.99902 -12.5s-8.16699 -4.66699 -12.5 -5s-8.66602 0.833984 -12.999 3.50098s-6.83301 7 -7.5 13
c2 19.333 10 36.333 24 51s30 22.667 48 24c12 0.666992 23.167 -1.66602 33.5 -6.99902s20 -11.5 29 -18.5l24.5 -19c7.33301 -5.66699 14.333 -8.16699 21 -7.5c19.333 2 32.666 15.667 39.999 41c2 6 5.16699 9.83301 9.5 11.5s8.66602 1.66699 12.999 0
s7.83301 -4.83398 10.5 -9.50098s3.66699 -10 3 -16c-2.66699 -15.333 -10.667 -30 -24 -44s-29 -21.667 -47 -23c-14 -0.666992 -25.833 1.5 -35.5 6.5s-18.667 10.833 -27 17.5s-16.333 12.667 -24 18s-15.834 7.66602 -24.501 6.99902
c-11.333 -0.666992 -18.666 -4 -21.999 -10z" />
    <glyph glyph-name="adieresis" unicode="&#xe4;" horiz-adv-x="271" 
d="M104 679c0.666992 8 4.50098 14 11.501 18s14.5 6 22.5 6s15.167 -1.83301 21.5 -5.5s9.5 -9.16699 9.5 -16.5l90 -667c0.666992 -6.66699 -0.833008 -12 -4.5 -16s-8 -6.66699 -13 -8s-9.83301 -0.833008 -14.5 1.5s-7.33398 6.5 -8.00098 12.5l-37 243
c-10 -0.666992 -18.5 -1 -25.5 -1s-13.667 0.333008 -20 1s-13 1 -20 1s-15.5 -0.333008 -25.5 -1l-34 -242c-2 -5.33301 -5.66699 -9.16602 -11 -11.499s-10.5 -2.83301 -15.5 -1.5s-9.16699 4.16602 -12.5 8.49902s-4.33301 10.5 -3 18.5zM95.001 290
c9.33301 0.666992 17.167 1 23.5 1s12.333 -0.333008 18 -1s11.5 -1 17.5 -1s13.667 0.333008 23 1l-42 350zM66.002 739c0 7.33301 2.66699 13.666 8 18.999s11.666 8 18.999 8s13.666 -2.66699 18.999 -8s8 -11.666 8 -18.999s-2.66699 -13.666 -8 -18.999
s-11.666 -8 -18.999 -8s-13.666 2.66699 -18.999 8s-8 11.666 -8 18.999zM150.002 739c0 7.33301 2.66699 13.666 8 18.999s11.666 8 18.999 8s13.666 -2.66699 18.999 -8s8 -11.666 8 -18.999s-2.66699 -13.666 -8 -18.999s-11.666 -8 -18.999 -8
s-13.666 2.66699 -18.999 8s-8 11.666 -8 18.999z" />
    <glyph glyph-name="aring" unicode="&#xe5;" horiz-adv-x="271" 
d="M104 679c0.666992 8 4.50098 14 11.501 18s14.5 6 22.5 6s15.167 -1.83301 21.5 -5.5s9.5 -9.16699 9.5 -16.5l90 -667c0.666992 -6.66699 -0.833008 -12 -4.5 -16s-8 -6.66699 -13 -8s-9.83301 -0.833008 -14.5 1.5s-7.33398 6.5 -8.00098 12.5l-37 243
c-10 -0.666992 -18.5 -1 -25.5 -1s-13.667 0.333008 -20 1s-13 1 -20 1s-15.5 -0.333008 -25.5 -1l-34 -242c-2 -5.33301 -5.66699 -9.16602 -11 -11.499s-10.5 -2.83301 -15.5 -1.5s-9.16699 4.16602 -12.5 8.49902s-4.33301 10.5 -3 18.5zM95.001 290
c9.33301 0.666992 17.167 1 23.5 1s12.333 -0.333008 18 -1s11.5 -1 17.5 -1s13.667 0.333008 23 1l-42 350zM115.002 764c0 -5.33301 1.83301 -9.66602 5.5 -12.999s8.16699 -5 13.5 -5s9.66602 1.66699 12.999 5s5 7.66602 5 12.999s-1.66699 9.83301 -5 13.5
s-7.66602 5.5 -12.999 5.5c-12.667 0 -19 -6.33301 -19 -19zM86.002 764c0 14 4.83301 25.833 14.5 35.5s21.167 14.5 34.5 14.5c14 0 25.833 -4.83301 35.5 -14.5s14.5 -21.5 14.5 -35.5c0 -13.333 -4.83301 -24.833 -14.5 -34.5s-21.5 -14.5 -35.5 -14.5
c-13.333 0 -24.833 4.83301 -34.5 14.5s-14.5 21.167 -14.5 34.5z" />
    <glyph glyph-name="ae" unicode="&#xe6;" horiz-adv-x="350" 
d="M323 703c6.66699 -1.33301 11.4971 -4.33203 14.4971 -8.99902s4.16699 -9.33398 3.5 -14.001s-3.16699 -8.83398 -7.5 -12.501s-9.83301 -5.16699 -16.5 -4.5h-109v-331c11.333 0 23.5 0.333008 36.5 1s25.167 1 36.5 1c6 -1.33301 10.5 -3.83301 13.5 -7.5
s4.5 -7.66699 4.5 -12s-1.5 -8.33301 -4.5 -12s-7.16699 -6.5 -12.5 -8.5c-11.333 0 -23.666 -0.333008 -36.999 -1s-25.666 -1 -36.999 -1c0 -31.333 -0.166992 -58 -0.5 -80s-0.5 -42 -0.5 -60s0.166992 -35.5 0.5 -52.5s0.5 -35.5 0.5 -55.5l115 -3
c3.33301 0 6.33301 -1.66699 9 -5s4.33398 -7.33301 5.00098 -12s0 -9.16699 -2 -13.5s-5.66699 -7.5 -11 -9.5c-10 -0.666992 -21.167 -1.16699 -33.5 -1.5l-38 -1c-13 -0.333008 -25.5 -0.333008 -37.5 0s-23 0.833008 -33 1.5
c-5.33301 0.666992 -9.33301 4.33398 -12 11.001s-4.33398 14.167 -5.00098 22.5s-0.833984 16.833 -0.500977 25.5s0.5 15 0.5 19l3 212c-9.33301 0 -17.666 0.333008 -24.999 1s-17.666 0.333984 -30.999 -0.999023l-59 -283c-2.66699 -5.33301 -6.66699 -9 -12 -11
s-10.5 -2.5 -15.5 -1.5s-9 3.66699 -12 8s-3.5 10.166 -1.5 17.499l140 660c1.33301 6.66699 4.33301 11.5 9 14.5s10 5 16 6s12.333 1.33301 19 1s12.667 -0.5 18 -0.5zM167.997 331.001c0 42.667 0.667969 86.332 2.00098 130.999s1.66602 85.334 0.999023 122.001
l-51 -253h48z" />
    <glyph glyph-name="ccedilla" unicode="&#xe7;" horiz-adv-x="210" 
d="M204 526c0 -4.66699 -1.83691 -8.32812 -5.50391 -10.9951s-7.83398 -4 -12.501 -4s-9 1.33301 -13 4s-6 7.33398 -6 14.001c-1.33301 13.333 -2.33301 27.833 -3 43.5s-2.16699 30.167 -4.5 43.5s-5.83301 24.333 -10.5 33s-11.334 13 -20.001 13
c-12 0 -22.167 -6 -30.5 -18s-15.166 -27.333 -20.499 -46s-9.5 -39.334 -12.5 -62.001s-5.33301 -44.667 -7 -66s-2.83398 -40.5 -3.50098 -57.5s-1 -29.5 -1 -37.5c-0.666992 -19.333 -0.5 -41 0.5 -65s2.66699 -48.333 5 -73s5.5 -48.667 9.5 -72s8.66699 -44 14 -62
s11.333 -32.333 18 -43s14 -15.667 22 -15c10.667 0.666992 18.5 8 23.5 22s8.33301 30.833 10 50.5s2.5 40.5 2.5 62.5s0.666992 41.667 2 59c0.666992 6.66699 3.16699 11.667 7.5 15s8.83301 4.66602 13.5 3.99902s8.83398 -2.83398 12.501 -6.50098
s5.83398 -8.83398 6.50098 -15.501c0 -28.667 -0.333008 -57.167 -1 -85.5s-3.5 -53.666 -8.5 -75.999s-13 -40.5 -24 -54.5s-26.833 -20.667 -47.5 -20c-18 0.666992 -33.167 8.66699 -45.5 24s-22.666 35 -30.999 59s-14.666 50.5 -18.999 79.5s-7.5 57.667 -9.5 86
s-3.16699 54.666 -3.5 78.999s-0.166016 43.5 0.500977 57.5c0.666992 11.333 1.16699 27.333 1.5 48s1.5 42.834 3.5 66.501s5.33301 47.667 10 72s11.167 46.333 19.5 66s19.333 35.667 33 48s30.5 18.166 50.5 17.499c16.667 0 29.834 -5.83301 39.501 -17.5
s16.834 -26.334 21.501 -44.001s7.66699 -36.834 9 -57.501s2.66602 -40 3.99902 -58zM101.996 6.00586c0.666992 6 2.66504 10.668 5.99805 14.001s7 5.16602 11 5.49902s7.66699 -0.833984 11 -3.50098s6 -7 8 -13c0.666992 -4.66699 1 -7.33398 1 -8.00098v-1.5
c0 -0.333008 -0.166992 -1 -0.5 -2s-0.5 -3.83301 -0.5 -8.5h1c16.667 -4 28.834 -12.167 36.501 -24.5s10.667 -25.333 9 -39s-8.16699 -25.667 -19.5 -36s-27.333 -15.166 -48 -14.499c-4.66699 0 -8.33398 2 -11.001 6s-4.16699 8.16699 -4.5 12.5s0.5 8.33301 2.5 12
s5.33301 5.16699 10 4.5c8.66699 -1.33301 15.834 0.333984 21.501 5.00098s9.16699 10.334 10.5 17.001s0 13.167 -4 19.5s-11 10.166 -21 11.499c-9.33301 -0.666992 -14.666 0.5 -15.999 3.5s-2.66602 8.16699 -3.99902 15.5c0 4.66699 0.166992 7.66699 0.5 9
s0.666016 2.33301 0.999023 3s0.5 1.66699 0.5 3s-0.333008 4.33301 -1 9z" />
    <glyph glyph-name="egrave" unicode="&#xe8;" 
d="M178 703c6.66699 -1.33301 11.499 -4.33203 14.499 -8.99902s4.16699 -9.33398 3.5 -14.001s-3.16699 -8.83398 -7.5 -12.501s-9.83301 -5.16699 -16.5 -4.5h-109v-325c11.333 0 23.5 0.333008 36.5 1s25.167 1 36.5 1c6 -1.33301 10.5 -3.83301 13.5 -7.5
s4.5 -7.66699 4.5 -12s-1.5 -8.33301 -4.5 -12s-7.16699 -6.5 -12.5 -8.5c-11.333 0 -23.666 -0.333008 -36.999 -1s-25.666 -1 -36.999 -1c0 -31.333 -0.166992 -58.333 -0.5 -81s-0.5 -43.5 -0.5 -62.5s0.166992 -37.167 0.5 -54.5s0.5 -36 0.5 -56l115 -3
c3.33301 0 6.33301 -1.66699 9 -5s4.33398 -7.33301 5.00098 -12s0 -9.16699 -2 -13.5s-5.66699 -7.5 -11 -9.5c-10 -0.666992 -21 -1.16699 -33 -1.5l-37 -1c-12.667 -0.333008 -24.834 -0.333008 -36.501 0s-22.5 0.833008 -32.5 1.5
c-5.33301 0.666992 -9.33301 4.33398 -12 11.001s-4.33398 14.167 -5.00098 22.5s-0.833984 16.833 -0.500977 25.5s0.5 15 0.5 19v54v95v118c0 42 -0.166992 82.667 -0.5 122s-0.666016 75.166 -0.999023 107.499s-0.5 57.5 -0.5 75.5c-0.666992 18 2.33301 30.833 9 38.5
s19.667 11.834 39 12.501zM68.999 795.001c-3.33301 6 -3.83301 11.335 -1.5 16.002s6 8 11 10s10.167 2.66699 15.5 2s9 -3.33398 11 -8.00098l31 -65c3.33301 -7.33301 3.83301 -13.333 1.5 -18s-5.83301 -7.83398 -10.5 -9.50098s-9.66699 -1.66699 -15 0
s-9.33301 5.16699 -12 10.5l-31 62v0z" />
    <glyph glyph-name="eacute" unicode="&#xe9;" 
d="M178 703c6.66699 -1.33301 11.499 -4.33203 14.499 -8.99902s4.16699 -9.33398 3.5 -14.001s-3.16699 -8.83398 -7.5 -12.501s-9.83301 -5.16699 -16.5 -4.5h-109v-325c11.333 0 23.5 0.333008 36.5 1s25.167 1 36.5 1c6 -1.33301 10.5 -3.83301 13.5 -7.5
s4.5 -7.66699 4.5 -12s-1.5 -8.33301 -4.5 -12s-7.16699 -6.5 -12.5 -8.5c-11.333 0 -23.666 -0.333008 -36.999 -1s-25.666 -1 -36.999 -1c0 -31.333 -0.166992 -58.333 -0.5 -81s-0.5 -43.5 -0.5 -62.5s0.166992 -37.167 0.5 -54.5s0.5 -36 0.5 -56l115 -3
c3.33301 0 6.33301 -1.66699 9 -5s4.33398 -7.33301 5.00098 -12s0 -9.16699 -2 -13.5s-5.66699 -7.5 -11 -9.5c-10 -0.666992 -21 -1.16699 -33 -1.5l-37 -1c-12.667 -0.333008 -24.834 -0.333008 -36.501 0s-22.5 0.833008 -32.5 1.5
c-5.33301 0.666992 -9.33301 4.33398 -12 11.001s-4.33398 14.167 -5.00098 22.5s-0.833984 16.833 -0.500977 25.5s0.5 15 0.5 19v54v95v118c0 42 -0.166992 82.667 -0.5 122s-0.666016 75.166 -0.999023 107.499s-0.5 57.5 -0.5 75.5c-0.666992 18 2.33301 30.833 9 38.5
s19.667 11.834 39 12.501zM112.999 732.001c-2.66699 -5.33301 -6.66699 -8.83496 -12 -10.502s-10.333 -1.66699 -15 0s-8.16699 4.83398 -10.5 9.50098s-1.83301 10.667 1.5 18l31 65c2 4.66699 5.66699 7.33398 11 8.00098s10.5 0 15.5 -2s8.66699 -5.33301 11 -10
s1.83301 -10 -1.5 -16z" />
    <glyph glyph-name="ecircumflex" unicode="&#xea;" 
d="M178 703c6.66699 -1.33301 11.499 -4.33203 14.499 -8.99902s4.16699 -9.33398 3.5 -14.001s-3.16699 -8.83398 -7.5 -12.501s-9.83301 -5.16699 -16.5 -4.5h-109v-325c11.333 0 23.5 0.333008 36.5 1s25.167 1 36.5 1c6 -1.33301 10.5 -3.83301 13.5 -7.5
s4.5 -7.66699 4.5 -12s-1.5 -8.33301 -4.5 -12s-7.16699 -6.5 -12.5 -8.5c-11.333 0 -23.666 -0.333008 -36.999 -1s-25.666 -1 -36.999 -1c0 -31.333 -0.166992 -58.333 -0.5 -81s-0.5 -43.5 -0.5 -62.5s0.166992 -37.167 0.5 -54.5s0.5 -36 0.5 -56l115 -3
c3.33301 0 6.33301 -1.66699 9 -5s4.33398 -7.33301 5.00098 -12s0 -9.16699 -2 -13.5s-5.66699 -7.5 -11 -9.5c-10 -0.666992 -21 -1.16699 -33 -1.5l-37 -1c-12.667 -0.333008 -24.834 -0.333008 -36.501 0s-22.5 0.833008 -32.5 1.5
c-5.33301 0.666992 -9.33301 4.33398 -12 11.001s-4.33398 14.167 -5.00098 22.5s-0.833984 16.833 -0.500977 25.5s0.5 15 0.5 19v54v95v118c0 42 -0.166992 82.667 -0.5 122s-0.666016 75.166 -0.999023 107.499s-0.5 57.5 -0.5 75.5c-0.666992 18 2.33301 30.833 9 38.5
s19.667 11.834 39 12.501zM84.999 810.001c4 6.66699 8.66699 11.334 14 14.001s10.666 3.66699 15.999 3s10.333 -2.5 15 -5.5s8 -6.83301 10 -11.5l31 -65c2 -4 1.66699 -8.16699 -1 -12.5s-6.16699 -7.5 -10.5 -9.5s-8.83301 -2.83301 -13.5 -2.5
s-8.33398 2.83301 -11.001 7.5l-23 45l-22 -46c-3.33301 -6 -7.66602 -9.33301 -12.999 -10s-10.333 0.333008 -15 3s-8.16699 6.16699 -10.5 10.5s-2.16602 9.16602 0.500977 14.499z" />
    <glyph glyph-name="edieresis" unicode="&#xeb;" 
d="M178 703c6.66699 -1.33301 11.499 -4.33203 14.499 -8.99902s4.16699 -9.33398 3.5 -14.001s-3.16699 -8.83398 -7.5 -12.501s-9.83301 -5.16699 -16.5 -4.5h-109v-325c11.333 0 23.5 0.333008 36.5 1s25.167 1 36.5 1c6 -1.33301 10.5 -3.83301 13.5 -7.5
s4.5 -7.66699 4.5 -12s-1.5 -8.33301 -4.5 -12s-7.16699 -6.5 -12.5 -8.5c-11.333 0 -23.666 -0.333008 -36.999 -1s-25.666 -1 -36.999 -1c0 -31.333 -0.166992 -58.333 -0.5 -81s-0.5 -43.5 -0.5 -62.5s0.166992 -37.167 0.5 -54.5s0.5 -36 0.5 -56l115 -3
c3.33301 0 6.33301 -1.66699 9 -5s4.33398 -7.33301 5.00098 -12s0 -9.16699 -2 -13.5s-5.66699 -7.5 -11 -9.5c-10 -0.666992 -21 -1.16699 -33 -1.5l-37 -1c-12.667 -0.333008 -24.834 -0.333008 -36.501 0s-22.5 0.833008 -32.5 1.5
c-5.33301 0.666992 -9.33301 4.33398 -12 11.001s-4.33398 14.167 -5.00098 22.5s-0.833984 16.833 -0.500977 25.5s0.5 15 0.5 19v54v95v118c0 42 -0.166992 82.667 -0.5 122s-0.666016 75.166 -0.999023 107.499s-0.5 57.5 -0.5 75.5c-0.666992 18 2.33301 30.833 9 38.5
s19.667 11.834 39 12.501zM42.999 751.001c0 7.33301 2.66699 13.666 8 18.999s11.666 8 18.999 8s13.666 -2.66699 18.999 -8s8 -11.666 8 -18.999s-2.66699 -13.666 -8 -18.999s-11.666 -8 -18.999 -8s-13.666 2.66699 -18.999 8s-8 11.666 -8 18.999zM126.999 751.001
c0 7.33301 2.66699 13.666 8 18.999s11.666 8 18.999 8s13.666 -2.66699 18.999 -8s8 -11.666 8 -18.999s-2.66699 -13.666 -8 -18.999s-11.666 -8 -18.999 -8s-13.666 2.66699 -18.999 8s-8 11.666 -8 18.999z" />
    <glyph glyph-name="igrave" unicode="&#xec;" horiz-adv-x="69" 
d="M13 689c0 4.66699 2.16699 8.16797 6.5 10.501s9 3.33301 14 3s9.5 -1.83301 13.5 -4.5s6 -6.66699 6 -12v-674c-2 -5.33301 -5.33301 -9.33301 -10 -12s-9.33398 -3.83398 -14.001 -3.50098s-8.66699 2 -12 5s-4.66602 7.5 -3.99902 13.5v674zM-6 797.001
c-3.33301 6 -3.83301 11.335 -1.5 16.002s6 8 11 10s10.167 2.66699 15.5 2s9 -3.33398 11 -8.00098l31 -65c3.33301 -7.33301 3.83301 -13.333 1.5 -18s-5.83301 -7.83398 -10.5 -9.50098s-9.66699 -1.66699 -15 0s-9.33301 5.16699 -12 10.5l-31 62v0z" />
    <glyph glyph-name="iacute" unicode="&#xed;" horiz-adv-x="69" 
d="M13 689c0 4.66699 2.16699 8.16797 6.5 10.501s9 3.33301 14 3s9.5 -1.83301 13.5 -4.5s6 -6.66699 6 -12v-674c-2 -5.33301 -5.33301 -9.33301 -10 -12s-9.33398 -3.83398 -14.001 -3.50098s-8.66699 2 -12 5s-4.66602 7.5 -3.99902 13.5v674zM43 730.001
c-2.66699 -5.33301 -6.66699 -8.83496 -12 -10.502s-10.333 -1.66699 -15 0s-8.16699 4.83398 -10.5 9.50098s-1.83301 10.667 1.5 18l31 65c2 4.66699 5.66699 7.33398 11 8.00098s10.5 0 15.5 -2s8.66699 -5.33301 11 -10s1.83301 -10 -1.5 -16z" />
    <glyph glyph-name="icircumflex" unicode="&#xee;" horiz-adv-x="69" 
d="M13 689c0 4.66699 2.16699 8.16797 6.5 10.501s9 3.33301 14 3s9.5 -1.83301 13.5 -4.5s6 -6.66699 6 -12v-674c-2 -5.33301 -5.33301 -9.33301 -10 -12s-9.33398 -3.83398 -14.001 -3.50098s-8.66699 2 -12 5s-4.66602 7.5 -3.99902 13.5v674zM11 800.001
c4 6.66699 8.66699 11.334 14 14.001s10.666 3.66699 15.999 3s10.333 -2.5 15 -5.5s8 -6.83301 10 -11.5l31 -65c2 -4 1.66699 -8.16699 -1 -12.5s-6.16699 -7.5 -10.5 -9.5s-8.83301 -2.83301 -13.5 -2.5s-8.33398 2.83301 -11.001 7.5l-23 45l-22 -46
c-3.33301 -6 -7.66602 -9.33301 -12.999 -10s-10.333 0.333008 -15 3s-8.16699 6.16699 -10.5 10.5s-2.16602 9.16602 0.500977 14.499z" />
    <glyph glyph-name="idieresis" unicode="&#xef;" horiz-adv-x="69" 
d="M13 689c0 4.66699 2.16699 8.16797 6.5 10.501s9 3.33301 14 3s9.5 -1.83301 13.5 -4.5s6 -6.66699 6 -12v-674c-2 -5.33301 -5.33301 -9.33301 -10 -12s-9.33398 -3.83398 -14.001 -3.50098s-8.66699 2 -12 5s-4.66602 7.5 -3.99902 13.5v674zM-33 739.001
c0 7.33301 2.66699 13.666 8 18.999s11.666 8 18.999 8s13.666 -2.66699 18.999 -8s8 -11.666 8 -18.999s-2.66699 -13.666 -8 -18.999s-11.666 -8 -18.999 -8s-13.666 2.66699 -18.999 8s-8 11.666 -8 18.999zM51 739.001c0 7.33301 2.66699 13.666 8 18.999
s11.666 8 18.999 8s13.666 -2.66699 18.999 -8s8 -11.666 8 -18.999s-2.66699 -13.666 -8 -18.999s-11.666 -8 -18.999 -8s-13.666 2.66699 -18.999 8s-8 11.666 -8 18.999z" />
    <glyph glyph-name="ntilde" unicode="&#xf1;" horiz-adv-x="290" 
d="M12 679c1.33301 6.66699 4.33398 11.832 9.00098 15.499s9.5 6.16699 14.5 7.5s9.83301 1.16602 14.5 -0.500977s8 -4.5 10 -8.5l41.5 -136.5l45.5 -152.5l45 -154l42 -141l3 563c-2 8 -0.833008 14.333 3.5 19s9.16602 7.5 14.499 8.5s10.5 -0.166992 15.5 -3.5
s7.5 -9.66602 7.5 -18.999l-3 -653c-0.666992 -7.33301 -3.5 -13.166 -8.5 -17.499s-10.833 -6.83301 -17.5 -7.5s-13 1 -19 5s-10 10.667 -12 20l-44.5 141l-38 125.5l-38 132l-44.5 159.5l7 -570c-0.666992 -5.33301 -3.66699 -9.5 -9 -12.5s-11 -4.33301 -17 -4
s-11.333 2.5 -16 6.5s-6.66699 10.667 -6 20v657zM49.001 739.998c-0.666992 -5.33301 -2.99902 -9.5 -6.99902 -12.5s-8.16699 -4.66699 -12.5 -5s-8.66602 0.833984 -12.999 3.50098s-6.83301 7 -7.5 13c2 19.333 10 36.333 24 51s30 22.667 48 24
c12 0.666992 23.167 -1.66602 33.5 -6.99902s20 -11.5 29 -18.5l24.5 -19c7.33301 -5.66699 14.333 -8.16699 21 -7.5c19.333 2 32.666 15.667 39.999 41c2 6 5.16699 9.83301 9.5 11.5s8.66602 1.66699 12.999 0s7.83301 -4.83398 10.5 -9.50098s3.66699 -10 3 -16
c-2.66699 -15.333 -10.667 -30 -24 -44s-29 -21.667 -47 -23c-14 -0.666992 -25.833 1.5 -35.5 6.5s-18.667 10.833 -27 17.5s-16.333 12.667 -24 18s-15.834 7.66602 -24.501 6.99902c-11.333 -0.666992 -18.666 -4 -21.999 -10z" />
    <glyph glyph-name="ograve" unicode="&#xf2;" horiz-adv-x="285" 
d="M272 330c0 -17.333 -0.332031 -37.5029 -0.999023 -60.5029s-2.5 -46.667 -5.5 -71s-7.5 -48.166 -13.5 -71.499s-14 -44.333 -24 -63s-22.5 -34 -37.5 -46s-32.833 -18.333 -53.5 -19c-18 -0.666992 -33.5 4.5 -46.5 15.5s-24 25.5 -33 43.5s-16.333 38.667 -22 62
s-10 47.166 -13 71.499s-5 48 -6 71s-1.5 43.5 -1.5 61.5c0 19.333 0.333008 42 1 68s2.5 52.833 5.5 80.5s7.5 55.167 13.5 82.5s14.333 51.833 25 73.5s24.167 39.334 40.5 53.001s36.166 20.834 59.499 21.501c19.333 0.666992 35.5 -5.66602 48.5 -18.999
s23.5 -30.666 31.5 -51.999s14.167 -45.666 18.5 -72.999s7.5 -54.833 9.5 -82.5s3.16699 -54.334 3.5 -80.001s0.5 -47.834 0.5 -66.501zM232.001 332.997c0 14.667 -0.333008 32.8311 -1 54.498s-2 44.667 -4 69s-4.83301 48.666 -8.5 72.999
s-8.16699 46.166 -13.5 65.499s-11.666 34.833 -18.999 46.5s-16 17.5 -26 17.5c-16 -0.666992 -29.667 -7.5 -41 -20.5s-20.833 -29.833 -28.5 -50.5s-13.667 -43.667 -18 -69s-7.66602 -50.166 -9.99902 -74.499s-4 -47.166 -5 -68.499s-1.5 -38 -1.5 -50
c-0.666992 -14.667 -0.333984 -32 0.999023 -52s3.5 -40.667 6.5 -62s6.66699 -42.333 11 -63s9.66602 -39.167 15.999 -55.5s13.5 -29.166 21.5 -38.499s17 -13.666 27 -12.999c18 1.33301 33 12.833 45 34.5s21.5 47.5 28.5 77.5s12 61.333 15 94s4.5 61 4.5 85z
M138.001 784.994c-3.33301 6 -3.83301 11.335 -1.5 16.002s6 8 11 10s10.167 2.66699 15.5 2s9 -3.33398 11 -8.00098l31 -65c3.33301 -7.33301 3.83301 -13.333 1.5 -18s-5.83301 -7.83398 -10.5 -9.50098s-9.66699 -1.66699 -15 0s-9.33301 5.16699 -12 10.5l-31 62v0z
" />
    <glyph glyph-name="oacute" unicode="&#xf3;" horiz-adv-x="285" 
d="M272 330c0 -17.333 -0.332031 -37.5029 -0.999023 -60.5029s-2.5 -46.667 -5.5 -71s-7.5 -48.166 -13.5 -71.499s-14 -44.333 -24 -63s-22.5 -34 -37.5 -46s-32.833 -18.333 -53.5 -19c-18 -0.666992 -33.5 4.5 -46.5 15.5s-24 25.5 -33 43.5s-16.333 38.667 -22 62
s-10 47.166 -13 71.499s-5 48 -6 71s-1.5 43.5 -1.5 61.5c0 19.333 0.333008 42 1 68s2.5 52.833 5.5 80.5s7.5 55.167 13.5 82.5s14.333 51.833 25 73.5s24.167 39.334 40.5 53.001s36.166 20.834 59.499 21.501c19.333 0.666992 35.5 -5.66602 48.5 -18.999
s23.5 -30.666 31.5 -51.999s14.167 -45.666 18.5 -72.999s7.5 -54.833 9.5 -82.5s3.16699 -54.334 3.5 -80.001s0.5 -47.834 0.5 -66.501zM232.001 332.997c0 14.667 -0.333008 32.8311 -1 54.498s-2 44.667 -4 69s-4.83301 48.666 -8.5 72.999
s-8.16699 46.166 -13.5 65.499s-11.666 34.833 -18.999 46.5s-16 17.5 -26 17.5c-16 -0.666992 -29.667 -7.5 -41 -20.5s-20.833 -29.833 -28.5 -50.5s-13.667 -43.667 -18 -69s-7.66602 -50.166 -9.99902 -74.499s-4 -47.166 -5 -68.499s-1.5 -38 -1.5 -50
c-0.666992 -14.667 -0.333984 -32 0.999023 -52s3.5 -40.667 6.5 -62s6.66699 -42.333 11 -63s9.66602 -39.167 15.999 -55.5s13.5 -29.166 21.5 -38.499s17 -13.666 27 -12.999c18 1.33301 33 12.833 45 34.5s21.5 47.5 28.5 77.5s12 61.333 15 94s4.5 61 4.5 85z
M144.001 731.994c-2.66699 -5.33301 -6.66699 -8.83496 -12 -10.502s-10.333 -1.66699 -15 0s-8.16699 4.83398 -10.5 9.50098s-1.83301 10.667 1.5 18l31 65c2 4.66699 5.66699 7.33398 11 8.00098s10.5 0 15.5 -2s8.66699 -5.33301 11 -10s1.83301 -10 -1.5 -16z" />
    <glyph glyph-name="ocircumflex" unicode="&#xf4;" horiz-adv-x="285" 
d="M272 330c0 -17.333 -0.332031 -37.5029 -0.999023 -60.5029s-2.5 -46.667 -5.5 -71s-7.5 -48.166 -13.5 -71.499s-14 -44.333 -24 -63s-22.5 -34 -37.5 -46s-32.833 -18.333 -53.5 -19c-18 -0.666992 -33.5 4.5 -46.5 15.5s-24 25.5 -33 43.5s-16.333 38.667 -22 62
s-10 47.166 -13 71.499s-5 48 -6 71s-1.5 43.5 -1.5 61.5c0 19.333 0.333008 42 1 68s2.5 52.833 5.5 80.5s7.5 55.167 13.5 82.5s14.333 51.833 25 73.5s24.167 39.334 40.5 53.001s36.166 20.834 59.499 21.501c19.333 0.666992 35.5 -5.66602 48.5 -18.999
s23.5 -30.666 31.5 -51.999s14.167 -45.666 18.5 -72.999s7.5 -54.833 9.5 -82.5s3.16699 -54.334 3.5 -80.001s0.5 -47.834 0.5 -66.501zM232.001 332.997c0 14.667 -0.333008 32.8311 -1 54.498s-2 44.667 -4 69s-4.83301 48.666 -8.5 72.999
s-8.16699 46.166 -13.5 65.499s-11.666 34.833 -18.999 46.5s-16 17.5 -26 17.5c-16 -0.666992 -29.667 -7.5 -41 -20.5s-20.833 -29.833 -28.5 -50.5s-13.667 -43.667 -18 -69s-7.66602 -50.166 -9.99902 -74.499s-4 -47.166 -5 -68.499s-1.5 -38 -1.5 -50
c-0.666992 -14.667 -0.333984 -32 0.999023 -52s3.5 -40.667 6.5 -62s6.66699 -42.333 11 -63s9.66602 -39.167 15.999 -55.5s13.5 -29.166 21.5 -38.499s17 -13.666 27 -12.999c18 1.33301 33 12.833 45 34.5s21.5 47.5 28.5 77.5s12 61.333 15 94s4.5 61 4.5 85z
M118.001 799.994c4 6.66699 8.66699 11.334 14 14.001s10.666 3.66699 15.999 3s10.333 -2.5 15 -5.5s8 -6.83301 10 -11.5l31 -65c2 -4 1.66699 -8.16699 -1 -12.5s-6.16699 -7.5 -10.5 -9.5s-8.83301 -2.83301 -13.5 -2.5s-8.33398 2.83301 -11.001 7.5l-23 45l-22 -46
c-3.33301 -6 -7.66602 -9.33301 -12.999 -10s-10.333 0.333008 -15 3s-8.16699 6.16699 -10.5 10.5s-2.16602 9.16602 0.500977 14.499z" />
    <glyph glyph-name="otilde" unicode="&#xf5;" horiz-adv-x="285" 
d="M272 330c0 -17.333 -0.332031 -37.5029 -0.999023 -60.5029s-2.5 -46.667 -5.5 -71s-7.5 -48.166 -13.5 -71.499s-14 -44.333 -24 -63s-22.5 -34 -37.5 -46s-32.833 -18.333 -53.5 -19c-18 -0.666992 -33.5 4.5 -46.5 15.5s-24 25.5 -33 43.5s-16.333 38.667 -22 62
s-10 47.166 -13 71.499s-5 48 -6 71s-1.5 43.5 -1.5 61.5c0 19.333 0.333008 42 1 68s2.5 52.833 5.5 80.5s7.5 55.167 13.5 82.5s14.333 51.833 25 73.5s24.167 39.334 40.5 53.001s36.166 20.834 59.499 21.501c19.333 0.666992 35.5 -5.66602 48.5 -18.999
s23.5 -30.666 31.5 -51.999s14.167 -45.666 18.5 -72.999s7.5 -54.833 9.5 -82.5s3.16699 -54.334 3.5 -80.001s0.5 -47.834 0.5 -66.501zM232.001 332.997c0 14.667 -0.333008 32.8311 -1 54.498s-2 44.667 -4 69s-4.83301 48.666 -8.5 72.999
s-8.16699 46.166 -13.5 65.499s-11.666 34.833 -18.999 46.5s-16 17.5 -26 17.5c-16 -0.666992 -29.667 -7.5 -41 -20.5s-20.833 -29.833 -28.5 -50.5s-13.667 -43.667 -18 -69s-7.66602 -50.166 -9.99902 -74.499s-4 -47.166 -5 -68.499s-1.5 -38 -1.5 -50
c-0.666992 -14.667 -0.333984 -32 0.999023 -52s3.5 -40.667 6.5 -62s6.66699 -42.333 11 -63s9.66602 -39.167 15.999 -55.5s13.5 -29.166 21.5 -38.499s17 -13.666 27 -12.999c18 1.33301 33 12.833 45 34.5s21.5 47.5 28.5 77.5s12 61.333 15 94s4.5 61 4.5 85z
M68.001 736.994c-0.666992 -5.33301 -2.99902 -9.5 -6.99902 -12.5s-8.16699 -4.66699 -12.5 -5s-8.66602 0.833984 -12.999 3.50098s-6.83301 7 -7.5 13c2 19.333 10 36.333 24 51s30 22.667 48 24c12 0.666992 23.167 -1.66602 33.5 -6.99902s20 -11.5 29 -18.5l24.5 -19
c7.33301 -5.66699 14.333 -8.16699 21 -7.5c19.333 2 32.666 15.667 39.999 41c2 6 5.16699 9.83301 9.5 11.5s8.66602 1.66699 12.999 0s7.83301 -4.83398 10.5 -9.50098s3.66699 -10 3 -16c-2.66699 -15.333 -10.667 -30 -24 -44s-29 -21.667 -47 -23
c-14 -0.666992 -25.833 1.5 -35.5 6.5s-18.667 10.833 -27 17.5s-16.333 12.667 -24 18s-15.834 7.66602 -24.501 6.99902c-11.333 -0.666992 -18.666 -4 -21.999 -10z" />
    <glyph glyph-name="odieresis" unicode="&#xf6;" horiz-adv-x="285" 
d="M272 330c0 -17.333 -0.332031 -37.5029 -0.999023 -60.5029s-2.5 -46.667 -5.5 -71s-7.5 -48.166 -13.5 -71.499s-14 -44.333 -24 -63s-22.5 -34 -37.5 -46s-32.833 -18.333 -53.5 -19c-18 -0.666992 -33.5 4.5 -46.5 15.5s-24 25.5 -33 43.5s-16.333 38.667 -22 62
s-10 47.166 -13 71.499s-5 48 -6 71s-1.5 43.5 -1.5 61.5c0 19.333 0.333008 42 1 68s2.5 52.833 5.5 80.5s7.5 55.167 13.5 82.5s14.333 51.833 25 73.5s24.167 39.334 40.5 53.001s36.166 20.834 59.499 21.501c19.333 0.666992 35.5 -5.66602 48.5 -18.999
s23.5 -30.666 31.5 -51.999s14.167 -45.666 18.5 -72.999s7.5 -54.833 9.5 -82.5s3.16699 -54.334 3.5 -80.001s0.5 -47.834 0.5 -66.501zM232.001 332.997c0 14.667 -0.333008 32.8311 -1 54.498s-2 44.667 -4 69s-4.83301 48.666 -8.5 72.999
s-8.16699 46.166 -13.5 65.499s-11.666 34.833 -18.999 46.5s-16 17.5 -26 17.5c-16 -0.666992 -29.667 -7.5 -41 -20.5s-20.833 -29.833 -28.5 -50.5s-13.667 -43.667 -18 -69s-7.66602 -50.166 -9.99902 -74.499s-4 -47.166 -5 -68.499s-1.5 -38 -1.5 -50
c-0.666992 -14.667 -0.333984 -32 0.999023 -52s3.5 -40.667 6.5 -62s6.66699 -42.333 11 -63s9.66602 -39.167 15.999 -55.5s13.5 -29.166 21.5 -38.499s17 -13.666 27 -12.999c18 1.33301 33 12.833 45 34.5s21.5 47.5 28.5 77.5s12 61.333 15 94s4.5 61 4.5 85z
M73.001 738.994c0 7.33301 2.66699 13.666 8 18.999s11.666 8 18.999 8s13.666 -2.66699 18.999 -8s8 -11.666 8 -18.999s-2.66699 -13.666 -8 -18.999s-11.666 -8 -18.999 -8s-13.666 2.66699 -18.999 8s-8 11.666 -8 18.999zM157.001 738.994
c0 7.33301 2.66699 13.666 8 18.999s11.666 8 18.999 8s13.666 -2.66699 18.999 -8s8 -11.666 8 -18.999s-2.66699 -13.666 -8 -18.999s-11.666 -8 -18.999 -8s-13.666 2.66699 -18.999 8s-8 11.666 -8 18.999z" />
    <glyph glyph-name="divide" unicode="&#xf7;" horiz-adv-x="273" 
d="M225 383c4.66699 0 8.16699 -1.99902 10.5 -5.99902s3.33301 -8.33301 3 -13s-1.83301 -8.83398 -4.5 -12.501s-6.66699 -5.5 -12 -5.5l-185 -1c-6 0 -10.5 2.16699 -13.5 6.5s-4.5 9 -4.5 14s1.5 9.5 4.5 13.5s7.5 5.66699 13.5 5zM102 226.001
c0 7.33301 2.66699 13.666 8 18.999s11.666 8 18.999 8s13.666 -2.66699 18.999 -8s8 -11.666 8 -18.999s-2.66699 -13.666 -8 -18.999s-11.666 -8 -18.999 -8s-13.666 2.66699 -18.999 8s-8 11.666 -8 18.999zM101 502.001c0 7.33301 2.66699 13.666 8 18.999
s11.666 8 18.999 8s13.666 -2.66699 18.999 -8s8 -11.666 8 -18.999s-2.66699 -13.666 -8 -18.999s-11.666 -8 -18.999 -8s-13.666 2.66699 -18.999 8s-8 11.666 -8 18.999z" />
    <glyph glyph-name="oslash" unicode="&#xf8;" horiz-adv-x="285" 
d="M272 330c0 -17.333 -0.332031 -37.5029 -0.999023 -60.5029s-2.5 -46.667 -5.5 -71s-7.5 -48.166 -13.5 -71.499s-14 -44.333 -24 -63s-22.5 -34 -37.5 -46s-32.833 -18.333 -53.5 -19c-18 -0.666992 -33.5 4.5 -46.5 15.5s-24 25.5 -33 43.5s-16.333 38.667 -22 62
s-10 47.166 -13 71.499s-5 48 -6 71s-1.5 43.5 -1.5 61.5c0 19.333 0.333008 42 1 68s2.5 52.833 5.5 80.5s7.5 55.167 13.5 82.5s14.333 51.833 25 73.5s24.167 39.334 40.5 53.001s36.166 20.834 59.499 21.501c19.333 0.666992 35.5 -5.66602 48.5 -18.999
s23.5 -30.666 31.5 -51.999s14.167 -45.666 18.5 -72.999s7.5 -54.833 9.5 -82.5s3.16699 -54.334 3.5 -80.001s0.5 -47.834 0.5 -66.501zM232.001 332.997c0 14.667 -0.333008 32.8311 -1 54.498s-2 44.667 -4 69s-4.83301 48.666 -8.5 72.999
s-8.16699 46.166 -13.5 65.499s-11.666 34.833 -18.999 46.5s-16 17.5 -26 17.5c-16 -0.666992 -29.667 -7.5 -41 -20.5s-20.833 -29.833 -28.5 -50.5s-13.667 -43.667 -18 -69s-7.66602 -50.166 -9.99902 -74.499s-4 -47.166 -5 -68.499s-1.5 -38 -1.5 -50
c-0.666992 -14.667 -0.333984 -32 0.999023 -52s3.5 -40.667 6.5 -62s6.66699 -42.333 11 -63s9.66602 -39.167 15.999 -55.5s13.5 -29.166 21.5 -38.499s17 -13.666 27 -12.999c18 1.33301 33 12.833 45 34.5s21.5 47.5 28.5 77.5s12 61.333 15 94s4.5 61 4.5 85z
M268.001 692.994c2 4 5.33105 6.16797 9.99805 6.50098s9.33398 -0.666992 14.001 -3s8.33398 -5.5 11.001 -9.5s2.66699 -8.33301 0 -13l-282 -670c-4 -4 -8.66699 -6.33301 -14 -7s-10 0 -14 2s-6.83301 5.16699 -8.5 9.5s-1.16699 9.16602 1.5 14.499z" />
    <glyph glyph-name="ugrave" unicode="&#xf9;" horiz-adv-x="208" 
d="M19 681c-0.666992 7.33301 1.66797 12.5 7.00098 15.5s11 4.33301 17 4s11.333 -2.5 16 -6.5s6.33398 -9.33301 5.00098 -16c-10 -152 -13 -277.333 -9 -376c3.33301 -79.333 9.5 -140.5 18.5 -183.5s21.167 -64.5 36.5 -64.5c7.33301 0 13.333 6.5 18 19.5
s8.5 30.5 11.5 52.5s5.33301 47.667 7 77s3.16699 60.666 4.5 93.999c1.33301 31.333 2.33301 63.666 3 96.999s1.16699 66.5 1.5 99.5s0.5 65.5 0.5 97.5v90c-0.666992 6.66699 1.16602 11.334 5.49902 14.001s9.16602 3.83398 14.499 3.50098s10.333 -2 15 -5
s7 -7.5 7 -13.5c0 -71.333 -0.166992 -139.666 -0.5 -204.999s-1.16602 -126 -2.49902 -182c-2.66699 -93.333 -10.334 -164.833 -23.001 -214.5s-34 -74.834 -64 -75.501c-16 0 -29.667 7 -41 21s-20.833 33.5 -28.5 58.5s-13.5 54.833 -17.5 89.5s-6.66699 72.667 -8 114
c-1.33301 42.667 -2 86 -2 130s0.5 84.5 1.5 121.5s2.16699 68.333 3.5 94s2.33301 42.167 3 49.5zM71.002 780c-3.33301 6 -3.83301 11.335 -1.5 16.002s6 8 11 10s10.167 2.66699 15.5 2s9 -3.33398 11 -8.00098l31 -65c3.33301 -7.33301 3.83301 -13.333 1.5 -18
s-5.83301 -7.83398 -10.5 -9.50098s-9.66699 -1.66699 -15 0s-9.33301 5.16699 -12 10.5l-31 62v0z" />
    <glyph glyph-name="uacute" unicode="&#xfa;" horiz-adv-x="208" 
d="M19 681c-0.666992 7.33301 1.66797 12.5 7.00098 15.5s11 4.33301 17 4s11.333 -2.5 16 -6.5s6.33398 -9.33301 5.00098 -16c-10 -152 -13 -277.333 -9 -376c3.33301 -79.333 9.5 -140.5 18.5 -183.5s21.167 -64.5 36.5 -64.5c7.33301 0 13.333 6.5 18 19.5
s8.5 30.5 11.5 52.5s5.33301 47.667 7 77s3.16699 60.666 4.5 93.999c1.33301 31.333 2.33301 63.666 3 96.999s1.16699 66.5 1.5 99.5s0.5 65.5 0.5 97.5v90c-0.666992 6.66699 1.16602 11.334 5.49902 14.001s9.16602 3.83398 14.499 3.50098s10.333 -2 15 -5
s7 -7.5 7 -13.5c0 -71.333 -0.166992 -139.666 -0.5 -204.999s-1.16602 -126 -2.49902 -182c-2.66699 -93.333 -10.334 -164.833 -23.001 -214.5s-34 -74.834 -64 -75.501c-16 0 -29.667 7 -41 21s-20.833 33.5 -28.5 58.5s-13.5 54.833 -17.5 89.5s-6.66699 72.667 -8 114
c-1.33301 42.667 -2 86 -2 130s0.5 84.5 1.5 121.5s2.16699 68.333 3.5 94s2.33301 42.167 3 49.5zM106.002 718c-2.66699 -5.33301 -6.66699 -8.83496 -12 -10.502s-10.333 -1.66699 -15 0s-8.16699 4.83398 -10.5 9.50098s-1.83301 10.667 1.5 18l31 65
c2 4.66699 5.66699 7.33398 11 8.00098s10.5 0 15.5 -2s8.66699 -5.33301 11 -10s1.83301 -10 -1.5 -16z" />
    <glyph glyph-name="ucircumflex" unicode="&#xfb;" horiz-adv-x="208" 
d="M19 681c-0.666992 7.33301 1.66797 12.5 7.00098 15.5s11 4.33301 17 4s11.333 -2.5 16 -6.5s6.33398 -9.33301 5.00098 -16c-10 -152 -13 -277.333 -9 -376c3.33301 -79.333 9.5 -140.5 18.5 -183.5s21.167 -64.5 36.5 -64.5c7.33301 0 13.333 6.5 18 19.5
s8.5 30.5 11.5 52.5s5.33301 47.667 7 77s3.16699 60.666 4.5 93.999c1.33301 31.333 2.33301 63.666 3 96.999s1.16699 66.5 1.5 99.5s0.5 65.5 0.5 97.5v90c-0.666992 6.66699 1.16602 11.334 5.49902 14.001s9.16602 3.83398 14.499 3.50098s10.333 -2 15 -5
s7 -7.5 7 -13.5c0 -71.333 -0.166992 -139.666 -0.5 -204.999s-1.16602 -126 -2.49902 -182c-2.66699 -93.333 -10.334 -164.833 -23.001 -214.5s-34 -74.834 -64 -75.501c-16 0 -29.667 7 -41 21s-20.833 33.5 -28.5 58.5s-13.5 54.833 -17.5 89.5s-6.66699 72.667 -8 114
c-1.33301 42.667 -2 86 -2 130s0.5 84.5 1.5 121.5s2.16699 68.333 3.5 94s2.33301 42.167 3 49.5zM79.002 800c4 6.66699 8.66699 11.334 14 14.001s10.666 3.66699 15.999 3s10.333 -2.5 15 -5.5s8 -6.83301 10 -11.5l31 -65c2 -4 1.66699 -8.16699 -1 -12.5
s-6.16699 -7.5 -10.5 -9.5s-8.83301 -2.83301 -13.5 -2.5s-8.33398 2.83301 -11.001 7.5l-23 45l-22 -46c-3.33301 -6 -7.66602 -9.33301 -12.999 -10s-10.333 0.333008 -15 3s-8.16699 6.16699 -10.5 10.5s-2.16602 9.16602 0.500977 14.499z" />
    <glyph glyph-name="udieresis" unicode="&#xfc;" horiz-adv-x="208" 
d="M19 681c-0.666992 7.33301 1.66797 12.5 7.00098 15.5s11 4.33301 17 4s11.333 -2.5 16 -6.5s6.33398 -9.33301 5.00098 -16c-10 -152 -13 -277.333 -9 -376c3.33301 -79.333 9.5 -140.5 18.5 -183.5s21.167 -64.5 36.5 -64.5c7.33301 0 13.333 6.5 18 19.5
s8.5 30.5 11.5 52.5s5.33301 47.667 7 77s3.16699 60.666 4.5 93.999c1.33301 31.333 2.33301 63.666 3 96.999s1.16699 66.5 1.5 99.5s0.5 65.5 0.5 97.5v90c-0.666992 6.66699 1.16602 11.334 5.49902 14.001s9.16602 3.83398 14.499 3.50098s10.333 -2 15 -5
s7 -7.5 7 -13.5c0 -71.333 -0.166992 -139.666 -0.5 -204.999s-1.16602 -126 -2.49902 -182c-2.66699 -93.333 -10.334 -164.833 -23.001 -214.5s-34 -74.834 -64 -75.501c-16 0 -29.667 7 -41 21s-20.833 33.5 -28.5 58.5s-13.5 54.833 -17.5 89.5s-6.66699 72.667 -8 114
c-1.33301 42.667 -2 86 -2 130s0.5 84.5 1.5 121.5s2.16699 68.333 3.5 94s2.33301 42.167 3 49.5zM35.002 739c0 7.33301 2.66699 13.666 8 18.999s11.666 8 18.999 8s13.666 -2.66699 18.999 -8s8 -11.666 8 -18.999s-2.66699 -13.666 -8 -18.999s-11.666 -8 -18.999 -8
s-13.666 2.66699 -18.999 8s-8 11.666 -8 18.999zM119.002 739c0 7.33301 2.66699 13.666 8 18.999s11.666 8 18.999 8s13.666 -2.66699 18.999 -8s8 -11.666 8 -18.999s-2.66699 -13.666 -8 -18.999s-11.666 -8 -18.999 -8s-13.666 2.66699 -18.999 8s-8 11.666 -8 18.999z
" />
    <glyph glyph-name="yacute" unicode="&#xfd;" horiz-adv-x="290" 
d="M136 235l-125.999 437.999c-1.33301 6 -0.333008 11 3 15s7.5 6.83301 12.5 8.5s9.83301 1.83398 14.5 0.500977s8 -4 10 -8l103 -367l85 360c2 6.66699 5.66699 11.167 11 13.5s10.5 2.5 15.5 0.5s9.16699 -5.83301 12.5 -11.5s3.66602 -12.5 0.999023 -20.5l-99 -424
l2 -227c0.666992 -4.66699 -1.16602 -8 -5.49902 -10s-9.33301 -2.66699 -15 -2s-10.834 2.16699 -15.501 4.5s-6.66699 5.83301 -6 10.5zM147.001 717.999c-2.66699 -5.33301 -6.66699 -8.83496 -12 -10.502s-10.333 -1.66699 -15 0s-8.16699 4.83398 -10.5 9.50098
s-1.83301 10.667 1.5 18l31 65c2 4.66699 5.66699 7.33398 11 8.00098s10.5 0 15.5 -2s8.66699 -5.33301 11 -10s1.83301 -10 -1.5 -16z" />
    <glyph glyph-name="thorn" unicode="&#xfe;" horiz-adv-x="295" 
d="M15 675c-1.33301 6.66699 -0.333984 11.834 2.99902 15.501s7.5 5.66699 12.5 6s9.66699 -1 14 -4s6.5 -7.16699 6.5 -12.5l1 -184c21.333 0 44.166 -3.33301 68.499 -10s47.333 -16.334 69 -29.001s40.5 -28.334 56.5 -47.001s26.667 -40.334 32 -65.001
c8.66699 -42.667 8.83398 -80.5 0.500977 -113.5s-22.833 -60.833 -43.5 -83.5s-45.667 -39.667 -75 -51s-60.666 -16.666 -93.999 -15.999h-4v-1c0 -0.666992 -0.166992 -5 -0.5 -13s-0.5 -16.667 -0.5 -26s-0.166992 -18 -0.5 -26s-0.833008 -12.333 -1.5 -13
c-2 -3.33301 -5 -6.16602 -9 -8.49902s-8.16699 -3.5 -12.5 -3.5s-8.33301 1.33301 -12 4s-5.83398 7.33398 -6.50098 14.001c0 59.333 -0.333008 118.666 -1 177.999l-2 174.5c-0.666992 57 -1.16699 112 -1.5 165s-0.166016 102.833 0.500977 149.5zM56.999 456
c0.666992 -29.333 1.16797 -57.501 1.50098 -84.501s0.833008 -53.667 1.5 -80s1.16699 -53.166 1.5 -80.499s0.5 -55.666 0.5 -84.999c27.333 -6 53.166 -4.33301 77.499 5s44.833 23.5 61.5 42.5s28.667 41.833 36 68.5s7.66602 55 0.999023 85
c-6 26 -16.167 47.167 -30.5 63.5s-30.166 29.166 -47.499 38.499s-35.333 15.833 -54 19.5s-35 6.16699 -49 7.5z" />
    <glyph glyph-name="ydieresis" unicode="&#xff;" horiz-adv-x="290" 
d="M136 235l-125.999 437.999c-1.33301 6 -0.333008 11 3 15s7.5 6.83301 12.5 8.5s9.83301 1.83398 14.5 0.500977s8 -4 10 -8l103 -367l85 360c2 6.66699 5.66699 11.167 11 13.5s10.5 2.5 15.5 0.5s9.16699 -5.83301 12.5 -11.5s3.66602 -12.5 0.999023 -20.5l-99 -424
l2 -227c0.666992 -4.66699 -1.16602 -8 -5.49902 -10s-9.33301 -2.66699 -15 -2s-10.834 2.16699 -15.501 4.5s-6.66699 5.83301 -6 10.5zM76.001 738.999c0 7.33301 2.66699 13.666 8 18.999s11.666 8 18.999 8s13.666 -2.66699 18.999 -8s8 -11.666 8 -18.999
s-2.66699 -13.666 -8 -18.999s-11.666 -8 -18.999 -8s-13.666 2.66699 -18.999 8s-8 11.666 -8 18.999zM160.001 738.999c0 7.33301 2.66699 13.666 8 18.999s11.666 8 18.999 8s13.666 -2.66699 18.999 -8s8 -11.666 8 -18.999s-2.66699 -13.666 -8 -18.999
s-11.666 -8 -18.999 -8s-13.666 2.66699 -18.999 8s-8 11.666 -8 18.999z" />
    <glyph glyph-name="Amacron" unicode="&#x100;" horiz-adv-x="446" 
d="M180 679c0.666992 8 4.16797 14.335 10.501 19.002s13.166 7.16699 20.499 7.5s14.333 -1.5 21 -5.5s11 -10.333 13 -19l191 -659c0.666992 -6.66699 -0.833008 -12 -4.5 -16s-8.16699 -6.66699 -13.5 -8s-10.5 -0.833008 -15.5 1.5s-7.83301 6.5 -8.5 12.5l-69 245
c-10 -0.666992 -24.833 -0.833984 -44.5 -0.500977s-40.167 0.833008 -61.5 1.5s-41.833 1.16699 -61.5 1.5s-34.5 0.166016 -44.5 -0.500977l-63 -248c-2 -5.33301 -5.66699 -9.16602 -11 -11.499s-10.5 -2.83301 -15.5 -1.5s-9.16699 4.16602 -12.5 8.49902
s-4.33301 10.5 -3 18.5zM124.001 302.002c9.33301 0.666992 22.668 0.832031 40.001 0.499023s35.5 -0.833008 54.5 -1.5s37.167 -1.16699 54.5 -1.5s30.666 -0.166016 39.999 0.500977l-100 340zM318.003 776c4.66699 0 8.16797 -2.16699 10.501 -6.5s3.33301 -9 3 -14
s-1.83301 -9.5 -4.5 -13.5s-6.66699 -6 -12 -6l-185 -1c-5.33301 2 -9.33301 5.33301 -12 10s-3.83398 9.33398 -3.50098 14.001s2 8.66699 5 12s7.5 4.66602 13.5 3.99902z" />
    <glyph glyph-name="amacron" unicode="&#x101;" horiz-adv-x="271" 
d="M104 679c0.666992 8 4.50098 14 11.501 18s14.5 6 22.5 6s15.167 -1.83301 21.5 -5.5s9.5 -9.16699 9.5 -16.5l90 -667c0.666992 -6.66699 -0.833008 -12 -4.5 -16s-8 -6.66699 -13 -8s-9.83301 -0.833008 -14.5 1.5s-7.33398 6.5 -8.00098 12.5l-37 243
c-10 -0.666992 -18.5 -1 -25.5 -1s-13.667 0.333008 -20 1s-13 1 -20 1s-15.5 -0.333008 -25.5 -1l-34 -242c-2 -5.33301 -5.66699 -9.16602 -11 -11.499s-10.5 -2.83301 -15.5 -1.5s-9.16699 4.16602 -12.5 8.49902s-4.33301 10.5 -3 18.5zM95.001 290
c9.33301 0.666992 17.167 1 23.5 1s12.333 -0.333008 18 -1s11.5 -1 17.5 -1s13.667 0.333008 23 1l-42 350zM238.002 770c4.66699 0 8.16797 -2.16699 10.501 -6.5s3.33301 -9 3 -14s-1.83301 -9.5 -4.5 -13.5s-6.66699 -6 -12 -6l-185 -1
c-5.33301 2 -9.33301 5.33301 -12 10s-3.83398 9.33398 -3.50098 14.001s2 8.66699 5 12s7.5 4.66602 13.5 3.99902z" />
    <glyph glyph-name="Abreve" unicode="&#x102;" horiz-adv-x="446" 
d="M180 679c0.666992 8 4.16797 14.335 10.501 19.002s13.166 7.16699 20.499 7.5s14.333 -1.5 21 -5.5s11 -10.333 13 -19l191 -659c0.666992 -6.66699 -0.833008 -12 -4.5 -16s-8.16699 -6.66699 -13.5 -8s-10.5 -0.833008 -15.5 1.5s-7.83301 6.5 -8.5 12.5l-69 245
c-10 -0.666992 -24.833 -0.833984 -44.5 -0.500977s-40.167 0.833008 -61.5 1.5s-41.833 1.16699 -61.5 1.5s-34.5 0.166016 -44.5 -0.500977l-63 -248c-2 -5.33301 -5.66699 -9.16602 -11 -11.499s-10.5 -2.83301 -15.5 -1.5s-9.16699 4.16602 -12.5 8.49902
s-4.33301 10.5 -3 18.5zM124.001 302.002c9.33301 0.666992 22.668 0.832031 40.001 0.499023s35.5 -0.833008 54.5 -1.5s37.167 -1.16699 54.5 -1.5s30.666 -0.166016 39.999 0.500977l-100 340zM257.003 789c1.33301 4.66699 4.33301 7.49902 9 8.49902
s9.16699 0.833008 13.5 -0.5s7.83301 -3.66602 10.5 -6.99902s3 -7 1 -11c-8 -16.667 -18.833 -29.167 -32.5 -37.5s-27.667 -12.5 -42 -12.5s-27.833 4.16699 -40.5 12.5s-21.334 20.833 -26.001 37.5c-1.33301 4 -0.5 7.5 2.5 10.5s6.66699 5 11 6s8.5 1 12.5 0
s6.66699 -3.16699 8 -6.5c4 -11.333 9.5 -19 16.5 -23s14.333 -5.5 22 -4.5s14.834 4 21.501 9s11 11.167 13 18.5z" />
    <glyph glyph-name="abreve" unicode="&#x103;" horiz-adv-x="271" 
d="M104 679c0.666992 8 4.50098 14 11.501 18s14.5 6 22.5 6s15.167 -1.83301 21.5 -5.5s9.5 -9.16699 9.5 -16.5l90 -667c0.666992 -6.66699 -0.833008 -12 -4.5 -16s-8 -6.66699 -13 -8s-9.83301 -0.833008 -14.5 1.5s-7.33398 6.5 -8.00098 12.5l-37 243
c-10 -0.666992 -18.5 -1 -25.5 -1s-13.667 0.333008 -20 1s-13 1 -20 1s-15.5 -0.333008 -25.5 -1l-34 -242c-2 -5.33301 -5.66699 -9.16602 -11 -11.499s-10.5 -2.83301 -15.5 -1.5s-9.16699 4.16602 -12.5 8.49902s-4.33301 10.5 -3 18.5zM95.001 290
c9.33301 0.666992 17.167 1 23.5 1s12.333 -0.333008 18 -1s11.5 -1 17.5 -1s13.667 0.333008 23 1l-42 350zM182.002 782c1.33301 4.66699 4.33301 7.49902 9 8.49902s9.16699 0.833008 13.5 -0.5s7.83301 -3.66602 10.5 -6.99902s3 -7 1 -11
c-8 -16.667 -18.833 -29.167 -32.5 -37.5s-27.667 -12.5 -42 -12.5s-27.833 4.16699 -40.5 12.5s-21.334 20.833 -26.001 37.5c-1.33301 4 -0.5 7.5 2.5 10.5s6.66699 5 11 6s8.5 1 12.5 0s6.66699 -3.16699 8 -6.5c4 -11.333 9.5 -19 16.5 -23s14.333 -5.5 22 -4.5
s14.834 4 21.501 9s11 11.167 13 18.5z" />
    <glyph glyph-name="Aogonek" unicode="&#x104;" horiz-adv-x="446" 
d="M180 679c0.666992 8 4.16797 14.335 10.501 19.002s13.166 7.16699 20.499 7.5s14.333 -1.5 21 -5.5s11 -10.333 13 -19l191 -659c0.666992 -6.66699 -0.833008 -12 -4.5 -16s-8.16699 -6.66699 -13.5 -8s-10.5 -0.833008 -15.5 1.5s-7.83301 6.5 -8.5 12.5l-69 245
c-10 -0.666992 -24.833 -0.833984 -44.5 -0.500977s-40.167 0.833008 -61.5 1.5s-41.833 1.16699 -61.5 1.5s-34.5 0.166016 -44.5 -0.500977l-63 -248c-2 -5.33301 -5.66699 -9.16602 -11 -11.499s-10.5 -2.83301 -15.5 -1.5s-9.16699 4.16602 -12.5 8.49902
s-4.33301 10.5 -3 18.5zM124.001 302.002c9.33301 0.666992 22.668 0.832031 40.001 0.499023s35.5 -0.833008 54.5 -1.5s37.167 -1.16699 54.5 -1.5s30.666 -0.166016 39.999 0.500977l-100 340zM421.003 -62c4.66699 -0.666992 8.00391 -2.99902 10.0039 -6.99902
s2.83301 -8.33301 2.5 -13s-1.83301 -8.66699 -4.5 -12s-6.33398 -4.33301 -11.001 -3c-18 4.66699 -32.333 13 -43 25s-17.334 25 -20.001 39s-1.16699 28 4.5 42s16.167 25 31.5 33c4 2 7.66699 1.83301 11 -0.5s5.83301 -5.5 7.5 -9.5s2.33398 -8.16699 2.00098 -12.5
s-1.83301 -7.5 -4.5 -9.5c-10 -6 -16.333 -12.833 -19 -20.5s-2.83398 -15.167 -0.500977 -22.5s6.66602 -13.833 12.999 -19.5s13.166 -8.83398 20.499 -9.50098z" />
    <glyph glyph-name="aogonek" unicode="&#x105;" horiz-adv-x="271" 
d="M104 679c0.666992 8 4.50098 14 11.501 18s14.5 6 22.5 6s15.167 -1.83301 21.5 -5.5s9.5 -9.16699 9.5 -16.5l90 -667c0.666992 -6.66699 -0.833008 -12 -4.5 -16s-8 -6.66699 -13 -8s-9.83301 -0.833008 -14.5 1.5s-7.33398 6.5 -8.00098 12.5l-37 243
c-10 -0.666992 -18.5 -1 -25.5 -1s-13.667 0.333008 -20 1s-13 1 -20 1s-15.5 -0.333008 -25.5 -1l-34 -242c-2 -5.33301 -5.66699 -9.16602 -11 -11.499s-10.5 -2.83301 -15.5 -1.5s-9.16699 4.16602 -12.5 8.49902s-4.33301 10.5 -3 18.5zM95.001 290
c9.33301 0.666992 17.167 1 23.5 1s12.333 -0.333008 18 -1s11.5 -1 17.5 -1s13.667 0.333008 23 1l-42 350zM259.002 -76c4.66699 -0.666992 8.00391 -2.99902 10.0039 -6.99902s2.83301 -8.33301 2.5 -13s-1.83301 -8.66699 -4.5 -12s-6.33398 -4.33301 -11.001 -3
c-18 4.66699 -32.333 13 -43 25s-17.334 25 -20.001 39s-1.16699 28 4.5 42s16.167 25 31.5 33c4 2 7.66699 1.83301 11 -0.5s5.83301 -5.5 7.5 -9.5s2.33398 -8.16699 2.00098 -12.5s-1.83301 -7.5 -4.5 -9.5c-10 -6 -16.333 -12.833 -19 -20.5
s-2.83398 -15.167 -0.500977 -22.5s6.66602 -13.833 12.999 -19.5s13.166 -8.83398 20.499 -9.50098z" />
    <glyph glyph-name="Cacute" unicode="&#x106;" horiz-adv-x="340" 
d="M312 675c8.66699 -4.66699 14.333 -10.334 17 -17.001s3.33398 -12.667 2.00098 -18s-4.5 -9.5 -9.5 -12.5s-10.833 -2.83301 -17.5 0.5c-11.333 9.33301 -24 16 -38 20s-27 5.33301 -39 4c-29.333 -2.66699 -54.666 -12.667 -75.999 -30
s-39.166 -40.666 -53.499 -69.999s-25.333 -64 -33 -104s-11.834 -84 -12.501 -132c-0.666992 -35.333 2.83301 -70 10.5 -104s18.667 -64.167 33 -90.5s31.833 -47.666 52.5 -63.999s43.667 -24.5 69 -24.5c13.333 0 26.666 3 39.999 9s27.666 14.667 42.999 26
c4.66699 4 9.33398 5.33301 14.001 4s8.5 -4 11.5 -8s4.33301 -9 4 -15s-3.16602 -11.333 -8.49902 -16c-36.667 -27.333 -72.334 -41 -107.001 -41s-64.834 9.16699 -90.501 27.5s-47 42.666 -64 72.999s-29.833 65 -38.5 104s-13.334 79.5 -14.001 121.5
c-0.666992 46.667 3.83301 92.667 13.5 138s24.334 85.833 44.001 121.5s44 64.334 73 86.001s62.5 31.834 100.5 30.501c12.667 -0.666992 25.167 -2.33398 37.5 -5.00098s24.5 -7.33398 36.5 -14.001zM171.999 740c-2.66699 -5.33301 -6.66699 -8.83496 -12 -10.502
s-10.333 -1.66699 -15 0s-8.16699 4.83398 -10.5 9.50098s-1.83301 10.667 1.5 18l31 65c2 4.66699 5.66699 7.33398 11 8.00098s10.5 0 15.5 -2s8.66699 -5.33301 11 -10s1.83301 -10 -1.5 -16z" />
    <glyph glyph-name="cacute" unicode="&#x107;" horiz-adv-x="210" 
d="M204 526c0 -4.66699 -1.83691 -8.32812 -5.50391 -10.9951s-7.83398 -4 -12.501 -4s-9 1.33301 -13 4s-6 7.33398 -6 14.001c-1.33301 13.333 -2.33301 27.833 -3 43.5s-2.16699 30.167 -4.5 43.5s-5.83301 24.333 -10.5 33s-11.334 13 -20.001 13
c-12 0 -22.167 -6 -30.5 -18s-15.166 -27.333 -20.499 -46s-9.5 -39.334 -12.5 -62.001s-5.33301 -44.667 -7 -66s-2.83398 -40.5 -3.50098 -57.5s-1 -29.5 -1 -37.5c-0.666992 -19.333 -0.5 -41 0.5 -65s2.66699 -48.333 5 -73s5.5 -48.667 9.5 -72s8.66699 -44 14 -62
s11.333 -32.333 18 -43s14 -15.667 22 -15c10.667 0.666992 18.5 8 23.5 22s8.33301 30.833 10 50.5s2.5 40.5 2.5 62.5s0.666992 41.667 2 59c0.666992 6.66699 3.16699 11.667 7.5 15s8.83301 4.66602 13.5 3.99902s8.83398 -2.83398 12.501 -6.50098
s5.83398 -8.83398 6.50098 -15.501c0 -28.667 -0.333008 -57.167 -1 -85.5s-3.5 -53.666 -8.5 -75.999s-13 -40.5 -24 -54.5s-26.833 -20.667 -47.5 -20c-18 0.666992 -33.167 8.66699 -45.5 24s-22.666 35 -30.999 59s-14.666 50.5 -18.999 79.5s-7.5 57.667 -9.5 86
s-3.16699 54.666 -3.5 78.999s-0.166016 43.5 0.500977 57.5c0.666992 11.333 1.16699 27.333 1.5 48s1.5 42.834 3.5 66.501s5.33301 47.667 10 72s11.167 46.333 19.5 66s19.333 35.667 33 48s30.5 18.166 50.5 17.499c16.667 0 29.834 -5.83301 39.501 -17.5
s16.834 -26.334 21.501 -44.001s7.66699 -36.834 9 -57.501s2.66602 -40 3.99902 -58zM120.996 727.006c-2.66699 -5.33301 -6.66699 -8.83496 -12 -10.502s-10.333 -1.66699 -15 0s-8.16699 4.83398 -10.5 9.50098s-1.83301 10.667 1.5 18l31 65
c2 4.66699 5.66699 7.33398 11 8.00098s10.5 0 15.5 -2s8.66699 -5.33301 11 -10s1.83301 -10 -1.5 -16z" />
    <glyph glyph-name="Ccircumflex" unicode="&#x108;" horiz-adv-x="340" 
d="M312 675c8.66699 -4.66699 14.333 -10.334 17 -17.001s3.33398 -12.667 2.00098 -18s-4.5 -9.5 -9.5 -12.5s-10.833 -2.83301 -17.5 0.5c-11.333 9.33301 -24 16 -38 20s-27 5.33301 -39 4c-29.333 -2.66699 -54.666 -12.667 -75.999 -30
s-39.166 -40.666 -53.499 -69.999s-25.333 -64 -33 -104s-11.834 -84 -12.501 -132c-0.666992 -35.333 2.83301 -70 10.5 -104s18.667 -64.167 33 -90.5s31.833 -47.666 52.5 -63.999s43.667 -24.5 69 -24.5c13.333 0 26.666 3 39.999 9s27.666 14.667 42.999 26
c4.66699 4 9.33398 5.33301 14.001 4s8.5 -4 11.5 -8s4.33301 -9 4 -15s-3.16602 -11.333 -8.49902 -16c-36.667 -27.333 -72.334 -41 -107.001 -41s-64.834 9.16699 -90.501 27.5s-47 42.666 -64 72.999s-29.833 65 -38.5 104s-13.334 79.5 -14.001 121.5
c-0.666992 46.667 3.83301 92.667 13.5 138s24.334 85.833 44.001 121.5s44 64.334 73 86.001s62.5 31.834 100.5 30.501c12.667 -0.666992 25.167 -2.33398 37.5 -5.00098s24.5 -7.33398 36.5 -14.001zM180.999 815c4 6.66699 8.66699 11.334 14 14.001
s10.666 3.66699 15.999 3s10.333 -2.5 15 -5.5s8 -6.83301 10 -11.5l31 -65c2 -4 1.66699 -8.16699 -1 -12.5s-6.16699 -7.5 -10.5 -9.5s-8.83301 -2.83301 -13.5 -2.5s-8.33398 2.83301 -11.001 7.5l-23 45l-22 -46c-3.33301 -6 -7.66602 -9.33301 -12.999 -10
s-10.333 0.333008 -15 3s-8.16699 6.16699 -10.5 10.5s-2.16602 9.16602 0.500977 14.499z" />
    <glyph glyph-name="ccircumflex" unicode="&#x109;" horiz-adv-x="210" 
d="M204 526c0 -4.66699 -1.83691 -8.32812 -5.50391 -10.9951s-7.83398 -4 -12.501 -4s-9 1.33301 -13 4s-6 7.33398 -6 14.001c-1.33301 13.333 -2.33301 27.833 -3 43.5s-2.16699 30.167 -4.5 43.5s-5.83301 24.333 -10.5 33s-11.334 13 -20.001 13
c-12 0 -22.167 -6 -30.5 -18s-15.166 -27.333 -20.499 -46s-9.5 -39.334 -12.5 -62.001s-5.33301 -44.667 -7 -66s-2.83398 -40.5 -3.50098 -57.5s-1 -29.5 -1 -37.5c-0.666992 -19.333 -0.5 -41 0.5 -65s2.66699 -48.333 5 -73s5.5 -48.667 9.5 -72s8.66699 -44 14 -62
s11.333 -32.333 18 -43s14 -15.667 22 -15c10.667 0.666992 18.5 8 23.5 22s8.33301 30.833 10 50.5s2.5 40.5 2.5 62.5s0.666992 41.667 2 59c0.666992 6.66699 3.16699 11.667 7.5 15s8.83301 4.66602 13.5 3.99902s8.83398 -2.83398 12.501 -6.50098
s5.83398 -8.83398 6.50098 -15.501c0 -28.667 -0.333008 -57.167 -1 -85.5s-3.5 -53.666 -8.5 -75.999s-13 -40.5 -24 -54.5s-26.833 -20.667 -47.5 -20c-18 0.666992 -33.167 8.66699 -45.5 24s-22.666 35 -30.999 59s-14.666 50.5 -18.999 79.5s-7.5 57.667 -9.5 86
s-3.16699 54.666 -3.5 78.999s-0.166016 43.5 0.500977 57.5c0.666992 11.333 1.16699 27.333 1.5 48s1.5 42.834 3.5 66.501s5.33301 47.667 10 72s11.167 46.333 19.5 66s19.333 35.667 33 48s30.5 18.166 50.5 17.499c16.667 0 29.834 -5.83301 39.501 -17.5
s16.834 -26.334 21.501 -44.001s7.66699 -36.834 9 -57.501s2.66602 -40 3.99902 -58zM96.9961 807.006c4 6.66699 8.66699 11.334 14 14.001s10.666 3.66699 15.999 3s10.333 -2.5 15 -5.5s8 -6.83301 10 -11.5l31 -65c2 -4 1.66699 -8.16699 -1 -12.5
s-6.16699 -7.5 -10.5 -9.5s-8.83301 -2.83301 -13.5 -2.5s-8.33398 2.83301 -11.001 7.5l-23 45l-22 -46c-3.33301 -6 -7.66602 -9.33301 -12.999 -10s-10.333 0.333008 -15 3s-8.16699 6.16699 -10.5 10.5s-2.16602 9.16602 0.500977 14.499z" />
    <glyph glyph-name="Cdotaccent" unicode="&#x10a;" horiz-adv-x="340" 
d="M312 675c8.66699 -4.66699 14.333 -10.334 17 -17.001s3.33398 -12.667 2.00098 -18s-4.5 -9.5 -9.5 -12.5s-10.833 -2.83301 -17.5 0.5c-11.333 9.33301 -24 16 -38 20s-27 5.33301 -39 4c-29.333 -2.66699 -54.666 -12.667 -75.999 -30
s-39.166 -40.666 -53.499 -69.999s-25.333 -64 -33 -104s-11.834 -84 -12.501 -132c-0.666992 -35.333 2.83301 -70 10.5 -104s18.667 -64.167 33 -90.5s31.833 -47.666 52.5 -63.999s43.667 -24.5 69 -24.5c13.333 0 26.666 3 39.999 9s27.666 14.667 42.999 26
c4.66699 4 9.33398 5.33301 14.001 4s8.5 -4 11.5 -8s4.33301 -9 4 -15s-3.16602 -11.333 -8.49902 -16c-36.667 -27.333 -72.334 -41 -107.001 -41s-64.834 9.16699 -90.501 27.5s-47 42.666 -64 72.999s-29.833 65 -38.5 104s-13.334 79.5 -14.001 121.5
c-0.666992 46.667 3.83301 92.667 13.5 138s24.334 85.833 44.001 121.5s44 64.334 73 86.001s62.5 31.834 100.5 30.501c12.667 -0.666992 25.167 -2.33398 37.5 -5.00098s24.5 -7.33398 36.5 -14.001zM193.999 750c0 7.33301 2.66699 13.666 8 18.999s11.666 8 18.999 8
s13.666 -2.66699 18.999 -8s8 -11.666 8 -18.999s-2.66699 -13.666 -8 -18.999s-11.666 -8 -18.999 -8s-13.666 2.66699 -18.999 8s-8 11.666 -8 18.999z" />
    <glyph glyph-name="cdotaccent" unicode="&#x10b;" horiz-adv-x="210" 
d="M204 526c0 -4.66699 -1.83691 -8.32812 -5.50391 -10.9951s-7.83398 -4 -12.501 -4s-9 1.33301 -13 4s-6 7.33398 -6 14.001c-1.33301 13.333 -2.33301 27.833 -3 43.5s-2.16699 30.167 -4.5 43.5s-5.83301 24.333 -10.5 33s-11.334 13 -20.001 13
c-12 0 -22.167 -6 -30.5 -18s-15.166 -27.333 -20.499 -46s-9.5 -39.334 -12.5 -62.001s-5.33301 -44.667 -7 -66s-2.83398 -40.5 -3.50098 -57.5s-1 -29.5 -1 -37.5c-0.666992 -19.333 -0.5 -41 0.5 -65s2.66699 -48.333 5 -73s5.5 -48.667 9.5 -72s8.66699 -44 14 -62
s11.333 -32.333 18 -43s14 -15.667 22 -15c10.667 0.666992 18.5 8 23.5 22s8.33301 30.833 10 50.5s2.5 40.5 2.5 62.5s0.666992 41.667 2 59c0.666992 6.66699 3.16699 11.667 7.5 15s8.83301 4.66602 13.5 3.99902s8.83398 -2.83398 12.501 -6.50098
s5.83398 -8.83398 6.50098 -15.501c0 -28.667 -0.333008 -57.167 -1 -85.5s-3.5 -53.666 -8.5 -75.999s-13 -40.5 -24 -54.5s-26.833 -20.667 -47.5 -20c-18 0.666992 -33.167 8.66699 -45.5 24s-22.666 35 -30.999 59s-14.666 50.5 -18.999 79.5s-7.5 57.667 -9.5 86
s-3.16699 54.666 -3.5 78.999s-0.166016 43.5 0.500977 57.5c0.666992 11.333 1.16699 27.333 1.5 48s1.5 42.834 3.5 66.501s5.33301 47.667 10 72s11.167 46.333 19.5 66s19.333 35.667 33 48s30.5 18.166 50.5 17.499c16.667 0 29.834 -5.83301 39.501 -17.5
s16.834 -26.334 21.501 -44.001s7.66699 -36.834 9 -57.501s2.66602 -40 3.99902 -58zM94.9961 749.006c0 7.33301 2.66699 13.666 8 18.999s11.666 8 18.999 8s13.666 -2.66699 18.999 -8s8 -11.666 8 -18.999s-2.66699 -13.666 -8 -18.999s-11.666 -8 -18.999 -8
s-13.666 2.66699 -18.999 8s-8 11.666 -8 18.999z" />
    <glyph glyph-name="Ccaron" unicode="&#x10c;" horiz-adv-x="340" 
d="M312 675c8.66699 -4.66699 14.333 -10.334 17 -17.001s3.33398 -12.667 2.00098 -18s-4.5 -9.5 -9.5 -12.5s-10.833 -2.83301 -17.5 0.5c-11.333 9.33301 -24 16 -38 20s-27 5.33301 -39 4c-29.333 -2.66699 -54.666 -12.667 -75.999 -30
s-39.166 -40.666 -53.499 -69.999s-25.333 -64 -33 -104s-11.834 -84 -12.501 -132c-0.666992 -35.333 2.83301 -70 10.5 -104s18.667 -64.167 33 -90.5s31.833 -47.666 52.5 -63.999s43.667 -24.5 69 -24.5c13.333 0 26.666 3 39.999 9s27.666 14.667 42.999 26
c4.66699 4 9.33398 5.33301 14.001 4s8.5 -4 11.5 -8s4.33301 -9 4 -15s-3.16602 -11.333 -8.49902 -16c-36.667 -27.333 -72.334 -41 -107.001 -41s-64.834 9.16699 -90.501 27.5s-47 42.666 -64 72.999s-29.833 65 -38.5 104s-13.334 79.5 -14.001 121.5
c-0.666992 46.667 3.83301 92.667 13.5 138s24.334 85.833 44.001 121.5s44 64.334 73 86.001s62.5 31.834 100.5 30.501c12.667 -0.666992 25.167 -2.33398 37.5 -5.00098s24.5 -7.33398 36.5 -14.001zM227.999 740c-4 -7.33301 -8.66992 -12.166 -14.0029 -14.499
s-10.666 -3.16602 -15.999 -2.49902s-10.333 2.5 -15 5.5s-8 6.83301 -10 11.5l-31 65c-2 4 -1.66699 8.16699 1 12.5s6.16699 7.5 10.5 9.5s8.83301 2.83301 13.5 2.5s8.33398 -2.83301 11.001 -7.5l23 -45l22 46c2.66699 6 6.83398 9.33301 12.501 10
s10.834 -0.333008 15.501 -3s8.16699 -6.33398 10.5 -11.001s2.16602 -9.33398 -0.500977 -14.001z" />
    <glyph glyph-name="ccaron" unicode="&#x10d;" horiz-adv-x="210" 
d="M204 526c0 -4.66699 -1.83691 -8.32812 -5.50391 -10.9951s-7.83398 -4 -12.501 -4s-9 1.33301 -13 4s-6 7.33398 -6 14.001c-1.33301 13.333 -2.33301 27.833 -3 43.5s-2.16699 30.167 -4.5 43.5s-5.83301 24.333 -10.5 33s-11.334 13 -20.001 13
c-12 0 -22.167 -6 -30.5 -18s-15.166 -27.333 -20.499 -46s-9.5 -39.334 -12.5 -62.001s-5.33301 -44.667 -7 -66s-2.83398 -40.5 -3.50098 -57.5s-1 -29.5 -1 -37.5c-0.666992 -19.333 -0.5 -41 0.5 -65s2.66699 -48.333 5 -73s5.5 -48.667 9.5 -72s8.66699 -44 14 -62
s11.333 -32.333 18 -43s14 -15.667 22 -15c10.667 0.666992 18.5 8 23.5 22s8.33301 30.833 10 50.5s2.5 40.5 2.5 62.5s0.666992 41.667 2 59c0.666992 6.66699 3.16699 11.667 7.5 15s8.83301 4.66602 13.5 3.99902s8.83398 -2.83398 12.501 -6.50098
s5.83398 -8.83398 6.50098 -15.501c0 -28.667 -0.333008 -57.167 -1 -85.5s-3.5 -53.666 -8.5 -75.999s-13 -40.5 -24 -54.5s-26.833 -20.667 -47.5 -20c-18 0.666992 -33.167 8.66699 -45.5 24s-22.666 35 -30.999 59s-14.666 50.5 -18.999 79.5s-7.5 57.667 -9.5 86
s-3.16699 54.666 -3.5 78.999s-0.166016 43.5 0.500977 57.5c0.666992 11.333 1.16699 27.333 1.5 48s1.5 42.834 3.5 66.501s5.33301 47.667 10 72s11.167 46.333 19.5 66s19.333 35.667 33 48s30.5 18.166 50.5 17.499c16.667 0 29.834 -5.83301 39.501 -17.5
s16.834 -26.334 21.501 -44.001s7.66699 -36.834 9 -57.501s2.66602 -40 3.99902 -58zM152.996 741.006c-4 -7.33301 -8.66992 -12.166 -14.0029 -14.499s-10.666 -3.16602 -15.999 -2.49902s-10.333 2.5 -15 5.5s-8 6.83301 -10 11.5l-31 65c-2 4 -1.66699 8.16699 1 12.5
s6.16699 7.5 10.5 9.5s8.83301 2.83301 13.5 2.5s8.33398 -2.83301 11.001 -7.5l23 -45l22 46c2.66699 6 6.83398 9.33301 12.501 10s10.834 -0.333008 15.501 -3s8.16699 -6.33398 10.5 -11.001s2.16602 -9.33398 -0.500977 -14.001z" />
    <glyph glyph-name="Dcaron" unicode="&#x10e;" horiz-adv-x="319" 
d="M9 356v310c2 13.333 5.33301 21.5 10 24.5s14 5.83301 28 8.5c39.333 -2 75.5 -12.833 108.5 -32.5s61.333 -45.5 85 -77.5s42 -69 55 -111s19.167 -86.333 18.5 -133c-1.33301 -68 -10 -123.333 -26 -166s-36.167 -76.5 -60.5 -101.5s-51.833 -43 -82.5 -54
s-61 -18.833 -91 -23.5c-18.667 -3.33301 -30.167 -2.5 -34.5 2.5s-6.83301 10.5 -7.5 16.5zM57 347l0.000976562 -302.001c8.66699 -0.666992 20 0.166016 34 2.49902s28.833 7.33301 44.5 15s31.5 18.334 47.5 32.001s30.5 31.5 43.5 53.5s23.333 48.333 31 79
s11.5 67 11.5 109c-0.666992 47.333 -7.16699 90.5 -19.5 129.5s-28.5 72.333 -48.5 100s-42.833 49.334 -68.5 65.001s-51.834 24.167 -78.501 25.5zM133.001 745.999c-4 -7.33301 -8.66992 -12.166 -14.0029 -14.499s-10.666 -3.16602 -15.999 -2.49902
s-10.333 2.5 -15 5.5s-8 6.83301 -10 11.5l-31 65c-2 4 -1.66699 8.16699 1 12.5s6.16699 7.5 10.5 9.5s8.83301 2.83301 13.5 2.5s8.33398 -2.83301 11.001 -7.5l23 -45l22 46c2.66699 6 6.83398 9.33301 12.501 10s10.834 -0.333008 15.501 -3
s8.16699 -6.33398 10.5 -11.001s2.16602 -9.33398 -0.500977 -14.001z" />
    <glyph glyph-name="dcaron" unicode="&#x10f;" horiz-adv-x="304" 
d="M12 670c0 10.667 3.66602 19.165 10.999 25.498s15.333 7.5 24 3.5c33.333 -11.333 61.833 -28.666 85.5 -51.999s43 -50.166 58 -80.499s25.667 -63.166 32 -98.499s8.5 -70.333 6.5 -105c-2.66699 -67.333 -19 -132.5 -49 -195.5s-72 -117.5 -126 -163.5
c-8 -2 -16.667 -3.33301 -26 -4s-14.666 3.66602 -15.999 12.999v657zM52.999 55.998c39.333 40 71.334 86.167 96.001 138.5s37.667 107.833 39 166.5c0.666992 25.333 -0.5 52 -3.5 80s-9.5 55 -19.5 81s-23.833 50 -41.5 72s-40.834 39.667 -69.501 53zM226 661.998
c-5.33301 4 -7.49805 8.33105 -6.49805 12.998s3.66699 8.33398 8 11.001s9.66602 3.83398 15.999 3.50098s11.833 -3.16602 16.5 -8.49902c10 -11.333 16 -27.833 18 -49.5s-2.66699 -43.167 -14 -64.5c-3.33301 -6 -7.33301 -9.33301 -12 -10s-9 0.5 -13 3.5
s-6.66699 7 -8 12s-0.333008 10.5 3 16.5c6.66699 11.333 9.16699 24.666 7.5 39.999s-6.83398 26.333 -15.501 33z" />
    <glyph glyph-name="Dcroat" unicode="&#x110;" horiz-adv-x="319" 
d="M9 356v310c2 13.333 5.33301 21.5 10 24.5s14 5.83301 28 8.5c39.333 -2 75.5 -12.833 108.5 -32.5s61.333 -45.5 85 -77.5s42 -69 55 -111s19.167 -86.333 18.5 -133c-1.33301 -68 -10 -123.333 -26 -166s-36.167 -76.5 -60.5 -101.5s-51.833 -43 -82.5 -54
s-61 -18.833 -91 -23.5c-18.667 -3.33301 -30.167 -2.5 -34.5 2.5s-6.83301 10.5 -7.5 16.5zM57 347l0.000976562 -302.001c8.66699 -0.666992 20 0.166016 34 2.49902s28.833 7.33301 44.5 15s31.5 18.334 47.5 32.001s30.5 31.5 43.5 53.5s23.333 48.333 31 79
s11.5 67 11.5 109c-0.666992 47.333 -7.16699 90.5 -19.5 129.5s-28.5 72.333 -48.5 100s-42.833 49.334 -68.5 65.001s-51.834 24.167 -78.501 25.5zM188.001 358.999c4.66699 0 8.16797 -2.16699 10.501 -6.5s3.33301 -9 3 -14s-1.83301 -9.5 -4.5 -13.5
s-6.66699 -6 -12 -6l-185 -1c-5.33301 2 -9.33301 5.33301 -12 10s-3.83398 9.33398 -3.50098 14.001s2 8.66699 5 12s7.5 4.66602 13.5 3.99902z" />
    <glyph glyph-name="dcroat" unicode="&#x111;" horiz-adv-x="245" 
d="M109 395c4.66699 0 8.16797 -2.16699 10.501 -6.5s3.33301 -9 3 -14s-1.83301 -9.5 -4.5 -13.5s-6.66699 -6 -12 -6l-123 1c-5.33301 2 -9.33301 5.33301 -12 10s-3.83398 9.33398 -3.50098 14.001s2 8.66699 5 12s7.5 4.66602 13.5 3.99902zM12.001 670
c0 10.667 3.66602 19.165 10.999 25.498s15.333 7.5 24 3.5c33.333 -11.333 61.833 -28.666 85.5 -51.999s43 -50.166 58 -80.499s25.667 -63.166 32 -98.499s8.5 -70.333 6.5 -105c-2.66699 -67.333 -19 -132.5 -49 -195.5s-72 -117.5 -126 -163.5
c-8 -2 -16.667 -3.33301 -26 -4s-14.666 3.66602 -15.999 12.999v657zM53 55.998c39.333 40 71.334 86.167 96.001 138.5s37.667 107.833 39 166.5c0.666992 25.333 -0.5 52 -3.5 80s-9.5 55 -19.5 81s-23.833 50 -41.5 72s-40.834 39.667 -69.501 53z" />
    <glyph glyph-name="Emacron" unicode="&#x112;" horiz-adv-x="316" 
d="M290 703c6.66699 -1.33301 11.5 -4.33008 14.5 -8.99707s4.16699 -9.33398 3.5 -14.001s-3.16699 -8.83398 -7.5 -12.501s-9.83301 -5.16699 -16.5 -4.5h-221c-2.66699 -28.667 -4.16699 -56.334 -4.5 -83.001s-0.333008 -53.167 0 -79.5s1 -52.833 2 -79.5
s1.83301 -54.334 2.5 -83.001c5.33301 0 18 0.166992 38 0.5s41.5 0.666016 64.5 0.999023s44.5 0.666016 64.5 0.999023s32.667 0.5 38 0.5c6 -1.33301 10.5 -3.83301 13.5 -7.5s4.5 -7.66699 4.5 -12s-1.5 -8.33301 -4.5 -12s-7.16699 -6.5 -12.5 -8.5
c-5.33301 0 -18.166 -0.166992 -38.499 -0.5s-42 -0.666016 -65 -0.999023s-44.5 -0.666016 -64.5 -0.999023s-32.667 -0.5 -38 -0.5c0 -31.333 -0.166992 -58.333 -0.5 -81s-0.5 -43.5 -0.5 -62.5s0.166992 -37.167 0.5 -54.5s0.5 -36 0.5 -56
c10.667 -0.666992 26.5 -1.16699 47.5 -1.5s43.167 -0.5 66.5 -0.5s45.5 0.166992 66.5 0.5s36.833 0.833008 47.5 1.5c3.33301 0 6.33301 -1.66699 9 -5s4.33398 -7.33301 5.00098 -12s0 -9.16699 -2 -13.5s-5.66699 -7.5 -11 -9.5c-6.66699 -0.666992 -16.667 -1 -30 -1
s-28.166 -0.166992 -44.499 -0.5s-33.666 -0.5 -51.999 -0.5h-52c-16.333 0 -31 0.166992 -44 0.5s-22.833 0.833008 -29.5 1.5c-5.33301 0.666992 -9.33301 4 -12 10s-4.33398 13 -5.00098 21s-0.833984 16.167 -0.500977 24.5s0.5 14.5 0.5 18.5
c0 9.33301 -0.166992 28.166 -0.5 56.499s-0.833008 61.833 -1.5 100.5s-1.33398 79.834 -2.00098 123.501s-1 85.167 -1 124.5s0.166992 74 0.5 104s1.16602 51 2.49902 63c1.33301 18 4.83301 30.833 10.5 38.5s18.167 11.834 37.5 12.501zM253 776.003
c4.66699 0 8.16797 -2.16699 10.501 -6.5s3.33301 -9 3 -14s-1.83301 -9.5 -4.5 -13.5s-6.66699 -6 -12 -6l-185 -1c-5.33301 2 -9.33301 5.33301 -12 10s-3.83398 9.33398 -3.50098 14.001s2 8.66699 5 12s7.5 4.66602 13.5 3.99902z" />
    <glyph glyph-name="emacron" unicode="&#x113;" 
d="M178 703c6.66699 -1.33301 11.499 -4.33203 14.499 -8.99902s4.16699 -9.33398 3.5 -14.001s-3.16699 -8.83398 -7.5 -12.501s-9.83301 -5.16699 -16.5 -4.5h-109v-325c11.333 0 23.5 0.333008 36.5 1s25.167 1 36.5 1c6 -1.33301 10.5 -3.83301 13.5 -7.5
s4.5 -7.66699 4.5 -12s-1.5 -8.33301 -4.5 -12s-7.16699 -6.5 -12.5 -8.5c-11.333 0 -23.666 -0.333008 -36.999 -1s-25.666 -1 -36.999 -1c0 -31.333 -0.166992 -58.333 -0.5 -81s-0.5 -43.5 -0.5 -62.5s0.166992 -37.167 0.5 -54.5s0.5 -36 0.5 -56l115 -3
c3.33301 0 6.33301 -1.66699 9 -5s4.33398 -7.33301 5.00098 -12s0 -9.16699 -2 -13.5s-5.66699 -7.5 -11 -9.5c-10 -0.666992 -21 -1.16699 -33 -1.5l-37 -1c-12.667 -0.333008 -24.834 -0.333008 -36.501 0s-22.5 0.833008 -32.5 1.5
c-5.33301 0.666992 -9.33301 4.33398 -12 11.001s-4.33398 14.167 -5.00098 22.5s-0.833984 16.833 -0.500977 25.5s0.5 15 0.5 19v54v95v118c0 42 -0.166992 82.667 -0.5 122s-0.666016 75.166 -0.999023 107.499s-0.5 57.5 -0.5 75.5c-0.666992 18 2.33301 30.833 9 38.5
s19.667 11.834 39 12.501zM201.999 766.001c4.66699 0 8.16797 -2.16699 10.501 -6.5s3.33301 -9 3 -14s-1.83301 -9.5 -4.5 -13.5s-6.66699 -6 -12 -6l-185 -1c-5.33301 2 -9.33301 5.33301 -12 10s-3.83398 9.33398 -3.50098 14.001s2 8.66699 5 12
s7.5 4.66602 13.5 3.99902z" />
    <glyph glyph-name="Ebreve" unicode="&#x114;" horiz-adv-x="316" 
d="M290 703c6.66699 -1.33301 11.5 -4.33008 14.5 -8.99707s4.16699 -9.33398 3.5 -14.001s-3.16699 -8.83398 -7.5 -12.501s-9.83301 -5.16699 -16.5 -4.5h-221c-2.66699 -28.667 -4.16699 -56.334 -4.5 -83.001s-0.333008 -53.167 0 -79.5s1 -52.833 2 -79.5
s1.83301 -54.334 2.5 -83.001c5.33301 0 18 0.166992 38 0.5s41.5 0.666016 64.5 0.999023s44.5 0.666016 64.5 0.999023s32.667 0.5 38 0.5c6 -1.33301 10.5 -3.83301 13.5 -7.5s4.5 -7.66699 4.5 -12s-1.5 -8.33301 -4.5 -12s-7.16699 -6.5 -12.5 -8.5
c-5.33301 0 -18.166 -0.166992 -38.499 -0.5s-42 -0.666016 -65 -0.999023s-44.5 -0.666016 -64.5 -0.999023s-32.667 -0.5 -38 -0.5c0 -31.333 -0.166992 -58.333 -0.5 -81s-0.5 -43.5 -0.5 -62.5s0.166992 -37.167 0.5 -54.5s0.5 -36 0.5 -56
c10.667 -0.666992 26.5 -1.16699 47.5 -1.5s43.167 -0.5 66.5 -0.5s45.5 0.166992 66.5 0.5s36.833 0.833008 47.5 1.5c3.33301 0 6.33301 -1.66699 9 -5s4.33398 -7.33301 5.00098 -12s0 -9.16699 -2 -13.5s-5.66699 -7.5 -11 -9.5c-6.66699 -0.666992 -16.667 -1 -30 -1
s-28.166 -0.166992 -44.499 -0.5s-33.666 -0.5 -51.999 -0.5h-52c-16.333 0 -31 0.166992 -44 0.5s-22.833 0.833008 -29.5 1.5c-5.33301 0.666992 -9.33301 4 -12 10s-4.33398 13 -5.00098 21s-0.833984 16.167 -0.500977 24.5s0.5 14.5 0.5 18.5
c0 9.33301 -0.166992 28.166 -0.5 56.499s-0.833008 61.833 -1.5 100.5s-1.33398 79.834 -2.00098 123.501s-1 85.167 -1 124.5s0.166992 74 0.5 104s1.16602 51 2.49902 63c1.33301 18 4.83301 30.833 10.5 38.5s18.167 11.834 37.5 12.501zM192 789.003
c1.33301 4.66699 4.33301 7.49902 9 8.49902s9.16699 0.833008 13.5 -0.5s7.83301 -3.66602 10.5 -6.99902s3 -7 1 -11c-8 -16.667 -18.833 -29.167 -32.5 -37.5s-27.667 -12.5 -42 -12.5s-27.833 4.16699 -40.5 12.5s-21.334 20.833 -26.001 37.5
c-1.33301 4 -0.5 7.5 2.5 10.5s6.66699 5 11 6s8.5 1 12.5 0s6.66699 -3.16699 8 -6.5c4 -11.333 9.5 -19 16.5 -23s14.333 -5.5 22 -4.5s14.834 4 21.501 9s11 11.167 13 18.5z" />
    <glyph glyph-name="ebreve" unicode="&#x115;" 
d="M178 703c6.66699 -1.33301 11.499 -4.33203 14.499 -8.99902s4.16699 -9.33398 3.5 -14.001s-3.16699 -8.83398 -7.5 -12.501s-9.83301 -5.16699 -16.5 -4.5h-109v-325c11.333 0 23.5 0.333008 36.5 1s25.167 1 36.5 1c6 -1.33301 10.5 -3.83301 13.5 -7.5
s4.5 -7.66699 4.5 -12s-1.5 -8.33301 -4.5 -12s-7.16699 -6.5 -12.5 -8.5c-11.333 0 -23.666 -0.333008 -36.999 -1s-25.666 -1 -36.999 -1c0 -31.333 -0.166992 -58.333 -0.5 -81s-0.5 -43.5 -0.5 -62.5s0.166992 -37.167 0.5 -54.5s0.5 -36 0.5 -56l115 -3
c3.33301 0 6.33301 -1.66699 9 -5s4.33398 -7.33301 5.00098 -12s0 -9.16699 -2 -13.5s-5.66699 -7.5 -11 -9.5c-10 -0.666992 -21 -1.16699 -33 -1.5l-37 -1c-12.667 -0.333008 -24.834 -0.333008 -36.501 0s-22.5 0.833008 -32.5 1.5
c-5.33301 0.666992 -9.33301 4.33398 -12 11.001s-4.33398 14.167 -5.00098 22.5s-0.833984 16.833 -0.500977 25.5s0.5 15 0.5 19v54v95v118c0 42 -0.166992 82.667 -0.5 122s-0.666016 75.166 -0.999023 107.499s-0.5 57.5 -0.5 75.5c-0.666992 18 2.33301 30.833 9 38.5
s19.667 11.834 39 12.501zM143.999 779.001c1.33301 4.66699 4.33301 7.49902 9 8.49902s9.16699 0.833008 13.5 -0.5s7.83301 -3.66602 10.5 -6.99902s3 -7 1 -11c-8 -16.667 -18.833 -29.167 -32.5 -37.5s-27.667 -12.5 -42 -12.5s-27.833 4.16699 -40.5 12.5
s-21.334 20.833 -26.001 37.5c-1.33301 4 -0.5 7.5 2.5 10.5s6.66699 5 11 6s8.5 1 12.5 0s6.66699 -3.16699 8 -6.5c4 -11.333 9.5 -19 16.5 -23s14.333 -5.5 22 -4.5s14.834 4 21.501 9s11 11.167 13 18.5z" />
    <glyph glyph-name="Edotaccent" unicode="&#x116;" horiz-adv-x="316" 
d="M290 703c6.66699 -1.33301 11.5 -4.33008 14.5 -8.99707s4.16699 -9.33398 3.5 -14.001s-3.16699 -8.83398 -7.5 -12.501s-9.83301 -5.16699 -16.5 -4.5h-221c-2.66699 -28.667 -4.16699 -56.334 -4.5 -83.001s-0.333008 -53.167 0 -79.5s1 -52.833 2 -79.5
s1.83301 -54.334 2.5 -83.001c5.33301 0 18 0.166992 38 0.5s41.5 0.666016 64.5 0.999023s44.5 0.666016 64.5 0.999023s32.667 0.5 38 0.5c6 -1.33301 10.5 -3.83301 13.5 -7.5s4.5 -7.66699 4.5 -12s-1.5 -8.33301 -4.5 -12s-7.16699 -6.5 -12.5 -8.5
c-5.33301 0 -18.166 -0.166992 -38.499 -0.5s-42 -0.666016 -65 -0.999023s-44.5 -0.666016 -64.5 -0.999023s-32.667 -0.5 -38 -0.5c0 -31.333 -0.166992 -58.333 -0.5 -81s-0.5 -43.5 -0.5 -62.5s0.166992 -37.167 0.5 -54.5s0.5 -36 0.5 -56
c10.667 -0.666992 26.5 -1.16699 47.5 -1.5s43.167 -0.5 66.5 -0.5s45.5 0.166992 66.5 0.5s36.833 0.833008 47.5 1.5c3.33301 0 6.33301 -1.66699 9 -5s4.33398 -7.33301 5.00098 -12s0 -9.16699 -2 -13.5s-5.66699 -7.5 -11 -9.5c-6.66699 -0.666992 -16.667 -1 -30 -1
s-28.166 -0.166992 -44.499 -0.5s-33.666 -0.5 -51.999 -0.5h-52c-16.333 0 -31 0.166992 -44 0.5s-22.833 0.833008 -29.5 1.5c-5.33301 0.666992 -9.33301 4 -12 10s-4.33398 13 -5.00098 21s-0.833984 16.167 -0.500977 24.5s0.5 14.5 0.5 18.5
c0 9.33301 -0.166992 28.166 -0.5 56.499s-0.833008 61.833 -1.5 100.5s-1.33398 79.834 -2.00098 123.501s-1 85.167 -1 124.5s0.166992 74 0.5 104s1.16602 51 2.49902 63c1.33301 18 4.83301 30.833 10.5 38.5s18.167 11.834 37.5 12.501zM131 759.003
c0 7.33301 2.66699 13.666 8 18.999s11.666 8 18.999 8s13.666 -2.66699 18.999 -8s8 -11.666 8 -18.999s-2.66699 -13.666 -8 -18.999s-11.666 -8 -18.999 -8s-13.666 2.66699 -18.999 8s-8 11.666 -8 18.999z" />
    <glyph glyph-name="edotaccent" unicode="&#x117;" 
d="M178 703c6.66699 -1.33301 11.499 -4.33203 14.499 -8.99902s4.16699 -9.33398 3.5 -14.001s-3.16699 -8.83398 -7.5 -12.501s-9.83301 -5.16699 -16.5 -4.5h-109v-325c11.333 0 23.5 0.333008 36.5 1s25.167 1 36.5 1c6 -1.33301 10.5 -3.83301 13.5 -7.5
s4.5 -7.66699 4.5 -12s-1.5 -8.33301 -4.5 -12s-7.16699 -6.5 -12.5 -8.5c-11.333 0 -23.666 -0.333008 -36.999 -1s-25.666 -1 -36.999 -1c0 -31.333 -0.166992 -58.333 -0.5 -81s-0.5 -43.5 -0.5 -62.5s0.166992 -37.167 0.5 -54.5s0.5 -36 0.5 -56l115 -3
c3.33301 0 6.33301 -1.66699 9 -5s4.33398 -7.33301 5.00098 -12s0 -9.16699 -2 -13.5s-5.66699 -7.5 -11 -9.5c-10 -0.666992 -21 -1.16699 -33 -1.5l-37 -1c-12.667 -0.333008 -24.834 -0.333008 -36.501 0s-22.5 0.833008 -32.5 1.5
c-5.33301 0.666992 -9.33301 4.33398 -12 11.001s-4.33398 14.167 -5.00098 22.5s-0.833984 16.833 -0.500977 25.5s0.5 15 0.5 19v54v95v118c0 42 -0.166992 82.667 -0.5 122s-0.666016 75.166 -0.999023 107.499s-0.5 57.5 -0.5 75.5c-0.666992 18 2.33301 30.833 9 38.5
s19.667 11.834 39 12.501zM83.999 744.001c0 7.33301 2.66699 13.666 8 18.999s11.666 8 18.999 8s13.666 -2.66699 18.999 -8s8 -11.666 8 -18.999s-2.66699 -13.666 -8 -18.999s-11.666 -8 -18.999 -8s-13.666 2.66699 -18.999 8s-8 11.666 -8 18.999z" />
    <glyph glyph-name="Eogonek" unicode="&#x118;" horiz-adv-x="316" 
d="M290 703c6.66699 -1.33301 11.5 -4.33008 14.5 -8.99707s4.16699 -9.33398 3.5 -14.001s-3.16699 -8.83398 -7.5 -12.501s-9.83301 -5.16699 -16.5 -4.5h-221c-2.66699 -28.667 -4.16699 -56.334 -4.5 -83.001s-0.333008 -53.167 0 -79.5s1 -52.833 2 -79.5
s1.83301 -54.334 2.5 -83.001c5.33301 0 18 0.166992 38 0.5s41.5 0.666016 64.5 0.999023s44.5 0.666016 64.5 0.999023s32.667 0.5 38 0.5c6 -1.33301 10.5 -3.83301 13.5 -7.5s4.5 -7.66699 4.5 -12s-1.5 -8.33301 -4.5 -12s-7.16699 -6.5 -12.5 -8.5
c-5.33301 0 -18.166 -0.166992 -38.499 -0.5s-42 -0.666016 -65 -0.999023s-44.5 -0.666016 -64.5 -0.999023s-32.667 -0.5 -38 -0.5c0 -31.333 -0.166992 -58.333 -0.5 -81s-0.5 -43.5 -0.5 -62.5s0.166992 -37.167 0.5 -54.5s0.5 -36 0.5 -56
c10.667 -0.666992 26.5 -1.16699 47.5 -1.5s43.167 -0.5 66.5 -0.5s45.5 0.166992 66.5 0.5s36.833 0.833008 47.5 1.5c3.33301 0 6.33301 -1.66699 9 -5s4.33398 -7.33301 5.00098 -12s0 -9.16699 -2 -13.5s-5.66699 -7.5 -11 -9.5c-6.66699 -0.666992 -16.667 -1 -30 -1
s-28.166 -0.166992 -44.499 -0.5s-33.666 -0.5 -51.999 -0.5h-52c-16.333 0 -31 0.166992 -44 0.5s-22.833 0.833008 -29.5 1.5c-5.33301 0.666992 -9.33301 4 -12 10s-4.33398 13 -5.00098 21s-0.833984 16.167 -0.500977 24.5s0.5 14.5 0.5 18.5
c0 9.33301 -0.166992 28.166 -0.5 56.499s-0.833008 61.833 -1.5 100.5s-1.33398 79.834 -2.00098 123.501s-1 85.167 -1 124.5s0.166992 74 0.5 104s1.16602 51 2.49902 63c1.33301 18 4.83301 30.833 10.5 38.5s18.167 11.834 37.5 12.501zM298 -61.9971
c4.66699 -0.666992 8.00391 -2.99902 10.0039 -6.99902s2.83301 -8.33301 2.5 -13s-1.83301 -8.66699 -4.5 -12s-6.33398 -4.33301 -11.001 -3c-18 4.66699 -32.333 13 -43 25s-17.334 25 -20.001 39s-1.16699 28 4.5 42s16.167 25 31.5 33c4 2 7.66699 1.83301 11 -0.5
s5.83301 -5.5 7.5 -9.5s2.33398 -8.16699 2.00098 -12.5s-1.83301 -7.5 -4.5 -9.5c-10 -6 -16.333 -12.833 -19 -20.5s-2.83398 -15.167 -0.500977 -22.5s6.66602 -13.833 12.999 -19.5s13.166 -8.83398 20.499 -9.50098z" />
    <glyph glyph-name="eogonek" unicode="&#x119;" 
d="M178 703c6.66699 -1.33301 11.499 -4.33203 14.499 -8.99902s4.16699 -9.33398 3.5 -14.001s-3.16699 -8.83398 -7.5 -12.501s-9.83301 -5.16699 -16.5 -4.5h-109v-325c11.333 0 23.5 0.333008 36.5 1s25.167 1 36.5 1c6 -1.33301 10.5 -3.83301 13.5 -7.5
s4.5 -7.66699 4.5 -12s-1.5 -8.33301 -4.5 -12s-7.16699 -6.5 -12.5 -8.5c-11.333 0 -23.666 -0.333008 -36.999 -1s-25.666 -1 -36.999 -1c0 -31.333 -0.166992 -58.333 -0.5 -81s-0.5 -43.5 -0.5 -62.5s0.166992 -37.167 0.5 -54.5s0.5 -36 0.5 -56l115 -3
c3.33301 0 6.33301 -1.66699 9 -5s4.33398 -7.33301 5.00098 -12s0 -9.16699 -2 -13.5s-5.66699 -7.5 -11 -9.5c-10 -0.666992 -21 -1.16699 -33 -1.5l-37 -1c-12.667 -0.333008 -24.834 -0.333008 -36.501 0s-22.5 0.833008 -32.5 1.5
c-5.33301 0.666992 -9.33301 4.33398 -12 11.001s-4.33398 14.167 -5.00098 22.5s-0.833984 16.833 -0.500977 25.5s0.5 15 0.5 19v54v95v118c0 42 -0.166992 82.667 -0.5 122s-0.666016 75.166 -0.999023 107.499s-0.5 57.5 -0.5 75.5c-0.666992 18 2.33301 30.833 9 38.5
s19.667 11.834 39 12.501zM190.999 -64.999c4.66699 -0.666992 8.00391 -2.99902 10.0039 -6.99902s2.83301 -8.33301 2.5 -13s-1.83301 -8.66699 -4.5 -12s-6.33398 -4.33301 -11.001 -3c-18 4.66699 -32.333 13 -43 25s-17.334 25 -20.001 39s-1.16699 28 4.5 42
s16.167 25 31.5 33c4 2 7.66699 1.83301 11 -0.5s5.83301 -5.5 7.5 -9.5s2.33398 -8.16699 2.00098 -12.5s-1.83301 -7.5 -4.5 -9.5c-10 -6 -16.333 -12.833 -19 -20.5s-2.83398 -15.167 -0.500977 -22.5s6.66602 -13.833 12.999 -19.5s13.166 -8.83398 20.499 -9.50098z
" />
    <glyph glyph-name="Ecaron" unicode="&#x11a;" horiz-adv-x="316" 
d="M290 703c6.66699 -1.33301 11.5 -4.33008 14.5 -8.99707s4.16699 -9.33398 3.5 -14.001s-3.16699 -8.83398 -7.5 -12.501s-9.83301 -5.16699 -16.5 -4.5h-221c-2.66699 -28.667 -4.16699 -56.334 -4.5 -83.001s-0.333008 -53.167 0 -79.5s1 -52.833 2 -79.5
s1.83301 -54.334 2.5 -83.001c5.33301 0 18 0.166992 38 0.5s41.5 0.666016 64.5 0.999023s44.5 0.666016 64.5 0.999023s32.667 0.5 38 0.5c6 -1.33301 10.5 -3.83301 13.5 -7.5s4.5 -7.66699 4.5 -12s-1.5 -8.33301 -4.5 -12s-7.16699 -6.5 -12.5 -8.5
c-5.33301 0 -18.166 -0.166992 -38.499 -0.5s-42 -0.666016 -65 -0.999023s-44.5 -0.666016 -64.5 -0.999023s-32.667 -0.5 -38 -0.5c0 -31.333 -0.166992 -58.333 -0.5 -81s-0.5 -43.5 -0.5 -62.5s0.166992 -37.167 0.5 -54.5s0.5 -36 0.5 -56
c10.667 -0.666992 26.5 -1.16699 47.5 -1.5s43.167 -0.5 66.5 -0.5s45.5 0.166992 66.5 0.5s36.833 0.833008 47.5 1.5c3.33301 0 6.33301 -1.66699 9 -5s4.33398 -7.33301 5.00098 -12s0 -9.16699 -2 -13.5s-5.66699 -7.5 -11 -9.5c-6.66699 -0.666992 -16.667 -1 -30 -1
s-28.166 -0.166992 -44.499 -0.5s-33.666 -0.5 -51.999 -0.5h-52c-16.333 0 -31 0.166992 -44 0.5s-22.833 0.833008 -29.5 1.5c-5.33301 0.666992 -9.33301 4 -12 10s-4.33398 13 -5.00098 21s-0.833984 16.167 -0.500977 24.5s0.5 14.5 0.5 18.5
c0 9.33301 -0.166992 28.166 -0.5 56.499s-0.833008 61.833 -1.5 100.5s-1.33398 79.834 -2.00098 123.501s-1 85.167 -1 124.5s0.166992 74 0.5 104s1.16602 51 2.49902 63c1.33301 18 4.83301 30.833 10.5 38.5s18.167 11.834 37.5 12.501zM182 744.003
c-4 -7.33301 -8.66992 -12.166 -14.0029 -14.499s-10.666 -3.16602 -15.999 -2.49902s-10.333 2.5 -15 5.5s-8 6.83301 -10 11.5l-31 65c-2 4 -1.66699 8.16699 1 12.5s6.16699 7.5 10.5 9.5s8.83301 2.83301 13.5 2.5s8.33398 -2.83301 11.001 -7.5l23 -45l22 46
c2.66699 6 6.83398 9.33301 12.501 10s10.834 -0.333008 15.501 -3s8.16699 -6.33398 10.5 -11.001s2.16602 -9.33398 -0.500977 -14.001z" />
    </font>
</defs>
</svg>
